<svg xmlns="http://www.w3.org/2000/svg" xmlns:xlink="http://www.w3.org/1999/xlink" width="532" height="156" viewBox="0 0 532 156">
  <defs>
    <path id="logo-word-white-a" d="M220.193436,62.6573821 C224.709431,62.6573821 228.221819,62.03017 230.730705,60.7757271 C234.67324,58.8044596 236.644478,55.2562313 236.644478,50.1309358 C236.644478,44.969799 234.547797,41.4932521 230.354374,39.7011908 C227.988853,38.6976364 224.476465,38.1958667 219.817105,38.1958667 L200.731747,38.1958667 L200.731747,62.6573821 L220.193436,62.6573821 Z M223.795462,99.1077281 C230.354406,99.1077281 235.031616,97.2081716 237.827232,93.4090014 C239.583452,91.0076392 240.461549,88.1045433 240.461549,84.6996267 C240.461549,78.9650304 237.89894,75.0583952 232.773644,72.979604 C230.049711,71.8685259 226.447722,71.3129952 221.967568,71.3129952 L200.731747,71.3129952 L200.731747,99.1077281 L223.795462,99.1077281 Z M190.248241,29.2714457 L224.171793,29.2714457 C233.418829,29.2714457 239.995596,32.0311788 243.90229,37.5507279 C246.196128,40.8122796 247.34303,44.575552 247.34303,48.840658 C247.34303,53.8225886 245.927323,57.9084273 243.095866,61.0982965 C241.626376,62.7828342 239.511775,64.3239839 236.752001,65.7217917 C240.802059,67.2629645 243.830598,69.001238 245.837706,70.9366642 C249.385988,74.3774221 251.160102,79.1263135 251.160102,85.1834809 C251.160102,90.2729352 249.565191,94.8784638 246.375322,99.000205 C241.608439,105.164896 234.028133,108.247195 223.634177,108.247195 L190.248241,108.247195 L190.248241,29.2714457 Z M262.665079,50.9373594 L272.503446,50.9373594 L272.503446,108.247195 L262.665079,108.247195 L262.665079,50.9373594 Z M262.665079,29.2714457 L272.503446,29.2714457 L272.503446,40.2388065 L262.665079,40.2388065 L262.665079,29.2714457 Z M309.330123,49.0019428 C315.817385,49.0019428 321.094927,50.5789331 325.162906,53.7329611 C329.230886,56.8869891 331.677013,62.3168536 332.501361,70.0227175 L323.093086,70.0227175 C322.519626,66.474436 321.211441,63.5265393 319.168491,61.1789389 C317.125541,58.8313385 313.846118,57.6575559 309.330123,57.6575559 C303.165432,57.6575559 298.757027,60.6681738 296.104776,66.6895 C294.384398,70.5961938 293.524221,75.4167666 293.524221,81.151363 C293.524221,86.9218006 294.742804,91.778214 297.180008,95.7207491 C299.617211,99.6632841 303.452165,101.634522 308.684984,101.634522 C312.699202,101.634522 315.880063,100.406978 318.227663,97.9518543 C320.575264,95.4967302 322.197055,92.1366656 323.093086,87.8715595 L332.501361,87.8715595 C331.426124,95.5057409 328.738072,101.087928 324.437125,104.618289 C320.136178,108.14865 314.634632,109.913804 307.932322,109.913804 C300.405665,109.913804 294.402349,107.163031 289.922196,101.661403 C285.442042,96.1597744 283.201999,89.2873221 283.201999,81.0438398 C283.201999,70.9366137 285.657086,63.0695823 290.567335,57.4425096 C295.477583,51.8154369 301.731783,49.0019428 309.330123,49.0019428 Z M378.144936,50.6685515 L388.843489,50.6685515 C387.481522,54.3601979 384.452984,62.78276 379.757783,75.9364905 C376.245343,85.8286692 373.306406,93.8928244 370.940885,100.129198 C365.349654,114.824101 361.407178,123.784274 359.113339,127.009984 C356.819501,130.235695 352.877025,131.848526 347.285793,131.848526 C345.923827,131.848526 344.875486,131.794765 344.140741,131.687241 C343.405996,131.579717 342.501019,131.382593 341.425782,131.095864 L341.425782,122.278966 C343.11032,122.744902 344.328903,123.031627 345.081569,123.139151 C345.834235,123.246675 346.497287,123.300436 347.070747,123.300436 C348.862808,123.300436 350.179954,123.00475 351.022223,122.41337 C351.864491,121.821989 352.572345,121.096215 353.145805,120.236026 C353.325011,119.949296 353.970143,118.479828 355.081221,115.827577 C356.192299,113.175326 356.998715,111.204088 357.500492,109.913804 L336.210909,50.6685515 L347.17827,50.6685515 L362.607841,97.5486425 L378.144936,50.6685515 Z M419.433823,49.0019428 C425.921085,49.0019428 431.198627,50.5789331 435.266606,53.7329611 C439.334586,56.8869891 441.780713,62.3168536 442.605061,70.0227175 L433.196786,70.0227175 C432.623326,66.474436 431.315141,63.5265393 429.272191,61.1789389 C427.229241,58.8313385 423.949818,57.6575559 419.433823,57.6575559 C413.269132,57.6575559 408.860727,60.6681738 406.208476,66.6895 C404.488098,70.5961938 403.627921,75.4167666 403.627921,81.151363 C403.627921,86.9218006 404.846504,91.778214 407.283708,95.7207491 C409.720911,99.6632841 413.555865,101.634522 418.788684,101.634522 C422.802902,101.634522 425.983763,100.406978 428.331363,97.9518543 C430.678964,95.4967302 432.300755,92.1366656 433.196786,87.8715595 L442.605061,87.8715595 C441.529824,95.5057409 438.841772,101.087928 434.540825,104.618289 C430.239878,108.14865 424.738332,109.913804 418.036022,109.913804 C410.509365,109.913804 404.506049,107.163031 400.025896,101.661403 C395.545742,96.1597744 393.305699,89.2873221 393.305699,81.0438398 C393.305699,70.9366137 395.760786,63.0695823 400.671035,57.4425096 C405.581283,51.8154369 411.835483,49.0019428 419.433823,49.0019428 Z M452.550952,29.2714457 L462.228035,29.2714457 L462.228035,108.247195 L452.550952,108.247195 L452.550952,29.2714457 Z M500.721321,49.3782738 C504.80722,49.3782738 508.767617,50.3370122 512.602628,52.2545179 C516.437639,54.1720235 519.358656,56.6539913 521.365764,59.7004956 C523.301191,62.6036351 524.591455,65.9905802 525.236597,69.8614328 C525.810057,72.5136836 526.096783,76.742885 526.096783,82.5491639 L483.893948,82.5491639 C484.073155,88.3912839 485.453021,93.0774541 488.033589,96.607815 C490.614158,100.138176 494.610395,101.90333 500.02242,101.90333 C505.076033,101.90333 509.108111,100.236738 512.118774,96.9035036 C513.839153,94.9680774 515.057736,92.7280343 515.774561,90.1833071 L525.290359,90.1833071 C525.03947,92.2979395 524.206174,94.6544649 522.790446,97.2529539 C521.374717,99.8514429 519.788767,101.975004 518.032547,103.6237 C515.093566,106.490998 511.455736,108.426396 507.118948,109.42995 C504.789268,110.00341 502.154977,110.290135 499.215997,110.290135 C492.047751,110.290135 485.972754,107.682725 480.990824,102.467826 C476.008893,97.2529278 473.517965,89.9503873 473.517965,80.5599857 C473.517965,71.312949 476.026813,63.8043245 481.044585,58.0338869 C486.062357,52.2634493 492.621203,49.3782738 500.721321,49.3782738 Z M516.150892,74.861259 C515.756638,70.6678354 514.842701,67.3167309 513.409052,64.807845 C510.756801,60.1484854 506.330476,57.8188406 500.129943,57.8188406 C495.685631,57.8188406 491.958199,59.4227115 488.947536,62.6305013 C485.936873,65.8382912 484.341962,69.9151696 484.162756,74.861259 L516.150892,74.861259 Z"/>
  </defs>
  <g fill="none" fill-rule="evenodd">
    <g fill-rule="nonzero">
      <use fill="#000" xlink:href="#logo-word-white-a"/>
      <use fill="#FFF" xlink:href="#logo-word-white-a"/>
    </g>
    <g fill="#FFF" fill-rule="nonzero">
      <path d="M155.273043,73.4208954 C155.193043,72.2608954 155.113043,71.1008954 155.043043,69.9408954 C154.903043,68.9008954 154.763043,67.8608954 154.623043,66.8208954 C154.213043,63.7708954 153.593043,60.7508954 152.803043,57.7808954 C151.433043,52.6508954 149.563043,47.7108954 147.163043,42.9708954 C146.653043,41.9708954 146.123043,40.9808954 145.603043,39.9908954 C145.553043,39.8908954 145.493043,39.8008954 145.443043,39.7008954 C145.413043,39.6908954 145.403043,39.6608954 145.413043,39.6308954 C145.263043,39.5108954 145.193043,39.3308954 145.133043,39.1608954 C145.103043,39.1408954 145.083043,39.1208954 145.103043,39.0808954 C144.943043,38.9708954 144.883043,38.8008954 144.823043,38.6208954 C144.553043,38.1708954 144.293043,37.7308954 144.023043,37.2808954 C143.943043,37.2108954 143.863043,37.1308954 143.863043,37.0108954 C143.833043,36.9908954 143.823043,36.9608954 143.823043,36.9308954 C143.663043,36.8208954 143.573043,36.6608954 143.533043,36.4808954 C143.503043,36.4608954 143.493043,36.4408954 143.503043,36.4008954 C143.343043,36.2908954 143.253043,36.1308954 143.203043,35.9408954 C142.703043,35.2208954 142.193043,34.5108954 141.713043,33.7808954 C140.283043,31.6308954 138.703043,29.6008954 137.033043,27.6408954 C132.653043,22.5008954 127.763043,17.9208954 122.223043,14.0408954 C121.573043,13.5908954 120.913043,13.1608954 120.253043,12.7208954 C120.103043,12.6108954 119.903043,12.5608954 119.793043,12.3908954 C119.763043,12.4008954 119.743043,12.3908954 119.733043,12.3508954 C119.613043,12.3108954 119.483043,12.2808954 119.423043,12.1408954 C119.353043,12.0908954 119.273043,12.0508954 119.203043,12.0008954 C119.103043,11.9808954 118.993043,11.9708954 118.943043,11.8508954 C118.723043,11.7608954 118.503043,11.6608954 118.343043,11.4708954 C118.213043,11.4908954 118.133043,11.4308954 118.083043,11.3108954 C117.573043,11.0808954 117.103043,10.7808954 116.633043,10.4808954 C116.513043,10.5008954 116.453043,10.4208954 116.393043,10.3308954 C116.353043,10.3408954 116.323043,10.3308954 116.303043,10.2908954 C116.133043,10.2208954 115.943043,10.1808954 115.823043,10.0208954 C114.983043,9.58089539 114.143043,9.13089539 113.303043,8.70089539 C112.483043,8.29089539 111.663043,7.90089539 110.843043,7.50089539 C110.753043,7.46089539 110.653043,7.43089539 110.603043,7.33089539 L110.553043,7.33089539 L110.513043,7.30089539 C110.403043,7.33089539 110.343043,7.28089539 110.303043,7.18089539 C110.173043,7.18089539 110.063043,7.15089539 109.983043,7.04089539 C109.783043,7.05089539 109.623043,6.94089539 109.473043,6.83089539 C108.623043,6.46089539 107.773043,6.08089539 106.913043,5.73089539 C105.883043,5.31089539 104.843043,4.89089539 103.793043,4.52089539 C103.003043,4.24089539 102.213043,3.94089539 101.423043,3.67089539 C100.033043,3.21089539 98.6130433,2.81089539 97.2030433,2.43089539 C95.2330433,1.89089539 93.2330433,1.49089539 91.2330433,1.09089539 C91.1030433,1.12089539 90.9930433,1.11089539 90.9130433,1.00089539 C90.7330433,0.980895394 90.5630433,0.970895394 90.3830433,0.950895394 C90.2930433,0.970895394 90.2130433,0.990895394 90.1630433,0.880895394 C90.0130433,0.890895394 89.8630433,0.880895394 89.7330433,0.780895394 C89.2130433,0.890895394 88.7130433,0.680895394 88.2130433,0.630895394 C82.9130433,0.100895394 77.6030433,-0.0791046065 72.2830433,0.0308953935 C70.7730433,0.0608953935 69.2730433,0.340895394 67.7730433,0.560895394 C65.9230433,0.830895394 64.0730433,1.11089539 62.2530433,1.48089539 C60.0230433,1.93089539 57.8130433,2.47089539 55.6330433,3.13089539 C48.0430433,5.43089539 40.9430433,8.79089539 34.3330433,13.1608954 C28.8130433,16.8108954 23.9630433,21.2408954 19.5430433,26.1508954 C13.2130433,33.1708954 8.50304329,41.1908954 5.07304329,49.9808954 C3.72304329,53.4508954 2.63304329,57.0008954 1.80304329,60.6208954 C1.06304329,63.8608954 0.383043285,67.1308954 0.203043285,70.4608954 C-0.0269567149,74.7708954 -0.0769567149,79.0908954 0.133043285,83.4108954 C0.273043285,86.3208954 0.693043285,89.1808954 1.25304329,92.0408954 C2.39304329,97.8508954 4.14304329,103.470895 6.50304329,108.900895 C7.56304329,111.330895 8.79304329,113.670895 10.0330433,116.020895 C11.3830433,118.590895 12.9730433,121.020895 14.6930433,123.330895 C18.0430433,127.830895 21.7630433,132.000895 25.9730433,135.730895 C32.6330433,141.630895 40.0630433,146.280895 48.2830433,149.660895 C51.8530433,151.130895 55.5130433,152.300895 59.2630433,153.220895 C61.9230433,153.870895 64.6130433,154.380895 67.3330433,154.760895 C69.2030433,155.020895 71.0930433,155.140895 72.9730433,155.310895 C75.4730433,155.540895 77.9630433,155.470895 80.4630433,155.430895 C82.7730433,155.390895 85.0730433,155.110895 87.3730433,154.840895 C89.7130433,154.570895 92.0230433,154.150895 94.3130433,153.660895 C96.7230433,153.140895 99.1030433,152.480895 101.453043,151.730895 C105.963043,150.280895 110.293043,148.410895 114.473043,146.180895 C118.743043,143.900895 122.693043,141.150895 126.473043,138.130895 C127.563043,137.260895 128.683043,136.400895 129.693043,135.430895 C132.023043,133.210895 134.323043,130.950895 136.403043,128.480895 C137.223043,127.510895 138.063043,126.550895 138.863043,125.560895 C139.323043,124.980895 139.713043,124.340895 140.223043,123.800895 C142.143043,121.130895 143.933043,118.370895 145.583043,115.520895 C145.893043,114.990895 146.083043,114.380895 146.523043,113.920895 C146.683043,113.750895 146.563043,113.500895 146.733043,113.350895 C146.843043,113.160895 146.953043,112.970895 147.063043,112.780895 C147.123043,112.650895 147.183043,112.530895 147.243043,112.400895 C147.243043,112.290895 147.303043,112.200895 147.383043,112.130895 C147.483043,111.930895 147.583043,111.740895 147.683043,111.540895 C147.663043,111.420895 147.713043,111.340895 147.813043,111.280895 C147.853043,111.050895 147.953043,110.850895 148.093043,110.680895 C148.243043,110.160895 148.473043,109.680895 148.763043,109.230895 C148.773043,109.180895 148.793043,109.120895 148.803043,109.070895 C148.883043,108.870895 148.893043,108.640895 149.083043,108.490895 C149.103043,108.430895 149.113043,108.380895 149.133043,108.320895 C149.203043,108.120895 149.243043,107.900895 149.403043,107.740895 C149.423043,107.690895 149.443043,107.630895 149.453043,107.580895 C149.513043,107.260895 149.673043,106.980895 149.843043,106.710895 C149.903043,106.220895 150.263043,105.830895 150.303043,105.330895 C150.513043,104.950895 150.553043,104.500895 150.813043,104.150895 C150.833043,104.080895 150.853043,104.010895 150.863043,103.940895 C150.843043,103.820895 150.903043,103.730895 150.983043,103.650895 C151.633043,101.620895 152.333043,99.6008954 152.863043,97.5308954 C153.163043,96.3508954 153.443043,95.1508954 153.733043,93.9708954 C153.693043,93.8408954 153.763043,93.7408954 153.833043,93.6508954 C153.843043,93.5408954 153.863043,93.4408954 153.873043,93.3308954 C153.843043,93.1808954 153.863043,93.0408954 153.983043,92.9308954 C153.973043,92.7408954 153.973043,92.5408954 154.063043,92.3708954 C154.023043,92.2408954 154.083043,92.1408954 154.153043,92.0508954 C154.173043,91.9108954 154.183043,91.7708954 154.203043,91.6308954 C154.163043,91.4808954 154.193043,91.3408954 154.303043,91.2208954 C154.303043,90.9608954 154.293043,90.6908954 154.423043,90.4508954 C154.373043,90.3608954 154.403043,90.2908954 154.463043,90.2308954 C154.483043,90.0508954 154.493043,89.8808954 154.513043,89.7008954 C154.483043,89.5108954 154.503043,89.3408954 154.623043,89.1908954 C154.633043,89.0408954 154.653043,88.8808954 154.663043,88.7308954 C154.613043,88.6508954 154.613043,88.5808954 154.693043,88.5208954 C154.703043,88.4508954 154.723043,88.3808954 154.733043,88.3108954 C154.673043,88.1908954 154.713043,88.0808954 154.783043,87.9808954 C154.803043,87.7708954 154.813043,87.5608954 154.833043,87.3408954 C154.793043,87.1808954 154.803043,87.0408954 154.913043,86.9108954 C154.933043,86.6308954 154.953043,86.3408954 154.983043,86.0608954 C154.933043,85.9408954 154.933043,85.8408954 155.023043,85.7408954 C154.993043,85.6308954 155.013043,85.5208954 155.073043,85.4208954 C155.113043,83.7708954 155.293043,82.1308954 155.423043,80.4808954 C155.423043,78.1608954 155.423043,75.8408954 155.423043,73.5208954 C155.303043,73.5508954 155.273043,73.5008954 155.273043,73.4208954 Z M108.753043,29.0108954 C109.333043,28.0108954 109.943043,27.0308954 110.613043,26.0808954 C111.123043,25.3608954 111.123043,25.3608954 111.853043,25.8308954 C114.413043,27.4708954 116.763043,29.3708954 119.013043,31.4108954 C122.893043,34.9208954 126.303043,38.8308954 129.303043,43.1108954 C130.043043,44.1708954 130.023043,44.2008954 128.943043,44.8708954 C124.533043,47.6208954 120.043043,50.2408954 115.543043,52.8408954 C114.583043,53.3908954 113.633043,53.9708954 112.653043,54.4908954 C112.613043,54.5008954 112.573043,54.5208954 112.533043,54.5308954 C112.513043,54.5508954 112.483043,54.5808954 112.463043,54.6008954 C112.343043,54.7608954 112.173043,54.8308954 111.993043,54.8908954 L111.963043,54.9208954 L111.923043,54.9208954 C111.813043,55.0808954 111.643043,55.1508954 111.463043,55.2108954 L111.423043,55.2408954 L111.373043,55.2408954 C111.193043,55.4408954 110.963043,55.5508954 110.703043,55.6308954 C110.563043,55.7608954 110.413043,55.8708954 110.223043,55.9008954 C110.173043,56.0208954 110.083043,56.0608954 109.953043,56.0508954 C109.943043,56.0908954 109.923043,56.1108954 109.883043,56.1008954 C109.803043,56.2308954 109.673043,56.2808954 109.533043,56.3108954 L109.513043,56.3408954 L109.483043,56.3408954 C109.003043,56.7108954 108.463043,56.9908954 107.923043,57.2508954 C107.913043,57.2908954 107.883043,57.3008954 107.843043,57.2908954 C107.783043,57.3808954 107.713043,57.4508954 107.593043,57.4408954 C107.473043,57.5008954 107.353043,57.5708954 107.233043,57.6308954 C107.173043,57.7408954 107.083043,57.8008954 106.953043,57.7908954 C106.833043,57.9508954 106.653043,57.9908954 106.493043,58.0708954 C106.403043,58.1408954 106.333043,58.2308954 106.203043,58.2308954 L106.173043,58.2608954 L106.133043,58.2608954 C106.013043,58.4208954 105.833043,58.4808954 105.663043,58.5408954 L105.633043,58.5708954 L105.593043,58.5708954 C105.483043,58.7308954 105.313043,58.8008954 105.133043,58.8508954 C105.113043,58.8808954 105.083043,58.8908954 105.053043,58.8808954 C104.863043,59.0708954 104.643043,59.1908954 104.383043,59.2608954 C104.343043,59.2908954 104.293043,59.3108954 104.253043,59.3408954 C104.183043,59.4308954 104.103043,59.5208954 103.963043,59.5108954 L103.943043,59.5408954 L103.903043,59.5408954 C103.783043,59.7008954 103.613043,59.7808954 103.423043,59.8308954 C103.333043,59.8808954 103.253043,59.9308954 103.163043,59.9808954 C103.093043,60.0708954 103.013043,60.1508954 102.883043,60.1408954 C102.863043,60.1708954 102.843043,60.1808954 102.803043,60.1708954 C102.443043,60.4808954 102.023043,60.6908954 101.593043,60.8908954 C101.583043,60.9308954 101.553043,60.9408954 101.523043,60.9308954 C101.463043,61.0108954 101.383043,61.0808954 101.273043,61.0808954 C101.153043,61.1408954 101.033043,61.2108954 100.913043,61.2708954 C100.793043,61.4408954 100.603043,61.4908954 100.423043,61.5608954 C100.343043,61.6108954 100.253043,61.6608954 100.173043,61.7108954 C100.093043,61.7908954 100.013043,61.8808954 99.8830433,61.8808954 L99.8630433,61.9108954 L99.8230433,61.9108954 C99.7030433,62.0708954 99.5230433,62.1308954 99.3430433,62.2008954 C97.7230433,63.1408954 96.1130433,64.0708954 94.4930433,65.0208954 C94.2830433,65.1408954 94.1430433,65.1208954 93.9730433,64.9508954 C92.8130433,63.7708954 91.6130433,62.6208954 90.5030433,61.3808954 C90.2230433,61.0708954 90.3730433,60.8408954 90.5330433,60.5708954 C93.2330433,55.8808954 95.9230433,51.1808954 98.6230433,46.5008954 C102.003043,40.6508954 105.383043,34.8308954 108.753043,29.0108954 Z M80.9830433,15.5908954 C83.5630433,15.7908954 86.1330433,16.0408954 88.6830433,16.4908954 C93.2730433,17.3008954 97.7030433,18.6808954 101.993043,20.5008954 C103.353043,21.0708954 104.673043,21.7308954 106.023043,22.3208954 C106.423043,22.4908954 106.463043,22.6508954 106.243043,23.0308954 C103.383043,27.9508954 100.533043,32.8908954 97.6730433,37.8208954 C94.3630433,43.5308954 91.0930433,49.2808954 87.6630433,54.9208954 C87.0430433,55.9408954 86.3630433,56.9208954 85.7230433,57.9308954 C85.4830433,58.3008954 85.2230433,58.4308954 84.7430433,58.2808954 C83.5230433,57.9008954 82.2730433,57.6008954 81.0330433,57.2808954 C80.6530433,57.1808954 80.4930433,57.0408954 80.4930433,56.6008954 C80.5130433,49.8508954 80.5030433,43.1008954 80.5030433,36.3508954 C80.4530433,36.3508954 80.4030433,36.3508954 80.3630433,36.3508954 C80.3630433,29.6208954 80.3730433,22.8908954 80.3530433,16.1608954 C80.3630433,15.6708954 80.5030433,15.5508954 80.9830433,15.5908954 Z M49.1230433,22.3708954 C53.0530433,20.3708954 57.1430433,18.8308954 61.3930433,17.6908954 C64.2330433,16.9308954 67.1030433,16.3308954 70.0230433,15.9608954 C70.6530433,15.8808954 71.2930433,15.7508954 71.9330433,15.8008954 C72.2630433,15.7908954 72.5830433,15.7808954 72.9130433,15.7708954 C73.2530433,15.6308954 73.6130433,15.6308954 73.9730433,15.6508954 C74.1830433,15.6008954 74.3930433,15.5808954 74.6030433,15.6408954 C74.7530433,15.6308954 74.7730433,15.7408954 74.7730433,15.8508954 C74.7830433,17.7008954 74.8630433,19.5508954 74.7930433,21.4008954 C74.7930433,21.7508954 74.8030433,22.1108954 74.8030433,22.4608954 C74.8530433,22.6408954 74.8530433,22.8208954 74.8030433,23.0008954 C74.8030433,23.1808954 74.8030433,23.3608954 74.8030433,23.5408954 C74.8530433,23.7908954 74.8530433,24.0408954 74.8030433,24.2808954 C74.7930433,24.4808954 74.9230433,24.6908954 74.7130433,24.8608954 C74.7730433,24.9408954 74.7730433,25.0208954 74.7130433,25.1008954 C74.9330433,25.3008954 74.8030433,25.5508954 74.8030433,25.7808954 C74.8130433,25.8908954 74.8330433,25.9908954 74.8330433,26.1008954 C74.8330433,32.8508954 74.8330433,39.6008954 74.8330433,46.3508954 C74.8330433,46.4608954 74.8130433,46.5608954 74.8030433,46.6708954 C74.8030433,47.2108954 74.8030433,47.7408954 74.8030433,48.2808954 C74.8530433,48.4908954 74.8530433,48.7108954 74.8030433,48.9208954 C74.7930433,49.7108954 74.7930433,50.4908954 74.7830433,51.2808954 C74.8530433,53.1308954 74.7630433,54.9808954 74.7730433,56.8408954 C74.7730433,57.1908954 74.5330433,57.2208954 74.2730433,57.2508954 C74.1630433,57.3308954 74.0330433,57.3308954 73.9030433,57.3208954 C73.8030433,57.4408954 73.6730433,57.4808954 73.5230433,57.4608954 C73.4530433,57.4708954 73.3830433,57.4708954 73.3130433,57.4808954 C73.1830433,57.5708954 73.0630433,57.6608954 72.8930433,57.6208954 C72.8030433,57.6308954 72.7230433,57.6408954 72.6330433,57.6508954 C72.5630433,57.7508954 72.4730433,57.8008954 72.3530433,57.7608954 C72.2830433,57.7708954 72.2130433,57.7908954 72.1430433,57.8008954 C72.0130433,57.8908954 71.8930433,57.9908954 71.7230433,57.9408954 C71.6630433,57.9508954 71.6030433,57.9508954 71.5430433,57.9608954 C71.4430433,58.0608954 71.3330433,58.1208954 71.1830433,58.0908954 C71.1130433,58.1008954 71.0430433,58.1108954 70.9630433,58.1208954 C70.8730433,58.2008954 70.7830433,58.2708954 70.6530433,58.2508954 C70.2330433,58.4508954 69.8730433,58.4708954 69.5630433,58.0108954 C68.1330433,55.9508954 66.8430433,53.8108954 65.6130433,51.6208954 C64.7730433,50.4308954 64.0930433,49.1408954 63.3630433,47.8808954 C59.3330433,40.9308954 55.3130433,33.9708954 51.2830433,27.0108954 C50.5130433,25.6708954 49.7430433,24.3208954 48.9630433,22.9908954 C48.7830433,22.6708954 48.7830433,22.5408954 49.1230433,22.3708954 Z M25.3430433,43.9608954 C30.2030433,36.4808954 36.3930433,30.3408954 43.8430433,25.4508954 C44.1930433,25.2208954 44.3530433,25.2408954 44.5730433,25.6108954 C47.9930433,31.5608954 51.4430433,37.5108954 54.8630433,43.4608954 C58.1330433,49.1308954 61.3830433,54.8008954 64.6430433,60.4708954 C64.7430433,60.6408954 64.8730433,60.7908954 64.8830433,61.0008954 C64.8930433,61.1808954 64.7730433,61.3008954 64.6630433,61.4108954 C63.5330433,62.5808954 62.4030433,63.7408954 61.2830433,64.9108954 C61.0230433,65.1808954 60.8230433,65.0708954 60.5830433,64.9308954 C59.1830433,64.1208954 57.7730433,63.3108954 56.3730433,62.5008954 C52.7830433,60.4208954 49.1930433,58.3308954 45.5930433,56.2508954 C38.9130433,52.3808954 32.2230433,48.5208954 25.5330433,44.6708954 C25.1630433,44.4608954 25.1030433,44.3208954 25.3430433,43.9608954 Z M15.3830433,74.4308954 C15.6730433,73.1008954 15.6830433,71.7408954 15.8230433,70.3908954 C15.9730433,68.9208954 16.2030433,67.4608954 16.4930433,66.0108954 C17.1530433,62.7508954 18.0530433,59.5508954 19.1530433,56.4108954 C20.0130433,53.9408954 21.1030433,51.5708954 22.2030433,49.2008954 C22.3630433,48.8508954 22.5230433,48.8808954 22.8130433,49.0408954 C28.5230433,52.3408954 34.2530433,55.6208954 39.9630433,58.9308954 C44.9830433,61.8408954 50.0130433,64.7108954 54.9730433,67.7308954 C55.9430433,68.3208954 56.9130433,68.9308954 57.8430433,69.5808954 C58.2230433,69.8508954 58.3630433,70.1108954 58.2130433,70.6008954 C57.8130433,71.8908954 57.4830433,73.2008954 57.1330433,74.5008954 C57.0730433,74.7408954 56.9730433,74.8608954 56.7030433,74.8608954 C53.9930433,74.8608954 51.2730433,74.8808954 48.5630433,74.8908954 C48.5330433,74.8908954 48.4930433,74.8708954 48.4630433,74.8608954 C46.8630433,74.9108954 45.2630433,74.9208954 43.6530433,74.8708954 C41.0830433,74.8908954 38.5130433,74.9108954 35.9430433,74.9208954 C31.3930433,74.9408954 26.8430433,74.9508954 22.2930433,74.9708954 C20.1730433,74.9808954 18.0430433,74.9808954 15.9230433,75.0208954 C15.4230433,75.0508954 15.2830433,74.9008954 15.3830433,74.4308954 Z M22.2130433,106.160895 C20.0830433,101.920895 18.4730433,97.4908954 17.2830433,92.9008954 C16.6630433,90.4908954 16.1630433,88.0508954 15.8730433,85.5708954 C15.7230433,84.3008954 15.6330433,83.0108954 15.5130433,81.7408954 C15.4830433,81.4108954 15.4230433,81.0708954 15.3830433,80.7408954 C15.3130433,80.5108954 15.4530433,80.4608954 15.6330433,80.4608954 C16.6530433,80.4708954 17.6730433,80.4808954 18.7030433,80.4908954 C19.8030433,80.4808954 20.9130433,80.4508954 22.0130433,80.4508954 C29.9030433,80.4808954 37.7930433,80.5108954 45.6830433,80.5508954 C49.3230433,80.5708954 52.9630433,80.6008954 56.6030433,80.6108954 C56.9130433,80.6108954 57.0630433,80.6808954 57.1430433,81.0108954 C57.4730433,82.3208954 57.8230433,83.6208954 58.2030433,84.9208954 C58.3230433,85.3208954 58.2230433,85.5508954 57.9130433,85.7708954 C56.7030433,86.6608954 55.4230433,87.4308954 54.1430433,88.2008954 C47.2930433,92.3108954 40.3530433,96.2608954 33.4430433,100.270895 C29.9330433,102.310895 26.4130433,104.320895 22.9130433,106.360895 C22.5330433,106.600895 22.3930433,106.520895 22.2130433,106.160895 Z M44.5730433,129.330895 C44.1030433,130.100895 44.0830433,130.110895 43.3130433,129.620895 C41.1430433,128.230895 39.1830433,126.580895 37.2330433,124.910895 C32.9730433,121.280895 29.2930433,117.130895 26.0730433,112.560895 C25.1730433,111.290895 25.1930433,111.270895 26.5130433,110.460895 C33.0030433,106.480895 39.6030433,102.680895 46.1930433,98.8608954 C51.0130433,96.0708954 55.8330433,93.2808954 60.6530433,90.4808954 C60.8530433,90.3708954 61.0230433,90.2208954 61.2530433,90.4708954 C62.4030433,91.6608954 63.6030433,92.8208954 64.6830433,94.0708954 C64.7830433,94.1908954 64.9030433,94.3108954 64.8930433,94.5508954 C64.8430433,94.6608954 64.7730433,94.8308954 64.6930433,94.9808954 C62.6730433,98.5208954 60.6630433,102.070895 58.6230433,105.590895 C56.5430433,109.190895 54.4330433,112.770895 52.3330433,116.350895 C49.7630433,120.690895 47.2230433,125.040895 44.5730433,129.330895 Z M74.4330433,139.920895 C72.0730433,139.670895 69.7030433,139.540895 67.3730433,139.120895 C63.3030433,138.390895 59.3230433,137.350895 55.4530433,135.910895 C53.3030433,135.110895 51.2030433,134.190895 49.1730433,133.130895 C48.8330433,132.950895 48.8130433,132.810895 48.9930433,132.490895 C52.6730433,126.130895 56.3430433,119.760895 60.0230433,113.400895 C62.3030433,109.460895 64.6130433,105.540895 66.9130433,101.620895 C67.0030433,101.470895 67.0530433,101.290895 67.2230433,101.200895 C67.2830433,100.990895 67.3930433,100.810895 67.5530433,100.670895 C67.5330433,100.530895 67.6030433,100.450895 67.7130433,100.380895 C68.2730433,99.3708954 68.9130433,98.4108954 69.5830433,97.4708954 C69.8230433,97.1308954 70.0930433,97.0308954 70.4930433,97.1908954 C71.0030433,97.4008954 71.5430433,97.5408954 72.0730433,97.7208954 C72.1830433,97.5708954 72.2030433,97.8008954 72.2830433,97.7708954 C72.3830433,97.7808954 72.4830433,97.7808954 72.5830433,97.7908954 C72.7130433,97.7608954 72.8130433,97.8208954 72.9030433,97.9108954 C73.0130433,97.9308954 73.1130433,97.9408954 73.2230433,97.9608954 C73.3730433,97.9208954 73.4930433,97.9908954 73.6030433,98.0808954 C73.6530433,98.0908954 73.7130433,98.1008954 73.7630433,98.1108954 C73.9330433,98.0608954 74.0630433,98.1608954 74.1830433,98.2408954 C74.2530433,98.2508954 74.3230433,98.2608954 74.3930433,98.2708954 C74.7630433,98.2508954 74.7730433,98.5008954 74.7830433,98.7708954 C74.7830433,99.8208954 74.8030433,100.880895 74.8030433,101.930895 C74.8330433,112.730895 74.8530433,123.530895 74.8830433,134.330895 C74.8830433,136.040895 74.8930433,137.760895 74.9230433,139.470895 C74.9230433,139.830895 74.8230433,139.960895 74.4330433,139.920895 Z M74.9330433,92.3008954 C73.8330433,93.7608954 72.7030433,93.3408954 71.4530433,92.8208954 C70.2130433,92.3108954 69.0730433,91.8208954 69.3330433,90.0108954 C69.6930433,87.4908954 68.0130433,85.9108954 65.4230433,86.0708954 C63.6430433,86.5008954 63.1730433,85.2208954 62.6330433,83.9708954 C62.0830433,82.6908954 61.7330433,81.6008954 63.1730433,80.5208954 C65.1530433,79.0208954 65.1130433,76.5508954 63.1030433,74.9908954 C61.7530433,73.9508954 62.0730433,72.9008954 62.6030433,71.6708954 C63.1430433,70.4508954 63.5130433,69.2508954 65.3430433,69.4508954 C68.0630433,69.7508954 69.6630433,68.1408954 69.3130433,65.4708954 C69.0930433,63.7608954 70.1830433,63.2708954 71.3630433,62.7808954 C72.5830433,62.2808954 73.7430433,61.7508954 74.8630433,63.2008954 C76.4830433,65.3008954 78.8430433,65.2808954 80.4930433,63.1608954 C81.6430433,61.6908954 82.7930433,62.3408954 84.0030433,62.8108954 C85.2230433,63.2908954 86.2430433,63.8108954 86.0130433,65.5108954 C85.6630433,68.0508954 87.3330433,69.7808954 89.8830433,69.4508954 C91.8030433,69.2108954 92.2030433,70.4208954 92.7530433,71.7108954 C93.2730433,72.9408954 93.5830433,73.9808954 92.2130433,75.0108954 C90.0930433,76.6108954 90.0530433,78.8608954 92.1430433,80.4808954 C93.5330433,81.5608954 93.2930433,82.6208954 92.7330433,83.9308954 C92.1630433,85.2608954 91.6730433,86.3508954 89.7930433,86.0908954 C87.3830433,85.7608954 85.6630433,87.5408954 86.0130433,89.9608954 C86.2530433,91.6408954 85.3530433,92.2208954 84.0930433,92.7108954 C82.8130433,93.2008954 81.6330433,93.8808954 80.4530433,92.3208954 C78.9230433,90.3008954 76.4330433,90.2908954 74.9330433,92.3008954 Z M106.103043,133.120895 C102.413043,135.030895 98.5630433,136.500895 94.5530433,137.590895 C91.6630433,138.370895 88.7530433,138.990895 85.7930433,139.410895 C84.1330433,139.650895 82.4630433,139.750895 80.7930433,139.930895 C80.4730433,139.960895 80.3630433,139.880895 80.3630433,139.540895 C80.3730433,131.960895 80.3730433,124.370895 80.3730433,116.790895 C80.3730433,116.700895 80.3930433,116.610895 80.4030433,116.530895 C80.3830433,112.850895 80.3430433,109.180895 80.4230433,105.500895 C80.3830433,103.860895 80.3630433,102.210895 80.5430433,100.580895 C80.5530433,100.190895 80.5630433,99.7908954 80.5730433,99.4008954 C80.5230433,99.1208954 80.5430433,98.8408954 80.6930433,98.5908954 C80.6730433,98.3408954 80.7930433,98.2108954 81.0430433,98.2408954 C81.1730433,98.1608954 81.2930433,98.0508954 81.4630433,98.1008954 C81.5130433,98.0908954 81.5730433,98.0908954 81.6230433,98.0808954 C81.8530433,97.8808954 82.1630433,97.8908954 82.4330433,97.8108954 C82.5230433,97.8008954 82.6130433,97.7808954 82.7030433,97.7708954 C82.8030433,97.6608954 82.9230433,97.6108954 83.0730433,97.6308954 C83.1430433,97.6208954 83.2130433,97.6108954 83.2830433,97.5908954 C83.3630433,97.4908954 83.4730433,97.4408954 83.6030433,97.4708954 C83.6930433,97.4608954 83.7730433,97.4408954 83.8630433,97.4308954 C83.9330433,97.3308954 84.0230433,97.2908954 84.1530433,97.3208954 C84.2230433,97.3108954 84.2930433,97.2908954 84.3630433,97.2808954 C84.6530433,97.0908954 84.9930433,97.0408954 85.3330433,96.9908954 C85.4030433,96.9508954 85.4830433,96.9508954 85.5430433,97.0108954 C85.6630433,97.0508954 85.7230433,97.1308954 85.7330433,97.2508954 C85.7830433,97.3308954 85.8430433,97.4208954 85.8930433,97.5008954 C85.9730433,97.5808954 86.0530433,97.6608954 86.0630433,97.7808954 C86.0930433,97.7908954 86.1030433,97.8108954 86.0930433,97.8408954 C86.2530433,97.9608954 86.3330433,98.1308954 86.3830433,98.3108954 C86.4330433,98.3908954 86.4830433,98.4808954 86.5330433,98.5608954 C86.6230433,98.6408954 86.7030433,98.7108954 86.6930433,98.8408954 C86.7430433,98.9308954 86.7930433,99.0108954 86.8430433,99.1008954 C86.9330433,99.1708954 87.0130433,99.2508954 87.0130433,99.3808954 C87.0430433,99.4008954 87.0530433,99.4208954 87.0430433,99.4508954 C87.2030433,99.5608954 87.2830433,99.7308954 87.3330433,99.9208954 C87.3830433,100.010895 87.4330433,100.100895 87.4830433,100.180895 C87.5730433,100.250895 87.6530433,100.330895 87.6430433,100.450895 C87.6730433,100.470895 87.6830433,100.500895 87.6730433,100.530895 C87.8230433,100.600895 87.8430433,100.730895 87.8530433,100.880895 C87.8930433,100.960895 87.9330433,101.040895 87.9730433,101.120895 C88.0730433,101.190895 88.1930433,101.260895 88.1730433,101.410895 C88.3130433,101.680895 88.5330433,101.900895 88.6130433,102.200895 C88.6930433,102.280895 88.7930433,102.350895 88.8030433,102.480895 C88.9930433,102.810895 89.1730433,103.140895 89.3630433,103.470895 C89.3830433,103.540895 89.5630433,103.520895 89.4630433,103.650895 C89.6130433,103.910895 89.7530433,104.160895 89.9030433,104.420895 C90.0130433,104.490895 90.1130433,104.570895 90.1030433,104.720895 C90.1830433,104.850895 90.2730433,104.980895 90.3530433,105.110895 C90.5330433,105.270895 90.6430433,105.460895 90.6830433,105.700895 C90.7130433,105.750895 90.7530433,105.800895 90.7830433,105.850895 C90.8730433,105.920895 90.9530433,106.000895 90.9430433,106.130895 C90.9930433,106.220895 91.0530433,106.310895 91.1030433,106.400895 C91.4530433,106.890895 91.7630433,107.400895 92.0030433,107.960895 C92.1630433,108.240895 92.3230433,108.510895 92.4830433,108.790895 C92.6230433,108.910895 92.7330433,109.050895 92.7330433,109.250895 C92.7530433,109.280895 92.7730433,109.310895 92.7930433,109.330895 C92.9130433,109.410895 92.9630433,109.530895 93.0030433,109.670895 C93.0730433,109.830895 93.1430433,109.980895 93.2130433,110.140895 C93.3030433,110.220895 93.4030433,110.290895 93.4030433,110.420895 C93.4430433,110.500895 93.4930433,110.590895 93.5330433,110.670895 C93.7330433,110.830895 93.8730433,111.030895 93.9430433,111.280895 C93.9730433,111.300895 93.9930433,111.330895 93.9730433,111.360895 C94.0530433,111.420895 94.1330433,111.480895 94.1230433,111.600895 C94.3330433,111.970895 94.5430433,112.330895 94.7630433,112.700895 C94.8930433,112.810895 94.9730433,112.940895 94.9830433,113.100895 C95.0130433,113.150895 95.0430433,113.200895 95.0730433,113.240895 C95.2330433,113.370895 95.3130433,113.540895 95.3630433,113.730895 L95.3930433,113.740895 L95.3930433,113.770895 C95.5530433,113.900895 95.6230433,114.070895 95.6830433,114.260895 L95.7130433,114.280895 L95.7130433,114.320895 C96.0330433,114.740895 96.2830433,115.190895 96.5030433,115.670895 C96.7230433,116.060895 96.9430433,116.460895 97.1630433,116.850895 C97.2730433,116.930895 97.3530433,117.030895 97.3330433,117.170895 C97.3730433,117.210895 97.4030433,117.260895 97.4430433,117.300895 C97.6430433,117.550895 97.8030433,117.820895 97.9130433,118.130895 C97.9430433,118.150895 97.9530433,118.180895 97.9430433,118.210895 C98.1030433,118.320895 98.1630433,118.490895 98.2230433,118.660895 C98.2530433,118.680895 98.2730433,118.710895 98.2630433,118.740895 C98.3430433,118.800895 98.4330433,118.860895 98.3930433,118.980895 C98.4230433,119.030895 98.4530433,119.090895 98.4830433,119.140895 C98.6130433,119.180895 98.6230433,119.300895 98.6330433,119.400895 C98.6630433,119.440895 98.6930433,119.490895 98.7230433,119.530895 C98.8130433,119.610895 98.9030433,119.680895 98.8930433,119.820895 C99.0330433,120.090895 99.1230433,120.400895 99.3530433,120.620895 C99.4430433,120.690895 99.5230433,120.770895 99.5130433,120.900895 C99.5430433,120.920895 99.5530433,120.950895 99.5430433,120.980895 C99.8030433,121.280895 99.9830433,121.610895 100.133043,121.970895 C100.143043,122.000895 100.163043,122.040895 100.173043,122.070895 C100.383043,122.280895 100.513043,122.540895 100.613043,122.820895 L100.643043,122.840895 L100.633043,122.870895 C100.733043,122.940895 100.803043,123.020895 100.783043,123.150895 C100.883043,123.300895 100.973043,123.460895 101.073043,123.610895 C101.123043,123.710895 101.183043,123.800895 101.233043,123.900895 C101.263043,123.910895 101.273043,123.930895 101.263043,123.960895 C101.423043,124.080895 101.483043,124.260895 101.543043,124.440895 C101.573043,124.460895 101.583043,124.480895 101.573043,124.520895 C101.733043,124.630895 101.793043,124.810895 101.853043,124.980895 C101.973043,125.190895 102.083043,125.400895 102.203043,125.610895 C102.283043,125.670895 102.363043,125.730895 102.343043,125.840895 C102.473043,126.100895 102.603043,126.350895 102.723043,126.610895 C102.833043,126.680895 102.893043,126.770895 102.903043,126.900895 C102.913043,126.940895 102.933043,126.970895 102.943043,127.010895 C103.633043,127.780895 103.973043,128.760895 104.493043,129.630895 C105.073043,130.590895 105.623043,131.560895 106.223043,132.510895 C106.493043,132.850895 106.393043,132.970895 106.103043,133.120895 Z M129.913043,111.430895 C128.853043,113.250895 127.593043,114.930895 126.233043,116.540895 C124.403043,118.710895 122.463043,120.780895 120.413043,122.740895 C117.683043,125.340895 114.883043,127.880895 111.623043,129.830895 C111.563043,129.870895 111.503043,129.900895 111.443043,129.950895 C111.053043,130.280895 110.843043,130.200895 110.573043,129.740895 C106.903043,123.320895 103.203043,116.910895 99.5230433,110.500895 C99.1730433,109.880895 98.8230433,109.270895 98.4730433,108.650895 C98.2630433,108.410895 98.1130433,108.140895 98.0030433,107.850895 C95.4630433,103.470895 92.9230433,99.0908954 90.3730433,94.7108954 C90.2230433,94.4508954 90.2530433,94.2908954 90.4730433,94.0708954 C91.6230433,92.9208954 92.7430433,91.7608954 93.8830433,90.6008954 C94.0430433,90.4408954 94.1630433,90.2608954 94.4530433,90.4408954 C95.8230433,91.2708954 97.2130433,92.0608954 98.5930433,92.8708954 C98.7130433,92.8808954 98.7930433,92.9508954 98.8730433,93.0308954 C98.9630433,93.0808954 99.0430433,93.1308954 99.1330433,93.1808954 C99.3230433,93.2308954 99.4930433,93.3108954 99.6130433,93.4708954 C99.6430433,93.4608954 99.6630433,93.4608954 99.6730433,93.4908954 C99.8130433,93.4808954 99.8830433,93.5808954 99.9630433,93.6508954 C100.153043,93.7608954 100.333043,93.8608954 100.523043,93.9708954 C100.643043,93.9608954 100.713043,94.0308954 100.773043,94.1208954 C100.813043,94.1108954 100.833043,94.1208954 100.853043,94.1608954 C101.213043,94.3208954 101.563043,94.4908954 101.873043,94.7508954 C101.903043,94.7408954 101.923043,94.7508954 101.933043,94.7808954 C102.073043,94.8108954 102.193043,94.8608954 102.273043,94.9908954 C102.303043,95.0108954 102.333043,95.0308954 102.353043,95.0508954 C102.473043,95.0408954 102.563043,95.0708954 102.613043,95.2008954 C102.943043,95.3308954 103.243043,95.5108954 103.533043,95.7208954 C103.653043,95.6908954 103.713043,95.7708954 103.763043,95.8508954 C103.803043,95.8408954 103.833043,95.8508954 103.853043,95.8908954 C104.033043,95.9408954 104.203043,96.0008954 104.303043,96.1708954 C104.343043,96.1608954 104.363043,96.1708954 104.383043,96.2008954 C104.563043,96.2608954 104.743043,96.3108954 104.853043,96.4808954 C104.883043,96.4708954 104.913043,96.4808954 104.923043,96.5108954 C105.043043,96.5108954 105.123043,96.5908954 105.203043,96.6808954 C105.913043,97.1108954 106.613043,97.5408954 107.333043,97.9508954 C107.633043,98.1208954 107.903043,98.3508954 108.243043,98.4308954 C108.383043,98.4608954 108.503043,98.5208954 108.593043,98.6308954 C109.203043,98.8908954 109.703043,99.3508954 110.283043,99.6508954 C110.563043,99.6708954 110.783043,99.8108954 110.983043,100.000895 C111.073043,100.050895 111.153043,100.100895 111.243043,100.150895 C111.373043,100.150895 111.453043,100.230895 111.523043,100.310895 C111.603043,100.360895 111.693043,100.410895 111.773043,100.460895 C111.903043,100.450895 111.983043,100.530895 112.063043,100.620895 C112.253043,100.730895 112.433043,100.840895 112.623043,100.950895 C112.743043,100.930895 112.803043,101.010895 112.863043,101.090895 C112.963043,101.140895 113.063043,101.200895 113.163043,101.250895 C113.283043,101.240895 113.353043,101.310895 113.413043,101.400895 C113.543043,101.490895 113.683043,101.580895 113.813043,101.670895 C114.083043,101.720895 114.323043,101.830895 114.513043,102.030895 L114.543043,102.020895 L114.563043,102.050895 C114.753043,102.100895 114.923043,102.180895 115.043043,102.350895 C115.193043,102.350895 115.293043,102.460895 115.413043,102.540895 C115.523043,102.540895 115.603043,102.600895 115.663043,102.690895 C115.703043,102.680895 115.733043,102.690895 115.743043,102.730895 C115.983043,102.810895 116.203043,102.910895 116.353043,103.140895 C116.753043,103.360895 117.163043,103.570895 117.563043,103.790895 C117.693043,103.780895 117.773043,103.860895 117.843043,103.960895 C117.893043,103.990895 117.933043,104.020895 117.983043,104.050895 C118.143043,104.070895 118.283043,104.140895 118.383043,104.270895 C118.423043,104.300895 118.473043,104.330895 118.513043,104.360895 C118.773043,104.430895 118.993043,104.540895 119.173043,104.740895 C119.213043,104.730895 119.243043,104.740895 119.263043,104.770895 C119.443043,104.820895 119.613043,104.880895 119.723043,105.050895 C119.753043,105.040895 119.783043,105.050895 119.793043,105.080895 C120.043043,105.150895 120.243043,105.290895 120.403043,105.500895 C121.313043,106.020895 122.223043,106.550895 123.133043,107.070895 C123.303043,107.170895 123.473043,107.240895 123.653043,107.330895 C123.803043,107.330895 123.923043,107.390895 124.003043,107.520895 C124.163043,107.560895 124.293043,107.640895 124.403043,107.760895 C124.543043,107.740895 124.623043,107.820895 124.693043,107.920895 C124.743043,107.950895 124.783043,107.970895 124.833043,108.000895 C125.093043,108.070895 125.323043,108.180895 125.503043,108.380895 C125.543043,108.370895 125.563043,108.380895 125.583043,108.410895 C125.763043,108.460895 125.933043,108.530895 126.043043,108.700895 C126.073043,108.690895 126.103043,108.700895 126.123043,108.730895 C126.313043,108.780895 126.473043,108.860895 126.593043,109.020895 C126.623043,109.010895 126.643043,109.020895 126.663043,109.040895 C126.793043,109.030895 126.873043,109.130895 126.953043,109.200895 C127.123043,109.280895 127.293043,109.340895 127.413043,109.490895 C127.543043,109.470895 127.633043,109.540895 127.693043,109.650895 C127.843043,109.650895 127.943043,109.760895 128.053043,109.840895 C128.173043,109.830895 128.243043,109.910895 128.303043,109.990895 C128.783043,110.260895 129.253043,110.540895 129.743043,110.780895 C130.103043,110.940895 130.093043,111.110895 129.913043,111.430895 Z M139.783043,81.1308954 C139.613043,83.6108954 139.323043,86.0708954 138.883043,88.5108954 C138.203043,92.2308954 137.263043,95.8708954 135.983043,99.4308954 C135.163043,101.710895 134.163043,103.910895 133.073043,106.070895 C132.853043,106.500895 132.693043,106.540895 132.283043,106.310895 C126.323043,102.860895 120.353043,99.4308954 114.383043,95.9808954 C108.763043,92.7308954 103.143043,89.4608954 97.5130433,86.2108954 C97.0330433,85.9408954 96.8030433,85.7208954 97.0030433,85.1108954 C97.4130433,83.8208954 97.7230433,82.5108954 98.0630433,81.2008954 C98.1430433,80.8808954 98.3030433,80.7408954 98.6430433,80.7108954 C100.313043,80.5508954 101.993043,80.5408954 103.673043,80.5308954 C108.883043,80.5008954 114.093043,80.5208954 119.313043,80.5208954 C119.313043,80.5008954 119.313043,80.4808954 119.313043,80.4508954 C125.933043,80.4508954 132.553043,80.4508954 139.183043,80.4508954 C139.843043,80.4608954 139.823043,80.4608954 139.783043,81.1308954 Z M139.303043,75.0208954 C136.163043,75.0008954 133.023043,74.9808954 129.873043,74.9808954 C126.253043,74.9708954 122.623043,74.9808954 119.003043,74.9808954 C119.003043,74.9408954 119.003043,74.9108954 119.003043,74.8708954 C112.293043,74.8708954 105.573043,74.8708954 98.8630433,74.8808954 C98.3930433,74.8808954 98.1830433,74.7808954 98.0630433,74.2808954 C97.7630433,73.0008954 97.3930433,71.7408954 97.0330433,70.4708954 C96.9230433,70.0808954 97.0930433,69.8708954 97.3830433,69.6708954 C98.8330433,68.6308954 100.363043,67.7208954 101.893043,66.8108954 C111.943043,60.8208954 122.113043,55.0508954 132.243043,49.1908954 C132.803043,48.8708954 132.793043,48.8708954 133.083043,49.4708954 C134.733043,52.8308954 136.193043,56.2608954 137.233043,59.8608954 C137.933043,62.2708954 138.493043,64.7108954 138.923043,67.1908954 C139.343043,69.6208954 139.563043,72.0708954 139.793043,74.5208954 C139.843043,74.9508954 139.683043,75.0208954 139.303043,75.0208954 Z"/>
      <circle cx="77.693" cy="77.781" r="6.54"/>
    </g>
  </g>
</svg>
