<svg xmlns="http://www.w3.org/2000/svg" xmlns:xlink="http://www.w3.org/1999/xlink" width="566" height="166" viewBox="0 0 566 166">
  <defs>
    <path id="logo-word-color-a" d="M234.447809,66.7125671 C239.256205,66.7125671 242.996013,66.0447443 245.667345,64.7090786 C249.865151,62.6101753 251.964023,58.8322062 251.964023,53.3750578 C251.964023,47.8797475 249.731587,44.1781009 245.266647,42.2700071 C242.747963,41.2014745 239.008155,40.6672163 234.047111,40.6672163 L213.726013,40.6672163 L213.726013,66.7125671 L234.447809,66.7125671 Z M238.283058,105.523002 C245.266682,105.523002 250.246732,103.500453 253.223359,99.4552938 C255.093291,96.8984481 256.028243,93.8073824 256.028243,90.1820041 C256.028243,84.0761038 253.299709,79.9165216 247.842561,77.7031327 C244.942258,76.5201145 241.107047,75.9286143 236.336812,75.9286143 L213.726013,75.9286143 L213.726013,105.523002 L238.283058,105.523002 Z M202.56372,31.1649564 L238.683756,31.1649564 C248.52952,31.1649564 255.53212,34.1033768 259.691764,39.9803059 C262.134125,43.4530367 263.355286,47.4599737 263.355286,52.0012371 C263.355286,57.305738 261.847915,61.6561267 258.833126,65.0525337 C257.268489,66.846142 255.016973,68.4870781 252.078508,69.9753913 C256.3908,71.616352 259.61543,73.4671752 261.752495,75.5279166 C265.530521,79.1914568 267.419506,84.2478296 267.419506,90.6971869 C267.419506,96.1161734 265.721328,101.019901 262.324921,105.408517 C257.249391,111.97236 249.178275,115.254232 238.111331,115.254232 L202.56372,115.254232 L202.56372,31.1649564 Z M279.669407,54.2336957 L290.14479,54.2336957 L290.14479,115.254232 L279.669407,115.254232 L279.669407,54.2336957 Z M279.669407,31.1649564 L290.14479,31.1649564 L290.14479,42.8424324 L279.669407,42.8424324 L279.669407,31.1649564 Z M329.355923,52.1729646 C336.263222,52.1729646 341.882474,53.852062 346.213847,57.2103072 C350.54522,60.5685524 353.149729,66.34999 354.027453,74.5547936 L344.01001,74.5547936 C343.39942,70.7767678 342.006532,67.6380005 339.831305,65.1383975 C337.656078,62.6387946 334.164319,61.3890119 329.355923,61.3890119 C322.79208,61.3890119 318.098239,64.5945614 315.27426,71.0057568 C313.44249,75.1654014 312.526619,80.2980968 312.526619,86.4039972 C312.526619,92.5480594 313.824103,97.7189161 316.419111,101.916723 C319.014119,106.114529 323.097378,108.213401 328.669012,108.213401 C332.943142,108.213401 336.329958,106.906376 338.829561,104.292288 C341.329164,101.678199 343.055963,98.1005767 344.01001,93.5593133 L354.027453,93.5593133 C352.882596,101.687793 350.020499,107.631416 345.441073,111.390361 C340.861648,115.149306 335.003888,117.02875 327.867617,117.02875 C319.853623,117.02875 313.461604,114.09987 308.691369,108.242022 C303.921135,102.384174 301.536053,95.0667438 301.536053,86.2895121 C301.536053,75.5278628 304.150103,67.1514564 309.37828,61.1600417 C314.606457,55.1686271 321.265605,52.1729646 329.355923,52.1729646 Z M402.62636,53.9474831 L414.017623,53.9474831 C412.567472,57.8781564 409.342842,66.846063 404.343636,80.8514718 C400.603772,91.3841499 397.474545,99.9704434 394.955861,106.61061 C389.002608,122.25698 384.804865,131.797306 382.362505,135.231875 C379.920145,138.666444 375.722401,140.383702 369.769148,140.383702 C368.318997,140.383702 367.202779,140.32646 366.42046,140.211975 C365.638142,140.097489 364.674569,139.887602 363.529713,139.582307 L363.529713,130.194532 C365.323321,130.690636 366.620805,130.995927 367.422205,131.110413 C368.223604,131.224898 368.929588,131.28214 369.540178,131.28214 C371.448272,131.28214 372.8507,130.967309 373.747504,130.337638 C374.644308,129.707967 375.397994,128.935201 376.008584,128.019316 C376.199393,127.714021 376.886297,126.149407 378.069315,123.325429 C379.252333,120.50145 380.110963,118.402578 380.645229,117.02875 L357.977187,53.9474831 L369.654663,53.9474831 L386.083269,103.862969 L402.62636,53.9474831 Z M446.588623,52.1729646 C453.495922,52.1729646 459.115174,53.852062 463.446547,57.2103072 C467.77792,60.5685524 470.382429,66.34999 471.260153,74.5547936 L461.24271,74.5547936 C460.63212,70.7767678 459.239232,67.6380005 457.064005,65.1383975 C454.888778,62.6387946 451.397019,61.3890119 446.588623,61.3890119 C440.02478,61.3890119 435.330939,64.5945614 432.50696,71.0057568 C430.67519,75.1654014 429.759319,80.2980968 429.759319,86.4039972 C429.759319,92.5480594 431.056803,97.7189161 433.651811,101.916723 C436.246819,106.114529 440.330078,108.213401 445.901712,108.213401 C450.175842,108.213401 453.562658,106.906376 456.062261,104.292288 C458.561864,101.678199 460.288663,98.1005767 461.24271,93.5593133 L471.260153,93.5593133 C470.115296,101.687793 467.253199,107.631416 462.673773,111.390361 C458.094348,115.149306 452.236588,117.02875 445.100317,117.02875 C437.086323,117.02875 430.694304,114.09987 425.924069,108.242022 C421.153835,102.384174 418.768753,95.0667438 418.768753,86.2895121 C418.768753,75.5278628 421.382803,67.1514564 426.61098,61.1600417 C431.839157,55.1686271 438.498305,52.1729646 446.588623,52.1729646 Z M481.850021,31.1649564 L492.153676,31.1649564 L492.153676,115.254232 L481.850021,115.254232 L481.850021,31.1649564 Z M533.139327,52.5736624 C537.489781,52.5736624 541.706605,53.5944772 545.789926,55.6361377 C549.873247,57.6777981 552.983393,60.3204684 555.120458,63.564228 C557.181199,66.65534 558.555006,70.2615833 559.24192,74.383066 C559.85251,77.2070449 560.157801,81.7100789 560.157801,87.8923029 L515.222415,87.8923029 C515.413225,94.1126889 516.882435,99.1022795 519.63009,102.861224 C522.377745,106.620169 526.632731,108.499613 532.395174,108.499613 C537.775999,108.499613 542.069145,106.725113 545.274743,103.176058 C547.106513,101.115317 548.403997,98.7302354 549.167235,96.0207421 L559.299163,96.0207421 C559.03203,98.2722928 558.144779,100.781399 556.637385,103.548135 C555.129991,106.314871 553.441353,108.575928 551.571421,110.331374 C548.442147,113.384325 544.568775,115.445035 539.951188,116.513568 C537.470666,117.124158 534.66581,117.429448 531.536536,117.429448 C523.904161,117.429448 517.435819,114.653213 512.131319,109.10066 C506.826818,103.548107 504.174607,95.7727411 504.174607,85.7743293 C504.174607,75.9285651 506.845898,67.9337718 512.188561,61.7897096 C517.531224,55.6456474 524.514743,52.5736624 533.139327,52.5736624 Z M549.567933,79.7066212 C549.148152,75.2416816 548.175039,71.6735997 546.648564,69.0022683 C543.824585,64.0412242 539.111664,61.5607395 532.509659,61.5607395 C527.777586,61.5607395 523.808811,63.2684578 520.603213,66.6839458 C517.397615,70.0994338 515.699437,74.4402822 515.508628,79.7066212 L549.567933,79.7066212 Z"/>
    <linearGradient id="logo-word-color-b" x1="-17.42%" x2="96.554%" y1="144.125%" y2="-15.137%">
      <stop offset="0%" stop-color="#6200EA"/>
      <stop offset="100%" stop-color="#536DFE"/>
    </linearGradient>
    <linearGradient id="logo-word-color-c" x1="-750.06%" x2="603.64%" y1="1167.689%" y2="-723.509%">
      <stop offset="0%" stop-color="#6200EA"/>
      <stop offset="100%" stop-color="#536DFE"/>
    </linearGradient>
  </defs>
  <g fill="none" fill-rule="evenodd">
    <g fill="#000" fill-rule="nonzero">
      <use xlink:href="#logo-word-color-a"/>
      <use xlink:href="#logo-word-color-a"/>
    </g>
    <g fill-rule="nonzero">
      <path fill="url(#logo-word-color-b)" d="M165.319598,78.1798319 C165.239598,76.9398319 165.149598,75.7098319 165.069598,74.4698319 C164.919598,73.3598319 164.769598,72.2598319 164.619598,71.1498319 C164.179598,67.8998319 163.519598,64.6898319 162.679598,61.5198319 C161.219598,56.0598319 159.229598,50.7898319 156.679598,45.7498319 C156.139598,44.6898319 155.569598,43.6398319 155.019598,42.5798319 C154.959598,42.4798319 154.909598,42.3698319 154.849598,42.2698319 C154.819598,42.2598319 154.809598,42.2298319 154.819598,42.1998319 C154.659598,42.0698319 154.589598,41.8798319 154.519598,41.6998319 C154.479598,41.6798319 154.469598,41.6498319 154.479598,41.6098319 C154.309598,41.4898319 154.239598,41.3098319 154.179598,41.1198319 C153.899598,40.6398319 153.609598,40.1698319 153.329598,39.6898319 C153.239598,39.6098319 153.159598,39.5298319 153.159598,39.3998319 C153.129598,39.3798319 153.109598,39.3498319 153.119598,39.3098319 C152.949598,39.1898319 152.859598,39.0198319 152.809598,38.8298319 C152.779598,38.8098319 152.769598,38.7898319 152.779598,38.7498319 C152.599598,38.6298319 152.509598,38.4598319 152.459598,38.2598319 C151.929598,37.4998319 151.379598,36.7398319 150.869598,35.9598319 C149.349598,33.6698319 147.659598,31.5098319 145.879598,29.4298319 C141.219598,23.9598319 136.009598,19.0798319 130.109598,14.9498319 C129.419598,14.4698319 128.709598,14.0098319 128.009598,13.5398319 C127.849598,13.4198319 127.639598,13.3698319 127.519598,13.1898319 C127.479598,13.1998319 127.459598,13.1898319 127.459598,13.1498319 C127.329598,13.0998319 127.189598,13.0798319 127.129598,12.9298319 C127.049598,12.8798319 126.969598,12.8298319 126.889598,12.7798319 C126.779598,12.7598319 126.659598,12.7398319 126.609598,12.6198319 C126.369598,12.5198319 126.139598,12.4198319 125.969598,12.2198319 C125.829598,12.2398319 125.749598,12.1698319 125.689598,12.0498319 C125.139598,11.8098319 124.649598,11.4798319 124.149598,11.1598319 C124.019598,11.1798319 123.959598,11.0898319 123.899598,10.9998319 C123.859598,11.0098319 123.829598,10.9998319 123.809598,10.9598319 C123.629598,10.8898319 123.429598,10.8398319 123.299598,10.6698319 C122.409598,10.1998319 121.519598,9.71983193 120.619598,9.26983193 C119.749598,8.82983193 118.869598,8.41983193 117.999598,7.98983193 C117.899598,7.94983193 117.789598,7.91983193 117.749598,7.79983193 L117.699598,7.79983193 L117.659598,7.76983193 C117.549598,7.79983193 117.479598,7.74983193 117.439598,7.63983193 C117.299598,7.63983193 117.179598,7.60983193 117.099598,7.48983193 C116.879598,7.49983193 116.719598,7.38983193 116.559598,7.25983193 C115.649598,6.86983193 114.749598,6.45983193 113.829598,6.08983193 C112.729598,5.63983193 111.629598,5.19983193 110.509598,4.79983193 C109.669598,4.49983193 108.829598,4.17983193 107.989598,3.89983193 C106.509598,3.40983193 104.999598,2.98983193 103.499598,2.57983193 C101.399598,2.00983193 99.2695982,1.57983193 97.1395982,1.15983193 C97.0095982,1.18983193 96.8795982,1.17983193 96.7995982,1.05983193 C96.6095982,1.03983193 96.4195982,1.02983193 96.2395982,1.00983193 C96.1495982,1.03983193 96.0595982,1.04983193 96.0095982,0.939831932 C95.8495982,0.949831932 95.6895982,0.939831932 95.5495982,0.829831932 C94.9895982,0.949831932 94.4695982,0.729831932 93.9295982,0.669831932 C88.2895982,0.109831932 82.6295982,-0.0801680677 76.9595982,0.0298319323 C75.3595982,0.0598319323 73.7495982,0.359831932 72.1595982,0.589831932 C70.1895982,0.879831932 68.2295982,1.17983193 66.2795982,1.56983193 C63.9095982,2.04983193 61.5495982,2.61983193 59.2295982,3.31983193 C51.1495982,5.76983193 43.5895982,9.33983193 36.5595982,13.9998319 C30.6795982,17.8898319 25.5195982,22.6098319 20.8095982,27.8298319 C14.0695982,35.3098319 9.04959822,43.8398319 5.39959822,53.1998319 C3.95959822,56.8898319 2.79959822,60.6698319 1.91959822,64.5298319 C1.12959822,67.9798319 0.409598216,71.4598319 0.219598216,75.0098319 C-0.0304017839,79.5998319 -0.0804017839,84.1998319 0.139598216,88.7998319 C0.289598216,91.8998319 0.739598216,94.9498319 1.33959822,97.9898319 C2.55959822,104.179832 4.41959822,110.159832 6.92959822,115.939832 C8.05959822,118.529832 9.36959822,121.019832 10.6895982,123.519832 C12.1295982,126.259832 13.8195982,128.839832 15.6495982,131.309832 C19.2095982,136.099832 23.1795982,140.539832 27.6595982,144.509832 C34.7495982,150.789832 42.6595982,155.739832 51.4195982,159.339832 C55.2195982,160.899832 59.1195982,162.159832 63.1095982,163.129832 C65.9495982,163.819832 68.8095982,164.369832 71.6995982,164.769832 C73.6895982,165.039832 75.6995982,165.169832 77.6995982,165.359832 C80.3595982,165.609832 83.0195982,165.529832 85.6695982,165.489832 C88.1295982,165.449832 90.5795982,165.149832 93.0295982,164.859832 C95.5195982,164.569832 97.9795982,164.129832 100.419598,163.609832 C102.989598,163.059832 105.519598,162.359832 108.019598,161.549832 C112.819598,160.009832 117.429598,158.009832 121.879598,155.639832 C126.429598,153.209832 130.639598,150.279832 134.659598,147.069832 C135.829598,146.139832 137.009598,145.229832 138.089598,144.199832 C140.569598,141.829832 143.009598,139.429832 145.229598,136.799832 C146.109598,135.769832 146.999598,134.749832 147.849598,133.689832 C148.339598,133.079832 148.749598,132.389832 149.299598,131.819832 C151.349598,128.969832 153.259598,126.039832 155.009598,122.999832 C155.339598,122.429832 155.549598,121.789832 156.009598,121.299832 C156.179598,121.119832 156.049598,120.849832 156.229598,120.689832 C156.349598,120.489832 156.459598,120.289832 156.579598,120.089832 C156.639598,119.959832 156.709598,119.819832 156.769598,119.689832 C156.769598,119.569832 156.829598,119.479832 156.919598,119.409832 C157.029598,119.199832 157.129598,118.989832 157.239598,118.779832 C157.209598,118.649832 157.279598,118.569832 157.379598,118.509832 C157.419598,118.269832 157.529598,118.059832 157.679598,117.869832 C157.839598,117.319832 158.079598,116.809832 158.399598,116.329832 C158.419598,116.269832 158.429598,116.209832 158.449598,116.159832 C158.539598,115.949832 158.549598,115.699832 158.749598,115.539832 C158.769598,115.479832 158.779598,115.419832 158.799598,115.359832 C158.879598,115.139832 158.919598,114.909832 159.089598,114.739832 C159.109598,114.679832 159.129598,114.619832 159.149598,114.559832 C159.219598,114.219832 159.379598,113.919832 159.569598,113.629832 C159.639598,113.109832 160.019598,112.689832 160.059598,112.159832 C160.279598,111.759832 160.329598,111.279832 160.599598,110.899832 C160.619598,110.829832 160.639598,110.749832 160.659598,110.679832 C160.639598,110.549832 160.699598,110.459832 160.789598,110.379832 C161.479598,108.219832 162.229598,106.069832 162.789598,103.869832 C163.109598,102.609832 163.409598,101.339832 163.709598,100.079832 C163.669598,99.9398319 163.739598,99.8398319 163.809598,99.7398319 C163.819598,99.6298319 163.839598,99.5098319 163.849598,99.3998319 C163.809598,99.2398319 163.839598,99.0898319 163.969598,98.9698319 C163.959598,98.7598319 163.959598,98.5598319 164.059598,98.3698319 C164.019598,98.2398319 164.079598,98.1298319 164.149598,98.0298319 C164.169598,97.8798319 164.189598,97.7298319 164.199598,97.5798319 C164.149598,97.4198319 164.189598,97.2698319 164.309598,97.1498319 C164.309598,96.8698319 164.299598,96.5898319 164.439598,96.3298319 C164.389598,96.2398319 164.419598,96.1598319 164.489598,96.0898319 C164.509598,95.8998319 164.519598,95.7098319 164.539598,95.5298319 C164.499598,95.3298319 164.529598,95.1498319 164.659598,94.9898319 C164.669598,94.8298319 164.689598,94.6698319 164.699598,94.4998319 C164.649598,94.4198319 164.649598,94.3398319 164.729598,94.2698319 C164.739598,94.1998319 164.759598,94.1198319 164.769598,94.0498319 C164.699598,93.9198319 164.749598,93.8098319 164.819598,93.6998319 C164.839598,93.4698319 164.849598,93.2498319 164.869598,93.0198319 C164.829598,92.8498319 164.839598,92.6998319 164.959598,92.5598319 C164.979598,92.2598319 165.009598,91.9498319 165.029598,91.6498319 C164.979598,91.5298319 164.979598,91.4098319 165.069598,91.2998319 C165.039598,91.1798319 165.059598,91.0698319 165.129598,90.9598319 C165.169598,89.1998319 165.359598,87.4498319 165.499598,85.6998319 C165.499598,83.2298319 165.499598,80.7598319 165.499598,78.2898319 C165.359598,78.3198319 165.329598,78.2598319 165.319598,78.1798319 Z M115.789598,30.8898319 C116.409598,29.8198319 117.059598,28.7798319 117.769598,27.7698319 C118.309598,26.9998319 118.309598,26.9998319 119.089598,27.4998319 C121.809598,29.2498319 124.319598,31.2698319 126.719598,33.4398319 C130.849598,37.1698319 134.479598,41.3398319 137.669598,45.8998319 C138.459598,47.0298319 138.429598,47.0598319 137.289598,47.7698319 C132.589598,50.6998319 127.819598,53.4898319 123.019598,56.2598319 C121.999598,56.8498319 120.979598,57.4598319 119.949598,58.0198319 C119.909598,58.0398319 119.859598,58.0498319 119.819598,58.0698319 C119.799598,58.0998319 119.769598,58.1198319 119.749598,58.1498319 C119.629598,58.3198319 119.439598,58.3998319 119.249598,58.4498319 L119.219598,58.4798319 L119.169598,58.4798319 C119.049598,58.6598319 118.869598,58.7298319 118.679598,58.7898319 L118.639598,58.8198319 L118.589598,58.8198319 C118.389598,59.0298319 118.149598,59.1498319 117.879598,59.2298319 C117.729598,59.3698319 117.569598,59.4898319 117.369598,59.5198319 C117.319598,59.6498319 117.219598,59.6898319 117.079598,59.6798319 C117.069598,59.7198319 117.039598,59.7398319 116.999598,59.7398319 C116.909598,59.8798319 116.779598,59.9298319 116.629598,59.9598319 L116.609598,59.9898319 L116.579598,59.9898319 C116.069598,60.3798319 115.499598,60.6798319 114.919598,60.9598319 C114.899598,60.9998319 114.879598,61.0098319 114.839598,60.9998319 C114.779598,61.0898319 114.699598,61.1698319 114.579598,61.1598319 C114.449598,61.2298319 114.319598,61.2998319 114.199598,61.3598319 C114.139598,61.4798319 114.039598,61.5398319 113.899598,61.5298319 C113.779598,61.6998319 113.579598,61.7398319 113.409598,61.8298319 C113.319598,61.9098319 113.239598,61.9998319 113.099598,61.9998319 L113.069598,62.0298319 L113.029598,62.0298319 C112.899598,62.1998319 112.709598,62.2698319 112.529598,62.3298319 L112.499598,62.3598319 L112.449598,62.3598319 C112.329598,62.5298319 112.149598,62.5998319 111.959598,62.6598319 C111.939598,62.6998319 111.909598,62.7098319 111.869598,62.6998319 C111.669598,62.9098319 111.429598,63.0298319 111.159598,63.1098319 C111.109598,63.1398319 111.069598,63.1698319 111.019598,63.1998319 C110.939598,63.2998319 110.859598,63.3898319 110.709598,63.3798319 L110.679598,63.4098319 L110.639598,63.4098319 C110.509598,63.5898319 110.339598,63.6698319 110.129598,63.7198319 C110.039598,63.7698319 109.949598,63.8298319 109.849598,63.8798319 C109.769598,63.9798319 109.689598,64.0598319 109.549598,64.0498319 C109.529598,64.0798319 109.499598,64.0898319 109.469598,64.0798319 C109.089598,64.4198319 108.639598,64.6298319 108.179598,64.8398319 C108.169598,64.8798319 108.139598,64.8898319 108.099598,64.8798319 C108.029598,64.9698319 107.949598,65.0398319 107.829598,65.0398319 C107.699598,65.1098319 107.579598,65.1798319 107.449598,65.2398319 C107.319598,65.4198319 107.119598,65.4798319 106.929598,65.5498319 C106.839598,65.5998319 106.749598,65.6598319 106.659598,65.7098319 C106.569598,65.7898319 106.489598,65.8898319 106.349598,65.8898319 L106.319598,65.9198319 L106.279598,65.9198319 C106.149598,66.0898319 105.959598,66.1598319 105.769598,66.2198319 C104.049598,67.2198319 102.329598,68.2098319 100.609598,69.2198319 C100.389598,69.3498319 100.229598,69.3198319 100.059598,69.1398319 C98.8195982,67.8798319 97.5395982,66.6598319 96.3695982,65.3398319 C96.0795982,65.0098319 96.2295982,64.7598319 96.3995982,64.4798319 C99.2695982,59.4898319 102.139598,54.4898319 105.009598,49.4998319 C108.609598,43.2898319 112.199598,37.0898319 115.789598,30.8898319 Z M86.2295982,16.5998319 C88.9795982,16.8098319 91.7095982,17.0798319 94.4295982,17.5598319 C99.3195982,18.4298319 104.029598,19.8998319 108.599598,21.8298319 C110.049598,22.4398319 111.459598,23.1398319 112.889598,23.7698319 C113.309598,23.9598319 113.359598,24.1198319 113.119598,24.5298319 C110.069598,29.7698319 107.039598,35.0298319 103.999598,40.2798319 C100.469598,46.3598319 96.9895982,52.4798319 93.3395982,58.4898319 C92.6795982,59.5798319 91.9595982,60.6198319 91.2695982,61.6898319 C91.0195982,62.0798319 90.7395982,62.2198319 90.2295982,62.0598319 C88.9295982,61.6598319 87.5995982,61.3298319 86.2795982,60.9998319 C85.8795982,60.8998319 85.7095982,60.7398319 85.7095982,60.2798319 C85.7295982,53.0898319 85.7195982,45.9098319 85.7195982,38.7198319 C85.6695982,38.7198319 85.6195982,38.7198319 85.5695982,38.7198319 C85.5695982,31.5498319 85.5795982,24.3898319 85.5595982,17.2198319 C85.5595982,16.6798319 85.7095982,16.5598319 86.2295982,16.5998319 Z M52.3095982,23.8098319 C56.4895982,21.6798319 60.8495982,20.0398319 65.3795982,18.8298319 C68.3995982,18.0198319 71.4595982,17.3798319 74.5695982,16.9898319 C75.2395982,16.9098319 75.9195982,16.7698319 76.5995982,16.8198319 C76.9495982,16.8098319 77.2895982,16.7998319 77.6395982,16.7798319 C77.9995982,16.6298319 78.3795982,16.6298319 78.7695982,16.6498319 C78.9895982,16.5998319 79.2195982,16.5698319 79.4395982,16.6398319 C79.5995982,16.6298319 79.6195982,16.7498319 79.6195982,16.8598319 C79.6295982,18.8298319 79.7195982,20.7998319 79.6395982,22.7598319 C79.6395982,23.1398319 79.6495982,23.5098319 79.6495982,23.8898319 C79.6995982,24.0798319 79.6995982,24.2698319 79.6495982,24.4698319 C79.6495982,24.6598319 79.6495982,24.8498319 79.6495982,25.0398319 C79.7095982,25.2998319 79.6995982,25.5698319 79.6495982,25.8298319 C79.6395982,26.0398319 79.7695982,26.2698319 79.5495982,26.4498319 C79.6195982,26.5398319 79.6195982,26.6198319 79.5495982,26.7098319 C79.7795982,26.9298319 79.6395982,27.1898319 79.6495982,27.4398319 C79.6595982,27.5498319 79.6795982,27.6698319 79.6795982,27.7798319 C79.6795982,34.9698319 79.6795982,42.1598319 79.6795982,49.3498319 C79.6795982,49.4598319 79.6595982,49.5798319 79.6495982,49.6898319 C79.6495982,50.2598319 79.6495982,50.8298319 79.6495982,51.4098319 C79.6995982,51.6398319 79.6995982,51.8598319 79.6495982,52.0898319 C79.6395982,52.9298319 79.6395982,53.7598319 79.6295982,54.5998319 C79.7095982,56.5698319 79.6095982,58.5398319 79.6095982,60.5198319 C79.6095982,60.8998319 79.3495982,60.9298319 79.0795982,60.9598319 C78.9595982,61.0498319 78.8295982,61.0498319 78.6895982,61.0298319 C78.5795982,61.1498319 78.4395982,61.2098319 78.2795982,61.1798319 C78.1995982,61.1898319 78.1295982,61.1898319 78.0495982,61.1998319 C77.9195982,61.2998319 77.7795982,61.3898319 77.5995982,61.3498319 C77.5095982,61.3598319 77.4195982,61.3698319 77.3195982,61.3798319 C77.2495982,61.4898319 77.1495982,61.5398319 77.0195982,61.4998319 C76.9395982,61.5098319 76.8695982,61.5298319 76.7895982,61.5398319 C76.6595982,61.6398319 76.5295982,61.7498319 76.3395982,61.6898319 C76.2795982,61.6998319 76.2095982,61.6998319 76.1495982,61.7098319 C76.0395982,61.8198319 75.9195982,61.8798319 75.7595982,61.8498319 C75.6795982,61.8598319 75.6095982,61.8698319 75.5295982,61.8898319 C75.4295982,61.9698319 75.3395982,62.0498319 75.1995982,62.0198319 C74.7495982,62.2298319 74.3695982,62.2498319 74.0395982,61.7698319 C72.5195982,59.5798319 71.1495982,57.2898319 69.8395982,54.9698319 C68.9495982,53.6998319 68.2195982,52.3298319 67.4495982,50.9898319 C63.1595982,43.5898319 58.8695982,36.1798319 54.5895982,28.7698319 C53.7595982,27.3398319 52.9495982,25.9098319 52.1195982,24.4898319 C51.9395982,24.1398319 51.9395982,23.9998319 52.3095982,23.8098319 Z M26.9795982,46.7998319 C32.1595982,38.8398319 38.7495982,32.2898319 46.6795982,27.0898319 C47.0495982,26.8398319 47.2195982,26.8698319 47.4495982,27.2698319 C51.0995982,33.6098319 54.7595982,39.9398319 58.4095982,46.2698319 C61.8895982,52.2998319 65.3595982,58.3398319 68.8195982,64.3798319 C68.9195982,64.5598319 69.0595982,64.7198319 69.0695982,64.9498319 C69.0795982,65.1398319 68.9495982,65.2698319 68.8295982,65.3898319 C67.6295982,66.6298319 66.4195982,67.8698319 65.2295982,69.1198319 C64.9595982,69.4098319 64.7395982,69.2898319 64.4795982,69.1398319 C62.9895982,68.2698319 61.4895982,67.4098319 59.9995982,66.5498319 C56.1695982,64.3298319 52.3495982,62.1098319 48.5295982,59.8998319 C41.4095982,55.7798319 34.2995982,51.6698319 27.1695982,47.5698319 C26.7895982,47.3398319 26.7295982,47.1898319 26.9795982,46.7998319 Z M16.3795982,79.2498319 C16.6895982,77.8298319 16.6995982,76.3898319 16.8495982,74.9498319 C17.0095982,73.3798319 17.2495982,71.8298319 17.5695982,70.2898319 C18.2795982,66.8198319 19.2295982,63.4198319 20.3995982,60.0698319 C21.3195982,57.4398319 22.4795982,54.9198319 23.6495982,52.3898319 C23.8195982,52.0198319 23.9895982,52.0498319 24.2895982,52.2198319 C30.3695982,55.7298319 36.4695982,59.2298319 42.5495982,62.7498319 C47.8895982,65.8498319 53.2495982,68.9098319 58.5295982,72.1198319 C59.5695982,72.7498319 60.5995982,73.3898319 61.5895982,74.0898319 C61.9895982,74.3698319 62.1395982,74.6498319 61.9795982,75.1798319 C61.5595982,76.5498319 61.1995982,77.9498319 60.8395982,79.3398319 C60.7695982,79.5998319 60.6695982,79.7298319 60.3795982,79.7298319 C57.4895982,79.7298319 54.5995982,79.7498319 51.7095982,79.7598319 C51.6695982,79.7598319 51.6395982,79.7398319 51.5995982,79.7198319 C49.8895982,79.7798319 48.1895982,79.7798319 46.4795982,79.7298319 C43.7395982,79.7498319 41.0095982,79.7698319 38.2695982,79.7798319 C33.4195982,79.7998319 28.5795982,79.8098319 23.7295982,79.8298319 C21.4695982,79.8398319 19.2095982,79.8398319 16.9495982,79.8898319 C16.4195982,79.9098319 16.2695982,79.7498319 16.3795982,79.2498319 Z M23.6495982,113.029832 C21.3795982,108.519832 19.6595982,103.799832 18.3995982,98.9098319 C17.7395982,96.3398319 17.2095982,93.7398319 16.8895982,91.1098319 C16.7295982,89.7498319 16.6295982,88.3898319 16.4995982,87.0298319 C16.4695982,86.6698319 16.4095982,86.3198319 16.3595982,85.9598319 C16.2895982,85.7098319 16.4295982,85.6598319 16.6295982,85.6698319 C17.7195982,85.6798319 18.8095982,85.6898319 19.8895982,85.6998319 C21.0695982,85.6898319 22.2395982,85.6598319 23.4195982,85.6598319 C31.8195982,85.6898319 40.2195982,85.7298319 48.6195982,85.7698319 C52.4995982,85.7898319 56.3695982,85.8198319 60.2495982,85.8298319 C60.5895982,85.8298319 60.7395982,85.8998319 60.8295982,86.2598319 C61.1795982,87.6498319 61.5495982,89.0398319 61.9595982,90.4198319 C62.0895982,90.8398319 61.9895982,91.0898319 61.6495982,91.3298319 C60.3695982,92.2798319 58.9995982,93.0998319 57.6395982,93.9198319 C50.3495982,98.2998319 42.9495982,102.499832 35.5995982,106.779832 C31.8695982,108.949832 28.1195982,111.089832 24.3895982,113.269832 C23.9995982,113.499832 23.8495982,113.419832 23.6495982,113.029832 Z M47.4595982,137.699832 C46.9595982,138.519832 46.9295982,138.529832 46.1095982,138.009832 C43.7995982,136.529832 41.7095982,134.769832 39.6295982,132.999832 C35.0995982,129.129832 31.1795982,124.709832 27.7495982,119.849832 C26.7995982,118.499832 26.8195982,118.469832 28.2195982,117.619832 C35.1295982,113.379832 42.1595982,109.329832 49.1695982,105.269832 C54.2995982,102.299832 59.4295982,99.3198319 64.5595982,96.3498319 C64.7695982,96.2298319 64.9495982,96.0798319 65.1995982,96.3398319 C66.4295982,97.6098319 67.6995982,98.8398319 68.8495982,100.179832 C68.9595982,100.309832 69.0795982,100.429832 69.0695982,100.689832 C69.0195982,100.809832 68.9495982,100.979832 68.8495982,101.149832 C66.6995982,104.919832 64.5595982,108.689832 62.3795982,112.449832 C60.1595982,116.279832 57.9195982,120.089832 55.6795982,123.899832 C52.9795982,128.509832 50.2795982,133.139832 47.4595982,137.699832 Z M79.2495982,148.979832 C76.7395982,148.709832 74.2195982,148.569832 71.7295982,148.129832 C67.3995982,147.359832 63.1595982,146.239832 59.0295982,144.719832 C56.7395982,143.869832 54.5095982,142.889832 52.3395982,141.759832 C51.9795982,141.569832 51.9495982,141.419832 52.1495982,141.079832 C56.0695982,134.309832 59.9695982,127.529832 63.8895982,120.759832 C66.3195982,116.569832 68.7695982,112.399832 71.2195982,108.219832 C71.3095982,108.059832 71.3695982,107.869832 71.5495982,107.769832 C71.6095982,107.549832 71.7295982,107.359832 71.8995982,107.199832 C71.8795982,107.049832 71.9595982,106.959832 72.0795982,106.889832 C72.6695982,105.809832 73.3595982,104.789832 74.0695982,103.789832 C74.3295982,103.429832 74.6095982,103.319832 75.0395982,103.489832 C75.5895982,103.709832 76.1595982,103.869832 76.7195982,104.049832 C76.8395982,103.889832 76.8595982,104.129832 76.9395982,104.099832 C77.0495982,104.109832 77.1595982,104.109832 77.2595982,104.119832 C77.3995982,104.089832 77.5095982,104.149832 77.5995982,104.239832 C77.7095982,104.259832 77.8195982,104.269832 77.9395982,104.289832 C78.0995982,104.239832 78.2295982,104.319832 78.3495982,104.419832 C78.4095982,104.429832 78.4595982,104.439832 78.5195982,104.449832 C78.6995982,104.399832 78.8295982,104.499832 78.9695982,104.589832 C79.0495982,104.599832 79.1195982,104.609832 79.1995982,104.619832 C79.5895982,104.599832 79.6095982,104.859832 79.6095982,105.149832 C79.6095982,106.269832 79.6295982,107.389832 79.6295982,108.509832 C79.6595982,120.009832 79.6895982,131.509832 79.7195982,143.009832 C79.7195982,144.829832 79.7295982,146.659832 79.7595982,148.479832 C79.7695982,148.879832 79.6595982,149.019832 79.2495982,148.979832 Z M79.7795982,98.2698319 C78.6095982,99.8298319 77.3995982,99.3798319 76.0795982,98.8298319 C74.7595982,98.2798319 73.5495982,97.7598319 73.8295982,95.8398319 C74.2095982,93.1598319 72.4295982,91.4798319 69.6695982,91.6498319 C67.7695982,92.1098319 67.2795982,90.7498319 66.6995982,89.4098319 C66.1095982,88.0398319 65.7395982,86.8898319 67.2695982,85.7298319 C69.3795982,84.1398319 69.3295982,81.4998319 67.1895982,79.8398319 C65.7495982,78.7298319 66.0895982,77.6098319 66.6595982,76.3098319 C67.2295982,75.0098319 67.6295982,73.7298319 69.5695982,73.9398319 C72.4595982,74.2598319 74.1695982,72.5398319 73.7995982,69.6998319 C73.5695982,67.8698319 74.7195982,67.3498319 75.9895982,66.8398319 C77.2895982,66.3098319 78.5195982,65.7398319 79.7195982,67.2898319 C81.4495982,69.5298319 83.9595982,69.4998319 85.7195982,67.2498319 C86.9395982,65.6898319 88.1695982,66.3698319 89.4595982,66.8798319 C90.7595982,67.3898319 91.8495982,67.9398319 91.5995982,69.7598319 C91.2295982,72.4598319 92.9995982,74.2998319 95.7195982,73.9498319 C97.7595982,73.6898319 98.1895982,74.9898319 98.7795982,76.3598319 C99.3295982,77.6698319 99.6595982,78.7798319 98.1995982,79.8798319 C95.9395982,81.5798319 95.9095982,83.9798319 98.1195982,85.6998319 C99.5995982,86.8498319 99.3395982,87.9798319 98.7395982,89.3798319 C98.1395982,90.7998319 97.6095982,91.9498319 95.6095982,91.6798319 C93.0395982,91.3298319 91.2095982,93.2298319 91.5795982,95.7998319 C91.8395982,97.5898319 90.8695982,98.2098319 89.5395982,98.7298319 C88.1795982,99.2598319 86.9195982,99.9798319 85.6595982,98.3098319 C84.0295982,96.1498319 81.3795982,96.1298319 79.7795982,98.2698319 Z M112.969598,141.739832 C109.039598,143.769832 104.939598,145.339832 100.669598,146.499832 C97.5995982,147.329832 94.4895982,147.989832 91.3395982,148.439832 C89.5795982,148.689832 87.7895982,148.799832 86.0195982,148.989832 C85.6795982,149.029832 85.5595982,148.939832 85.5595982,148.569832 C85.5695982,140.499832 85.5695982,132.419832 85.5695982,124.349832 C85.5695982,124.259832 85.5895982,124.159832 85.6095982,124.069832 C85.5895982,120.159832 85.5495982,116.239832 85.6295982,112.329832 C85.5895982,110.579832 85.5695982,108.829832 85.7595982,107.089832 C85.7695982,106.669832 85.7795982,106.249832 85.7995982,105.839832 C85.7495982,105.539832 85.7595982,105.249832 85.9195982,104.979832 C85.8995982,104.709832 86.0195982,104.579832 86.2995982,104.599832 C86.4395982,104.509832 86.5695982,104.399832 86.7495982,104.449832 C86.8095982,104.439832 86.8595982,104.429832 86.9195982,104.429832 C87.1695982,104.209832 87.4895982,104.229832 87.7795982,104.139832 C87.8795982,104.119832 87.9695982,104.109832 88.0695982,104.089832 C88.1795982,103.979832 88.3095982,103.909832 88.4695982,103.939832 C88.5495982,103.929832 88.6195982,103.919832 88.6995982,103.899832 C88.7895982,103.789832 88.8995982,103.739832 89.0395982,103.769832 C89.1295982,103.759832 89.2195982,103.739832 89.3095982,103.729832 C89.3895982,103.619832 89.4795982,103.579832 89.6095982,103.619832 C89.6895982,103.609832 89.7595982,103.589832 89.8395982,103.579832 C90.1495982,103.379832 90.5095982,103.329832 90.8695982,103.269832 C90.9495982,103.229832 91.0295982,103.219832 91.0995982,103.289832 C91.2295982,103.329832 91.2895982,103.419832 91.2995982,103.549832 C91.3595982,103.639832 91.4095982,103.729832 91.4695982,103.819832 C91.5595982,103.899832 91.6395982,103.989832 91.6495982,104.119832 C91.6795982,104.129832 91.6895982,104.159832 91.6795982,104.189832 C91.8495982,104.309832 91.9295982,104.499832 91.9895982,104.689832 C92.0395982,104.779832 92.0995982,104.869832 92.1495982,104.959832 C92.2395982,105.039832 92.3295982,105.119832 92.3195982,105.259832 C92.3695982,105.349832 92.4295982,105.439832 92.4795982,105.529832 C92.5695982,105.609832 92.6595982,105.689832 92.6595982,105.829832 C92.6895982,105.849832 92.6995982,105.869832 92.6895982,105.909832 C92.8595982,106.029832 92.9495982,106.209832 92.9895982,106.409832 C93.0395982,106.499832 93.0995982,106.599832 93.1495982,106.689832 C93.2495982,106.759832 93.3295982,106.849832 93.3195982,106.979832 C93.3495982,106.999832 93.3595982,107.029832 93.3595982,107.069832 C93.5195982,107.139832 93.5395982,107.289832 93.5495982,107.439832 C93.5895982,107.529832 93.6395982,107.609832 93.6795982,107.699832 C93.7895982,107.779832 93.9095982,107.849832 93.8895982,108.009832 C94.0395982,108.289832 94.2795982,108.529832 94.3595982,108.849832 C94.4495982,108.939832 94.5595982,109.009832 94.5595982,109.149832 C94.7595982,109.499832 94.9595982,109.849832 95.1595982,110.209832 C95.1795982,110.279832 95.3695982,110.259832 95.2595982,110.399832 C95.4195982,110.669832 95.5695982,110.949832 95.7295982,111.219832 C95.8495982,111.289832 95.9495982,111.379832 95.9395982,111.539832 C96.0295982,111.679832 96.1195982,111.809832 96.2095982,111.949832 C96.3995982,112.119832 96.5195982,112.319832 96.5695982,112.579832 C96.6095982,112.629832 96.6395982,112.679832 96.6795982,112.739832 C96.7695982,112.819832 96.8595982,112.899832 96.8495982,113.029832 C96.9095982,113.119832 96.9595982,113.219832 97.0195982,113.309832 C97.3895982,113.829832 97.7195982,114.379832 97.9795982,114.969832 C98.1495982,115.259832 98.3195982,115.559832 98.4895982,115.849832 C98.6395982,115.979832 98.7595982,116.129832 98.7595982,116.339832 C98.7795982,116.369832 98.8095982,116.399832 98.8295982,116.429832 C98.9595982,116.509832 99.0195982,116.639832 99.0495982,116.789832 C99.1195982,116.959832 99.1995982,117.119832 99.2695982,117.289832 C99.3595982,117.369832 99.4695982,117.449832 99.4695982,117.589832 C99.5195982,117.679832 99.5595982,117.769832 99.6095982,117.859832 C99.8295982,118.029832 99.9695982,118.249832 100.049598,118.509832 C100.089598,118.529832 100.099598,118.559832 100.089598,118.599832 C100.179598,118.659832 100.259598,118.729832 100.249598,118.859832 C100.479598,119.249832 100.699598,119.639832 100.929598,120.029832 C101.059598,120.139832 101.149598,120.279832 101.159598,120.459832 C101.189598,120.509832 101.219598,120.559832 101.249598,120.609832 C101.419598,120.749832 101.509598,120.929832 101.559598,121.129832 L101.589598,121.149832 L101.589598,121.189832 C101.759598,121.329832 101.829598,121.509832 101.899598,121.709832 L101.929598,121.729832 L101.929598,121.769832 C102.269598,122.209832 102.529598,122.699832 102.769598,123.199832 C103.009598,123.619832 103.239598,124.039832 103.479598,124.449832 C103.599598,124.529832 103.679598,124.639832 103.659598,124.799832 C103.699598,124.849832 103.739598,124.889832 103.769598,124.939832 C103.979598,125.209832 104.159598,125.499832 104.269598,125.819832 C104.309598,125.839832 104.319598,125.869832 104.299598,125.909832 C104.469598,126.029832 104.539598,126.209832 104.599598,126.389832 C104.639598,126.409832 104.649598,126.439832 104.639598,126.479832 C104.729598,126.539832 104.819598,126.609832 104.779598,126.739832 C104.809598,126.799832 104.849598,126.849832 104.879598,126.909832 C105.019598,126.959832 105.029598,127.079832 105.039598,127.189832 C105.069598,127.239832 105.099598,127.289832 105.129598,127.329832 C105.219598,127.409832 105.319598,127.489832 105.309598,127.639832 C105.459598,127.929832 105.549598,128.259832 105.799598,128.489832 C105.889598,128.569832 105.979598,128.649832 105.979598,128.779832 C106.009598,128.799832 106.019598,128.829832 106.009598,128.869832 C106.279598,129.189832 106.479598,129.539832 106.639598,129.929832 C106.649598,129.969832 106.669598,129.999832 106.679598,130.039832 C106.909598,130.259832 107.039598,130.539832 107.149598,130.839832 L107.179598,130.859832 L107.169598,130.889832 C107.279598,130.959832 107.359598,131.049832 107.329598,131.189832 C107.429598,131.349832 107.539598,131.509832 107.639598,131.679832 C107.699598,131.779832 107.759598,131.879832 107.819598,131.989832 C107.849598,131.999832 107.859598,132.019832 107.849598,132.059832 C108.019598,132.189832 108.079598,132.379832 108.149598,132.569832 C108.179598,132.589832 108.189598,132.619832 108.179598,132.649832 C108.349598,132.769832 108.419598,132.959832 108.479598,133.139832 C108.599598,133.359832 108.729598,133.589832 108.849598,133.809832 C108.929598,133.869832 109.019598,133.929832 108.999598,134.059832 C109.139598,134.329832 109.269598,134.609832 109.409598,134.879832 C109.519598,134.949832 109.589598,135.059832 109.599598,135.189832 C109.609598,135.229832 109.629598,135.269832 109.639598,135.299832 C110.369598,136.119832 110.729598,137.169832 111.299598,138.089832 C111.919598,139.109832 112.499598,140.149832 113.139598,141.159832 C113.379598,141.449832 113.279598,141.579832 112.969598,141.739832 Z M138.329598,118.639832 C137.199598,120.579832 135.859598,122.369832 134.419598,124.079832 C132.479598,126.389832 130.409598,128.589832 128.219598,130.679832 C125.309598,133.449832 122.329598,136.149832 118.859598,138.229832 C118.799598,138.269832 118.729598,138.309832 118.669598,138.359832 C118.259598,138.709832 118.029598,138.619832 117.749598,138.139832 C113.839598,131.299832 109.909598,124.479832 105.979598,117.649832 C105.599598,116.999832 105.229598,116.339832 104.859598,115.679832 C104.639598,115.429832 104.479598,115.139832 104.359598,114.829832 C101.649598,110.169832 98.9495982,105.499832 96.2395982,100.839832 C96.0795982,100.559832 96.1095982,100.389832 96.3395982,100.159832 C97.5595982,98.9398319 98.7595982,97.6998319 99.9695982,96.4698319 C100.139598,96.2998319 100.269598,96.1098319 100.579598,96.2998319 C102.039598,97.1798319 103.519598,98.0298319 104.989598,98.8898319 C105.119598,98.8998319 105.209598,98.9798319 105.289598,99.0598319 C105.379598,99.1098319 105.469598,99.1698319 105.559598,99.2198319 C105.759598,99.2698319 105.939598,99.3498319 106.069598,99.5298319 C106.099598,99.5198319 106.119598,99.5198319 106.129598,99.5498319 C106.269598,99.5398319 106.349598,99.6398319 106.439598,99.7298319 C106.639598,99.8398319 106.839598,99.9598319 107.029598,100.069832 C107.149598,100.059832 107.229598,100.139832 107.289598,100.229832 C107.329598,100.219832 107.359598,100.229832 107.369598,100.269832 C107.759598,100.439832 108.129598,100.629832 108.459598,100.899832 C108.489598,100.889832 108.509598,100.899832 108.519598,100.929832 C108.669598,100.959832 108.799598,101.019832 108.879598,101.149832 C108.909598,101.169832 108.939598,101.189832 108.969598,101.209832 C109.099598,101.199832 109.199598,101.239832 109.249598,101.359832 C109.599598,101.489832 109.919598,101.689832 110.229598,101.919832 C110.359598,101.889832 110.419598,101.969832 110.479598,102.059832 C110.519598,102.049832 110.549598,102.059832 110.579598,102.099832 C110.769598,102.159832 110.949598,102.219832 111.059598,102.399832 C111.099598,102.389832 111.129598,102.399832 111.149598,102.439832 C111.339598,102.499832 111.529598,102.559832 111.649598,102.739832 C111.679598,102.729832 111.709598,102.739832 111.729598,102.769832 C111.859598,102.769832 111.949598,102.859832 112.029598,102.949832 C112.789598,103.399832 113.529598,103.869832 114.299598,104.299832 C114.619598,104.479832 114.899598,104.729832 115.269598,104.809832 C115.419598,104.839832 115.549598,104.899832 115.639598,105.029832 C116.289598,105.309832 116.819598,105.789832 117.439598,106.119832 C117.739598,106.139832 117.969598,106.299832 118.189598,106.489832 C118.279598,106.539832 118.369598,106.599832 118.469598,106.649832 C118.609598,106.649832 118.689598,106.729832 118.769598,106.829832 C118.859598,106.879832 118.949598,106.939832 119.039598,106.989832 C119.179598,106.979832 119.269598,107.069832 119.349598,107.159832 C119.549598,107.279832 119.749598,107.389832 119.949598,107.509832 C120.079598,107.489832 120.139598,107.579832 120.199598,107.659832 C120.309598,107.719832 120.409598,107.769832 120.519598,107.829832 C120.649598,107.819832 120.719598,107.899832 120.789598,107.989832 C120.929598,108.089832 121.069598,108.179832 121.209598,108.279832 C121.499598,108.329832 121.749598,108.449832 121.949598,108.669832 L121.989598,108.659832 L122.009598,108.689832 C122.209598,108.739832 122.399598,108.829832 122.519598,109.009832 C122.679598,109.009832 122.789598,109.129832 122.909598,109.209832 C123.029598,109.209832 123.109598,109.279832 123.169598,109.369832 C123.209598,109.359832 123.239598,109.369832 123.249598,109.409832 C123.509598,109.489832 123.739598,109.609832 123.899598,109.839832 C124.329598,110.069832 124.759598,110.299832 125.189598,110.529832 C125.329598,110.519832 125.419598,110.599832 125.489598,110.709832 C125.539598,110.739832 125.589598,110.769832 125.639598,110.799832 C125.809598,110.819832 125.959598,110.889832 126.069598,111.039832 C126.119598,111.069832 126.169598,111.099832 126.209598,111.129832 C126.479598,111.199832 126.729598,111.319832 126.909598,111.539832 C126.949598,111.529832 126.979598,111.539832 127.009598,111.579832 C127.199598,111.639832 127.389598,111.699832 127.499598,111.879832 C127.539598,111.869832 127.559598,111.879832 127.579598,111.909832 C127.849598,111.979832 128.059598,112.139832 128.229598,112.359832 C129.199598,112.919832 130.169598,113.479832 131.139598,114.029832 C131.319598,114.129832 131.509598,114.219832 131.689598,114.309832 C131.849598,114.309832 131.969598,114.379832 132.059598,114.509832 C132.229598,114.549832 132.369598,114.639832 132.489598,114.759832 C132.639598,114.739832 132.719598,114.819832 132.799598,114.929832 C132.849598,114.959832 132.899598,114.989832 132.939598,115.019832 C133.209598,115.099832 133.459598,115.219832 133.649598,115.429832 C133.689598,115.419832 133.719598,115.429832 133.739598,115.459832 C133.929598,115.509832 134.109598,115.589832 134.229598,115.759832 C134.269598,115.749832 134.289598,115.759832 134.309598,115.789832 C134.509598,115.839832 134.679598,115.929832 134.809598,116.089832 C134.839598,116.079832 134.859598,116.079832 134.879598,116.119832 C135.019598,116.109832 135.099598,116.209832 135.189598,116.289832 C135.369598,116.369832 135.549598,116.429832 135.679598,116.599832 C135.819598,116.579832 135.909598,116.649832 135.979598,116.769832 C136.139598,116.769832 136.239598,116.889832 136.359598,116.969832 C136.479598,116.959832 136.559598,117.039832 136.619598,117.129832 C137.129598,117.409832 137.629598,117.709832 138.159598,117.969832 C138.529598,118.119832 138.519598,118.309832 138.329598,118.639832 Z M148.829598,86.3798319 C148.649598,89.0198319 148.339598,91.6398319 147.869598,94.2298319 C147.149598,98.1898319 146.139598,102.069832 144.779598,105.859832 C143.909598,108.289832 142.839598,110.629832 141.679598,112.929832 C141.449598,113.389832 141.269598,113.439832 140.839598,113.189832 C134.489598,109.519832 128.129598,105.859832 121.789598,102.189832 C115.799598,98.7298319 109.819598,95.2498319 103.829598,91.7898319 C103.319598,91.4998319 103.069598,91.2698319 103.279598,90.6198319 C103.719598,89.2498319 104.049598,87.8498319 104.409598,86.4498319 C104.499598,86.1098319 104.669598,85.9598319 105.019598,85.9198319 C106.799598,85.7498319 108.589598,85.7398319 110.369598,85.7298319 C115.919598,85.6998319 121.469598,85.7198319 127.019598,85.7198319 C127.019598,85.6998319 127.019598,85.6698319 127.019598,85.6498319 C134.069598,85.6498319 141.119598,85.6498319 148.169598,85.6498319 C148.899598,85.6698319 148.879598,85.6698319 148.829598,86.3798319 Z M148.319598,79.8798319 C144.969598,79.8598319 141.629598,79.8398319 138.279598,79.8298319 C134.419598,79.8198319 130.559598,79.8298319 126.699598,79.8298319 C126.699598,79.7898319 126.699598,79.7498319 126.699598,79.7098319 C119.549598,79.7098319 112.399598,79.7098319 105.259598,79.7198319 C104.759598,79.7198319 104.529598,79.6098319 104.409598,79.0798319 C104.089598,77.7198319 103.699598,76.3698319 103.309598,75.0198319 C103.189598,74.6098319 103.379598,74.3798319 103.679598,74.1598319 C105.219598,73.0498319 106.849598,72.0798319 108.479598,71.1098319 C119.179598,64.7298319 130.009598,58.5898319 140.789598,52.3498319 C141.379598,52.0098319 141.369598,52.0098319 141.689598,52.6498319 C143.449598,56.2198319 144.999598,59.8798319 146.109598,63.7098319 C146.849598,66.2798319 147.449598,68.8798319 147.909598,71.5198319 C148.359598,74.1098319 148.589598,76.7198319 148.839598,79.3198319 C148.899598,79.7998319 148.729598,79.8798319 148.319598,79.8798319 Z"/>
      <circle cx="82.72" cy="82.82" r="6.97" fill="url(#logo-word-color-c)"/>
    </g>
  </g>
</svg>
