<svg xmlns="http://www.w3.org/2000/svg" width="120" viewBox="0 -20 67 74">
  <g fill="none">
    <polygon fill="#34AAAF" points="2.5 23.2 2.5 27.2 3.8 29.1 3.8 25.2"/>
    <path fill="#BDBDBD" d="M63,19.9 C63,19.9 68.7,19.3 66,21 C63.3,22.7 42.5,24.9 42.8,26 C43.1,27.1 47.9,29.7 47.7,31.5 C47.5,33.3 38.7,35.3 36.1,31.8 C33.5,28.3 30.2,27.7 25.4,28.6 C20.6,29.5 -10.7,31.1 4.3,26.7 C19.3,22.3 63,19.9 63,19.9 Z" opacity=".22"/>
    <polygon fill="#EA7575" points="16.8 19.1 16.6 14.9 16.6 14.9 10.2 15.7 10.4 20 10.4 20"/>
    <polygon fill="#B8BCCE" points="41.5 15.9 41.5 16.4 41.5 15.9 35.5 16.7 35.6 20.7 41.8 19.9 41.8 19.1 41.8 19.9 47.5 19.1 47.5 15.1"/>
    <polygon fill="#5C37F3" points="16.8 19.1 16.8 20 16.8 19.1 10.4 20 10.4 20 10.6 24.2 10.6 24.2 17 23.3 17 22.5 17 23.3 23.3 22.5 23.1 18.3"/>
    <polygon fill="#EA7575" points="29.5 17.5 29.5 18.1 29.5 17.5 23.1 18.3 23.3 22.5 29.5 21.6 29.5 20.9 29.5 21.6 35.6 20.7 35.5 16.7"/>
    <polygon fill="#EAB76B" points="53.3 15 53.3 14.3 47.5 15.1 47.5 19.1 53.3 18.3 53.3 17.7 53.3 18.3 58.7 17.5 58.7 15.5 56.8 15.8 58.7 15.5 58.7 13.6 53.3 14.3"/>
    <polygon fill="#EA7575" points="47.5 6.9 47.5 11.2 53.3 10.4 53.3 10 53.3 10.4 58.7 9.8 58.7 5.7"/>
    <polygon fill="#68C7CA" points="53.3 14.3 58.7 13.6 58.7 9.8 53.3 10.4"/>
    <polygon fill="#EAB76B" points="41.5 11.9 41.5 11.3 41.5 11.9 47.5 11.2 47.5 6.9 47.5 6.9 35.5 8.3 35.6 12.6"/>
    <polygon fill="#EBEEF7" points="35.6 12.6 35.6 13 35.6 12.6 29.2 13.4 29.5 17.5 35.5 16.7 35.5 16.2 35.5 16.7 41.5 15.9 41.5 11.9"/>
    <polygon fill="#705AF2" points="64.4 16.7 61.1 15.3 58.7 15.5 58.7 17.5"/>
    <polygon fill="#5C37F3" points="41.5 15.9 47.5 15.1 47.5 14.7 47.5 15.1 53.3 14.3 53.3 10.4 47.5 11.2 47.5 11.5 47.5 11.2 41.5 11.9"/>
    <polygon fill="#EF8989" points="58.7 5.7 55.5 4.4 44.6 5.6 47.5 6.9"/>
    <polygon fill="#68C7CA" points="16.8 19.1 23.1 18.3 23.1 17.9 23.1 18.3 29.5 17.5 29.2 13.4 23.2 14.1 23.2 14.1 23.2 14.1 16.6 14.9 16.6 14.9"/>
    <polygon fill="#5C37F3" points="29.2 12.7 29.2 13.4 35.6 12.6 35.5 8.3 23 9.7 23.2 14.1 29.2 13.4"/>
    <polygon fill="#79D3D3" points="3.8 24.1 3.8 25.2 10.6 24.2 10.6 24.2 8.9 22.5 2.5 23.2 3.8 25.2"/>
    <polygon fill="#D66565" points="10.2 15.7 8.5 13.8 8.7 18.2 10.4 20"/>
    <polygon fill="#4A30E2" points="10.4 20 8.7 18.2 8.9 22.5 10.6 24.2"/>
    <polygon fill="#F2C07C" points="35.5 8.3 47.5 6.9 44.6 5.6 32.7 6.9"/>
    <polygon fill="#705AF2" points="23.3 8.7 23 9.7 35.5 8.3 35.5 8.3 32.7 6.9 21.2 8.2 23 9.7"/>
    <polygon fill="#EF8989" points="16.6 14.9 14.3 13.2 8.5 13.8 10.2 15.7"/>
    <polygon fill="#79D3D3" points="23.2 14.1 21.2 12.3 14.3 13.2 16.6 14.9"/>
    <polygon fill="#4A30E2" points="23.2 14.1 23 9.7 21.2 8.2 21.2 12.3"/>
    <polygon fill="#68C7CA" points="47.5 19.1 47.5 19.5 47.5 19.1 41.8 19.9 41.8 23.7 53.3 22 53.3 18.3"/>
    <polygon fill="#5C37F3" points="64.4 16.7 58.7 17.5 58.7 18.2 58.7 17.5 53.3 18.3 53.3 22 64.4 20.5"/>
    <polygon fill="#5C37F3" points="35.6 20.7 35.6 21.1 35.6 20.7 29.5 21.6 29.5 25.4 41.8 23.7 41.8 19.9"/>
    <polygon fill="#68C7CA" points="10.6 24.2 11.5 25.2 10.6 24.2 10.6 24.2 10.6 24.2 10.4 25.7 10.6 24.2 10.6 24.2 3.8 25.2 3.8 29.1 17 27.2 17 23.3"/>
    <polygon fill="#EAB76B" points="23.3 22.5 23.3 22.9 23.3 22.5 17 23.3 17 27.2 29.5 25.4 29.5 21.6"/>
    <polygon fill="#EA7575" points="39.3 31 39.3 26.7 45.8 26 45.8 30.2"/>
    <polygon fill="#D66565" points="36 22.5 36 26.3 39.3 31 39.3 26.7"/>
    <polygon fill="#EF8989" points="45.8 26 39.3 26.7 36 22.5 41.8 22"/>
    <polygon fill="#5C37F3" points="46.8 7 46.8 6.4 46.8 7 52.7 6.3 52.8 2.1 52.8 2.1 40.8 3.4 40.8 7.7"/>
    <polygon fill="#EA7575" points="34.4 7.7 34.4 8.4 40.8 7.7 40.8 3.4 28.3 4.7 28.4 9.1 34.4 8.4"/>
    <polygon fill="#705AF2" points="40.8 3.4 52.8 2.1 49.8 .7 38 2"/>
    <polygon fill="#EF8989" points="28.5 3.7 28.3 4.7 40.8 3.4 40.8 3.4 38 2 26.5 3.2 28.3 4.7"/>
    <polygon fill="#D66565" points="28.4 9.1 28.3 4.7 26.5 3.2 26.5 7.6"/>
  </g>
</svg>
