<svg xmlns="http://www.w3.org/2000/svg" width="272" height="200" viewBox="0 0 272 200">
  <g fill="none" fill-rule="evenodd">
    <path fill="#FFD8BD" fill-rule="nonzero" d="M150.159789,74.1935484 C150.159789,74.1935484 153.827124,71.827957 155.606966,71.9354839 C157.386807,72.0430108 160.817309,70.5663082 159.274301,70.2293907 C157.731293,69.8924731 152.169288,70.2293907 152.169288,70.2293907 C152.169288,70.2293907 153.941953,67.3620072 152.406121,67.3620072 C150.87029,67.3620072 149.922955,69.8566308 148.616781,70.2293907 C147.310607,70.6021505 145.659947,73.4050179 145.659947,73.4050179 L128.945224,79.1397849 L127.646227,77.8996416 L122.069868,79.1397849 C122.069868,79.1397849 124.143958,88.3870968 128.679683,86.702509 C133.215409,85.0179211 150.152612,74.2222222 150.152612,74.2222222"/>
    <path fill="#67412A" fill-rule="nonzero" d="M115.481583,31.0967742 C115.481583,31.0967742 119.005383,41.4408602 117.311662,58.3369176 L93.9584169,58.3369176 C93.9584169,58.3369176 92.4369393,36.8315412 98.3577836,30.7670251 L115.481583,31.0967742 Z"/>
    <path fill="#E8C5A7" fill-rule="nonzero" d="M110.773615,52.8530466 C110.005699,51.8853047 110.055937,49.9856631 110.055937,49.9856631 L101.46533,49.4623656 C101.45213,50.3976844 101.223765,51.3174436 100.797889,52.1505376 C103.834588,53.9157736 107.518989,54.1752359 110.773615,52.8530466 L110.773615,52.8530466 Z"/>
    <path fill="#FFD8BD" fill-rule="nonzero" d="M111.634828 53.390681C111.289697 53.3275271 110.981686 53.1352431 110.773615 52.8530466 107.522283 54.1817567 103.838 53.9302452 100.797889 52.172043 100.287635 53.1861745 99.377408 53.9420859 98.2860158 54.2580645L93.6713456 65.1899642 111.240106 68.172043 114.900264 63.1541219C114.900264 63.1541219 113.292665 53.6630824 111.634828 53.390681zM115.940897 40.2508961C115.574881 48.078853 110.91715 52.1935484 106.50343 51.7204301 100.46058 51.0035842 97.001372 46.2365591 97.3602111 36.8817204 97.6616359 29.0537634 101.960528 23.6487455 107.644538 24.4516129 113.328549 25.2544803 116.507863 28.0286738 115.940897 40.2508961z"/>
    <path fill="#3F2A1C" fill-rule="nonzero" d="M105.147018,38.2580645 C105.156395,38.5527185 104.937884,38.8052734 104.644644,38.8387097 C104.504842,38.8247029 104.377035,38.7536588 104.291434,38.6423712 C104.205833,38.5310836 104.170037,38.3894302 104.192507,38.2508961 C104.18313,37.9562421 104.401641,37.7036872 104.694881,37.6702509 C104.834683,37.6842577 104.96249,37.7553018 105.048091,37.8665894 C105.133692,37.9778769 105.169488,38.1195304 105.147018,38.2580645 Z"/>
    <path stroke="#F8C246" d="M102.893509,34.688172 C102.893509,34.688172 103.410237,33.8422939 104.192507,34.1433692"/>
    <path stroke="#67412A" stroke-linecap="round" stroke-linejoin="round" stroke-width=".5" d="M110.888443,34.609319 C110.888443,34.609319 111.972137,34.4444444 112.259208,35.3261649"/>
    <path fill="#FFD8BD" fill-rule="nonzero" d="M99.4055937 40.3154122C99.4055937 40.3154122 98.96781 37.562724 96.3124011 37.6845878 93.6569921 37.8064516 94.4536148 43.0896057 97.2166755 43.7060932 99.9797361 44.3225806 99.4055937 40.3154122 99.4055937 40.3154122zM112.926649 41.7060932C112.926649 41.7060932 113.364433 38.953405 116.019842 39.0752688 118.675251 39.1971326 117.878628 44.4802867 115.115567 45.0967742 112.352507 45.7132616 112.926649 41.7060932 112.926649 41.7060932z"/>
    <path fill="#67412A" fill-rule="nonzero" d="M116.019842,39.0752688 C113.637225,36.8090853 111.938954,33.9206546 111.1181,30.7383513 C110.543958,28.172043 113.156306,29.125448 112.553456,28.5878136 C111.950607,28.0501792 101.450976,28.4014337 101.450976,28.4014337 C101.450976,28.4014337 112.754406,27.7777778 112.287916,29.2616487 C109.955462,36.7096774 97.2166755,37.7491039 97.2166755,37.7491039 C97.2166755,37.7491039 96.4989974,34.5949821 98.6520317,30.0645161 C103.675778,19.5483871 111.986491,25.8422939 111.986491,25.8422939 C115.513306,29.2709171 117.035574,34.2653068 116.019842,39.0752688 L116.019842,39.0752688 Z"/>
    <path fill="#C5CAE9" fill-rule="nonzero" d="M104.242744,24.0645161 L103.977203,17.125448 C106.138007,16.8564412 108.330374,17.0024295 110.436306,17.5555556 L110.02723,24.2293907 C108.125174,23.8233266 106.164887,23.7674528 104.242744,24.0645161 Z"/>
    <path fill="#C0E2CC" fill-rule="nonzero" d="M110.02723 24.2222222L109.933931 25.7992832C108.083595 25.4209028 106.180301 25.3771996 104.314512 25.6702509L104.249921 24.0645161C106.169284 23.7659755 108.127056 23.8194177 110.02723 24.2222222L110.02723 24.2222222zM109.804749 27.6272401L109.747335 28.6164875 104.422164 28.6164875 104.379103 27.4336918C106.185426 27.1878271 108.020588 27.2532926 109.804749 27.6272401L109.804749 27.6272401z"/>
    <path fill="#5C37F3" fill-rule="nonzero" d="M97.525277,26.609319 C97.0229024,23.6845878 96.4989974,20.2795699 96.4989974,20.2795699 C98.6657543,18.5754023 101.250887,17.4836269 103.98438,17.1182796 L104.249921,24.0573477 C101.86026,24.4509704 99.5737388,25.3186947 97.525277,26.609319 Z"/>
    <path fill="#C5CAE9" fill-rule="nonzero" d="M109.926755,25.8064516 L109.819103,27.6344086 C108.030294,27.2588106 106.190133,27.1933399 104.379103,27.4408602 L104.314512,25.6774194 C106.177957,25.3852326 108.078743,25.428934 109.926755,25.8064516 Z"/>
    <path fill="#5C37F3" fill-rule="nonzero" d="M110.429129 17.5483871C113.823747 18.4157706 116.170554 20 116.299736 20.2867384 116.428918 20.5734767 116.206438 23.8136201 115.93372 26.6738351 114.133878 25.4967989 112.131232 24.6631281 110.02723 24.2150538L110.429129 17.5483871zM104.371926 27.4336918C102.153105 27.7506636 100.013389 28.4800952 98.0635356 29.5842294 97.9774142 29.1612903 97.8841161 28.6523297 97.7836412 28.078853 99.7830095 26.8618083 101.997618 26.0392895 104.307335 25.655914L104.371926 27.4336918z"/>
    <path fill="#68C7CA" fill-rule="nonzero" d="M104.422164 28.6164875L109.761689 28.6164875 109.819103 27.6272401C111.877337 28.0590232 113.836711 28.8710379 115.596412 30.0215054 115.546174 30.516129 115.503113 30.8888889 115.481583 31.0967742 114.295534 30.2023287 112.93692 29.5628608 111.491293 29.218638 107.902902 28.2007168 102.348074 28.344086 98.5730871 30.8172043 98.4909751 30.8113008 98.4118213 30.7841233 98.3434301 30.7383513 98.2113216 30.3685112 98.1151873 29.9868202 98.0563588 29.5985663 100.006212 28.4944321 102.145928 27.7650006 104.364749 27.4480287L104.422164 28.6164875zM104.242744 24.0645161L104.307335 25.6702509C101.997618 26.0536264 99.7830095 26.8761452 97.7836412 28.09319 97.6975198 27.6272401 97.6113984 27.125448 97.525277 26.6021505 99.572688 25.3174572 101.856619 24.4546645 104.242744 24.0645161L104.242744 24.0645161z"/>
    <path fill="#5C37F3" fill-rule="nonzero" d="M109.926755,25.8064516 C112.012191,26.2335012 113.998734,27.0481095 115.783008,28.2078853 C115.71124,28.9247312 115.646649,29.5197133 115.596412,30.0215054 C113.836711,28.8710379 111.877337,28.0590232 109.819103,27.6272401 L109.926755,25.8064516 Z"/>
    <path fill="#68C7CA" fill-rule="nonzero" d="M110.02723,24.2222222 C112.131232,24.6702966 114.133878,25.5039673 115.93372,26.6810036 C115.883483,27.2114695 115.833245,27.7204301 115.783008,28.2078853 C113.998734,27.0481095 112.012191,26.2335012 109.926755,25.8064516 L110.02723,24.2222222 Z"/>
    <path fill="#3F2A1C" fill-rule="nonzero" d="M110.709024,38.5089606 C110.720878,38.6482797 110.675636,38.7864416 110.583647,38.8918352 C110.491659,38.9972287 110.360797,39.0608348 110.221003,39.0681004 C109.931575,39.0204637 109.728045,38.7577453 109.754512,38.4659498 C109.742657,38.3266307 109.7879,38.1884688 109.879888,38.0830752 C109.971877,37.9776817 110.102738,37.9140756 110.242533,37.90681 C110.531961,37.9544467 110.735491,38.2171651 110.709024,38.5089606 Z"/>
    <path d="M116.31409,53.7634409 C116.156201,52.5949821 116.055726,51.8781362 116.055726,51.8781362 L113.041478,51.8781362 C113.041478,51.8781362 113.120422,52.4516129 113.228074,53.390681 C114.26827,53.3861415 115.304962,53.5113636 116.31409,53.7634409 L116.31409,53.7634409 Z"/>
    <path fill="#C0E2CC" fill-rule="nonzero" d="M118.747018 74.688172C118.309235 78.1362007 117.699208 90.3225806 117.699208 90.3225806 118.280528 86.1218638 120.569921 76.1218638 120.569921 76.1218638L121.732559 81.1899642 129.71314 77.7132616C129.71314 77.7132616 126.311346 60.9318996 121.933509 56.5734767 120.488163 55.1363954 118.676205 54.1223798 116.694459 53.6415771 117.38343 58.702509 119.091504 71.8924731 118.747018 74.688172zM93.4273351 54.8172043C90.7288654 55.6774194 87.5710818 57.6845878 85.8127704 62.3727599 83.7468503 67.8202903 82.1923707 73.4478446 81.1693931 79.1827957L89.7097625 81.4982079C89.7097625 81.4982079 89.8532982 88.0215054 89.7097625 91.3548387 89.7097625 91.3548387 92.5804749 82.8028674 93.3340369 75.4193548 93.9368865 69.483871 93.5852243 58.781362 93.4273351 54.8172043z"/>
    <path fill="#34AAAF" fill-rule="nonzero" d="M120.627335,104.97491 C120.627335,104.97491 117.146596,94.5448029 117.756623,90.3369176 C117.756623,90.3369176 118.337942,78.1505376 118.768549,74.688172 C119.120211,71.8924731 117.40496,58.702509 116.723166,53.6415771 C115.655351,53.3749577 114.558393,53.2425121 113.457731,53.2473118 C113.873984,56.9605735 114.68496,66.1505376 112.96971,70.6308244 C112.96971,70.6308244 104.357573,72.953405 99.0395778,70.0501792 C99.0395778,70.0501792 96.3841689,61.3691756 96.577942,54.2365591 C95.5151025,54.3018425 94.4642612,54.4968412 93.4488654,54.8172043 C93.6139314,58.8100358 93.9655937,69.483871 93.3770976,75.4121864 C92.6594195,82.8028674 89.7528232,91.3476703 89.7528232,91.3476703 C89.6092876,94.6810036 86.9969393,103.53405 86.9969393,103.53405 L120.627335,104.97491 Z"/>
    <path fill="#C0E2CC" fill-rule="nonzero" d="M99.0395778,70.0501792 C104.379103,72.9175627 112.96971,70.6308244 112.96971,70.6308244 C114.68496,66.1792115 113.873984,56.9605735 113.457731,53.2473118 C112.856942,53.2436076 112.256863,53.2891607 111.663536,53.3835125 C111.663536,53.3835125 114.275884,63.5268817 109.345435,64.5376344 C104.414987,65.5483871 99.6280739,64.5376344 98.7525066,60.9175627 C98.2277541,58.7364268 98.0796989,56.481809 98.314723,54.2508961 C97.7368462,54.2016368 97.1558187,54.2016368 96.577942,54.2508961 C96.3626385,61.3691756 99.0395778,70.0501792 99.0395778,70.0501792 Z"/>
    <polygon fill="#C59448" fill-rule="nonzero" points="90.865 89.814 79.332 89.814 79.684 93.591 90.865 93.591"/>
    <polygon fill="#FEF3D5" fill-rule="nonzero" points="79.684 93.591 80.064 97.713 90.865 97.713 90.865 93.591"/>
    <path fill="#EAB76B" fill-rule="nonzero" d="M62.3590501,60.6594982 C62.3590501,60.6594982 108.512929,60.2437276 108.039261,60.8100358 L104.450871,91.5770609 L67.1316095,91.1899642 L62.3590501,60.6594982 Z"/>
    <polygon fill="#C59448" fill-rule="nonzero" points="104.451 91.577 106.195 91.19 109.676 61.692 108.039 60.81"/>
    <path stroke="#EA8039" stroke-linecap="round" stroke-linejoin="round" stroke-width=".5" d="M104.673351,45.5197133 C104.673351,45.5197133 106.90533,47.5197133 108.97942,45.5197133"/>
    <ellipse cx="135.978" cy="193.907" fill="#BDBDBD" fill-rule="nonzero" opacity=".32" rx="135.892" ry="5.821"/>
    <path fill="#FFD8BD" fill-rule="nonzero" d="M82.4109763,98.4444444 C82.4109763,98.4444444 80.4660686,95.8781362 78.8225858,95.7706093 C77.1791029,95.6630824 78.8225858,97.6487455 78.8225858,97.6487455 C78.8225858,97.6487455 76.0451715,98.0573477 75.011715,98.8100358 C73.9782586,99.562724 72.6003166,101.462366 74.8251187,102.824373 C76.5762533,103.892473 81.0545646,103.390681 82.2674406,102.301075 C84.2984697,100.480287 82.4109763,98.4444444 82.4109763,98.4444444 Z"/>
    <path fill="#F8C246" fill-rule="nonzero" d="M112.897942,101.670251 C112.861053,101.898979 112.734088,102.103461 112.545346,102.238121 C112.356604,102.37278 112.121772,102.426425 111.893193,102.387097 C111.395985,102.363992 111.006052,101.952346 111.010449,101.455197 C111.047337,101.226469 111.174302,101.021987 111.363045,100.887327 C111.551787,100.752668 111.786618,100.699023 112.015198,100.738351 C112.512406,100.761456 112.902338,101.173102 112.897942,101.670251 L112.897942,101.670251 Z"/>
    <path fill="#C5CAE9" fill-rule="nonzero" d="M52.1608443,135.111111 C48.2136148,132.200717 52.8785224,147.913978 50.8331398,152.924731 C49.8642744,155.290323 49.3977836,158.659498 49.2040106,161.526882 L49.0030607,161.526882 C49.0891821,156.078853 49.0030607,148.150538 48.1777309,142.888889 C46.7423747,134.164875 40.405277,125.942652 34.9365699,125.827957 C29.4678628,125.713262 35.9700264,131.390681 35.6901319,142.566308 C35.4102375,153.741935 43.7424802,155.139785 45.9313984,157.082437 C46.7926121,157.849462 47.4241689,159.641577 47.8691293,161.526882 L40.2473879,161.526882 L42.8740897,192.408602 L54.5435356,192.408602 L56.6965699,161.526882 L50.402533,161.526882 C52.368971,156.795699 55.8927704,153.362007 57.4931926,149.197133 C59.6892876,143.498208 56.1080739,138.021505 52.1608443,135.111111 Z"/>
    <rect width="2.749" height="1" x="178.939" y="111.828" fill="#F9C446" fill-rule="nonzero" rx=".4"/>
    <path fill="#F9C446" fill-rule="nonzero" d="M178.543958,113.72043 C176.552129,114.15315 174.92445,115.581137 174.237889,117.498208 L185.189657,117.498208 C183.388285,115.032258 180.452982,114.086022 178.543958,113.72043 Z"/>
    <path fill="#F9DFAA" fill-rule="nonzero" d="M185.218364,117.498208 L186.337942,117.498208 C185.620264,115.189964 183.180158,113.498208 180.302269,113.498208 C179.709177,113.498689 179.118479,113.573344 178.543958,113.72043 C180.452982,114.086022 183.388285,115.032258 185.218364,117.498208 Z"/>
    <path fill="#E2AB3D" fill-rule="nonzero" d="M185.218364,117.498208 L174.266596,117.498208 C174.120184,117.962096 174.045168,118.445507 174.044116,118.9319 L186.079578,118.9319 C185.844185,118.424868 185.555492,117.94427 185.218364,117.498208 Z"/>
    <path fill="#EFB959" fill-rule="nonzero" d="M186.079578,118.953405 L186.596306,118.953405 C186.595254,118.467012 186.520238,117.983601 186.373826,117.519713 L185.254248,117.519713 C185.57891,117.967393 185.855541,118.447933 186.079578,118.953405 L186.079578,118.953405 Z"/>
    <polygon fill="#FEF3D5" fill-rule="nonzero" points="37.671 96.065 38.855 99.52 66.098 99.52 66.902 96.065"/>
    <rect width="206.433" height="13.742" x="32.733" y="92.717" fill="#B8BCCE" fill-rule="nonzero" rx="4.75"/>
    <path fill="#FEFEFE" fill-rule="nonzero" d="M76.3824802,115.146953 C76.2566618,115.223887 76.1509013,115.329525 76.0738786,115.455197 C76.0164644,115.192354 76.1193316,115.089606 76.3824802,115.146953 Z"/>
    <path stroke="#EA8039" stroke-linecap="round" stroke-linejoin="round" stroke-width=".5" d="M106.833562,42.4229391 C107.098999,42.6209187 107.449163,42.6647514 107.755303,42.5383208 C108.061444,42.4118901 108.278374,42.1338581 108.326332,41.8064516"/>
    <path fill="#EBEEF7" fill-rule="nonzero" d="M135.985646,118.939068 C123.127641,118.939068 112.704169,129.350454 112.704169,142.193548 C112.704169,155.036643 123.127641,165.448029 135.985646,165.448029 C148.843651,165.448029 159.267124,155.036643 159.267124,142.193548 C159.251307,129.357003 148.837094,118.954867 135.985646,118.939068 Z M145.530765,157.125448 C143.722216,153.976105 141.899314,150.824373 140.062058,147.670251 C140.608755,147.265762 141.092456,146.782622 141.497414,146.236559 C144.626491,148.062127 147.762744,149.870968 150.906174,151.663082 L150.963588,151.663082 C149.571882,153.856826 147.717846,155.720944 145.530765,157.125448 Z M136.818153,159.899642 C136.818153,159.820789 136.818153,159.727599 136.818153,159.620072 C136.818153,156.986858 136.818153,154.358423 136.818153,151.734767 C136.818153,150.817204 136.875567,149.899642 136.875567,148.982079 C137.505752,148.903511 138.121783,148.737013 138.705646,148.487455 C140.523764,151.641577 142.349059,154.79092 144.18153,157.935484 C141.90002,159.119176 139.386719,159.78959 136.818153,159.899642 L136.818153,159.899642 Z M126.440528,127.261649 C128.26343,130.410992 130.08394,133.565114 131.902058,136.724014 C131.355361,137.128503 130.87166,137.611643 130.466702,138.157706 C127.313703,136.32736 124.158311,134.506571 121.000528,132.695341 C122.397575,130.511234 124.253886,128.657076 126.440528,127.261649 L126.440528,127.261649 Z M153.712296,141.354839 L153.583113,141.354839 C151.781741,141.318996 149.994723,141.354839 148.178997,141.354839 L148.178997,141.354839 C146.377625,141.354839 144.590607,141.354839 142.774881,141.354839 C142.698851,140.733405 142.537033,140.125481 142.294037,139.548387 C144.770026,138.114695 147.217309,136.681004 149.678945,135.247312 C150.360739,134.845878 151.04971,134.46595 151.724327,134.057348 C152.908829,136.317116 153.587159,138.807149 153.712296,141.354839 L153.712296,141.354839 Z M133.524011,140.215054 L133.524011,140.215054 C133.839789,140.215054 134.004855,139.978495 133.976148,139.605735 C133.960614,139.515597 133.960614,139.423471 133.976148,139.333333 L133.976148,139.261649 C133.995463,139.208107 134.022024,139.157457 134.055092,139.111111 L134.205805,139.0681 C134.256885,139.013192 134.314766,138.965014 134.378047,138.924731 L134.622058,138.802867 C134.684145,138.772697 134.749047,138.748687 134.815831,138.731183 L134.873245,138.731183 C135.110021,138.685296 135.352841,138.773492 135.504802,138.960573 C135.589544,139.055233 135.695206,139.128865 135.813404,139.175627 L135.813404,139.175627 L135.856464,139.175627 C135.913312,139.18702 135.971859,139.18702 136.028707,139.175627 L136.071768,139.175627 C136.129435,139.169298 136.185414,139.152281 136.236834,139.125448 L136.294248,139.125448 C136.366787,139.080555 136.432115,139.024969 136.488021,138.960573 C136.55344,138.881113 136.633924,138.815339 136.724855,138.767025 L136.796623,138.767025 C136.858467,138.74234 136.923905,138.727815 136.990396,138.724014 L137.076517,138.724014 C137.20024,138.740545 137.321029,138.774326 137.435356,138.824373 C137.795107,138.906248 138.034086,139.24725 137.987968,139.612903 C137.95217,139.784779 138.003824,139.963213 138.125931,140.089484 C138.248039,140.215754 138.424782,140.273504 138.597995,140.243728 L138.69847,140.243728 L138.849182,140.243728 C138.917206,140.257081 138.982634,140.281285 139.042955,140.315412 C139.227537,140.449027 139.365575,140.637043 139.437678,140.853047 C139.524576,141.018255 139.547568,141.209628 139.502269,141.390681 L139.444855,141.448029 C139.398492,141.48761 139.3553,141.530752 139.315673,141.577061 L139.258259,141.663082 C139.229866,141.705989 139.205825,141.751615 139.186491,141.799283 L139.186491,141.799283 C138.92095,142.086022 138.964011,142.379928 139.279789,142.659498 L139.337203,142.716846 L139.337203,142.716846 C139.401794,142.874552 139.473562,143.039427 139.530976,143.204301 C139.558013,143.310132 139.558013,143.42105 139.530976,143.526882 L139.530976,143.526882 C139.521524,143.561177 139.50953,143.594723 139.495092,143.62724 C139.471676,143.696496 139.437793,143.761767 139.394617,143.820789 L139.394617,143.820789 C139.346153,143.884374 139.288037,143.940003 139.222375,143.985663 L139.222375,143.985663 C139.060748,144.091472 138.870025,144.144111 138.676939,144.136201 C138.188918,144.136201 137.959261,144.37276 138.023852,144.853047 C138.088443,145.333333 137.743958,145.44086 137.421003,145.569892 C137.322107,145.61941 137.215183,145.650964 137.105224,145.663082 L136.925805,145.663082 C136.862918,145.65134 136.802335,145.629556 136.746385,145.598566 L136.746385,145.598566 C136.67162,145.553819 136.603902,145.498258 136.545435,145.433692 C136.475726,145.355767 136.393203,145.29031 136.301425,145.240143 L136.301425,145.240143 C136.232696,145.204117 136.156544,145.184488 136.078945,145.182796 L136.078945,145.182796 C136.000765,145.186695 135.92458,145.208788 135.856464,145.247312 L135.856464,145.247312 C135.76411,145.296606 135.681443,145.362177 135.612454,145.44086 C135.374719,145.722419 134.962052,145.778204 134.657942,145.569892 L134.478522,145.476703 L134.392401,145.419355 L134.284749,145.326165 L134.227335,145.261649 C134.197874,145.219382 134.173768,145.173634 134.155567,145.125448 C134.154142,145.101574 134.154142,145.077637 134.155567,145.053763 C134.141235,144.965932 134.141235,144.876362 134.155567,144.78853 C134.166163,144.679128 134.151429,144.568757 134.112507,144.46595 C134.10044,144.440757 134.086022,144.416756 134.069446,144.394265 C134.036944,144.339923 133.992834,144.293416 133.940264,144.258065 C133.940264,144.258065 133.940264,144.258065 133.940264,144.258065 L133.861319,144.258065 L133.803905,144.258065 C133.715972,144.243749 133.626298,144.243749 133.538364,144.258065 L133.473773,144.258065 C133.409418,144.265869 133.344355,144.265869 133.28,144.258065 L133.201055,144.258065 L133.086227,144.18638 C133.031823,144.145624 132.983494,144.097352 132.942691,144.043011 L132.885277,143.971326 C132.828211,143.881973 132.777836,143.788528 132.734565,143.691756 C132.563185,143.398528 132.636999,143.023742 132.906807,142.817204 C133.069539,142.714829 133.168263,142.536182 133.168263,142.344086 C133.168263,142.15199 133.069539,141.973343 132.906807,141.870968 C132.633015,141.663732 132.558852,141.28409 132.734565,140.989247 C132.899631,140.623656 133.07905,140.322581 133.545541,140.365591 L133.710607,140.365591 L133.524011,140.215054 Z M137.44971,136.336918 L137.679367,136.394265 C137.603346,136.379774 137.528858,136.358173 137.456887,136.329749 L137.44971,136.336918 Z M150.898997,132.609319 L150.798522,132.659498 L143.183958,137.11828 C142.609815,137.455197 142.021319,137.770609 141.46153,138.129032 C141.056572,137.582969 140.572871,137.099829 140.026174,136.695341 C141.698364,133.878136 143.31314,131.02509 144.963799,128.193548 C145.137475,127.874548 145.336681,127.570092 145.559472,127.283154 C147.701653,128.660285 149.524568,130.478643 150.906174,132.616487 L150.898997,132.609319 Z M144.167177,126.473118 L144.167177,126.516129 C142.337098,129.577061 140.578786,132.666667 138.763061,135.749104 C138.763061,135.806452 138.69847,135.849462 138.662586,135.899642 C138.100412,135.663784 137.508989,135.504647 136.904274,135.426523 C136.904274,133.295102 136.904274,131.16368 136.904274,129.032258 L136.839683,129.032258 C136.839683,127.541219 136.839683,126.043011 136.839683,124.551971 C136.839683,124.551971 136.839683,124.516129 136.839683,124.487455 C139.397629,124.609581 141.898176,125.287199 144.167177,126.473118 L144.167177,126.473118 Z M135.102902,124.494624 C135.102902,126.348865 135.102902,128.200717 135.102902,130.050179 C135.102902,131.842294 135.102902,133.634409 135.102902,135.426523 C134.485632,135.503757 133.881918,135.665365 133.308707,135.90681 C131.421214,132.78853 129.641372,129.612903 127.796939,126.473118 C130.061506,125.288989 132.556987,124.611416 135.110079,124.487455 L135.102902,124.494624 Z M129.691609,139.548387 C129.446151,140.125121 129.281914,140.733057 129.203588,141.354839 L129.203588,141.354839 C127.610343,141.354839 126.024274,141.354839 124.431029,141.390681 C122.4,141.390681 120.368971,141.390681 118.337942,141.390681 L118.258997,141.390681 C118.375704,138.828885 119.051753,136.323553 120.239789,134.050179 C123.407142,135.837515 126.557748,137.660693 129.691609,139.519713 L129.691609,139.548387 Z M118.258997,143.02509 L118.323588,143.02509 C120.828285,143.02509 123.347335,143.02509 125.830501,143.02509 C126.950079,143.02509 128.076834,143.075269 129.196412,143.060932 C129.272442,143.682366 129.43426,144.29029 129.677256,144.867384 C129.317868,145.074715 128.970442,145.302075 128.636623,145.548387 C125.909446,147.11828 123.167916,148.673835 120.455092,150.272401 L120.239789,150.387097 C119.044893,148.098439 118.36865,145.575258 118.258997,142.996416 L118.258997,143.02509 Z M121.065119,151.806452 L121.237361,151.684588 C123.167916,150.415771 125.256359,149.412186 127.21562,148.193548 C128.01942,147.698925 128.837573,147.225806 129.648549,146.759857 C129.862427,146.676434 130.0669,146.570711 130.258575,146.444444 C130.32883,146.386584 130.403184,146.333878 130.481055,146.286738 C130.886014,146.832801 131.369715,147.315941 131.916412,147.72043 L131.916412,147.72043 C131.793146,147.915091 131.68976,148.121623 131.60781,148.336918 C130.050449,150.960573 128.48591,153.577061 126.935726,156.222222 C126.76913,156.528332 126.582112,156.822903 126.375937,157.103943 C124.246748,155.722823 122.436343,153.904744 121.065119,151.770609 L121.065119,151.806452 Z M127.753879,157.921147 L127.904591,157.648746 L132.720211,149.476703 C132.770449,149.397849 132.799156,149.311828 132.83504,149.225806 C132.992929,148.989247 133.172348,148.759857 133.308707,148.508961 C133.884194,148.751039 134.490366,148.912658 135.110079,148.989247 C135.113346,149.04894 135.113346,149.108766 135.110079,149.168459 C135.087584,149.74943 135.101966,150.33124 135.15314,150.910394 C135.15314,153.856631 135.117256,156.802867 135.15314,159.749104 C135.15314,159.820789 135.15314,159.870968 135.15314,159.928315 C132.564466,159.802073 130.035555,159.10694 127.746702,157.892473 L127.753879,157.921147 Z M142.26533,144.9319 C142.520337,144.340037 142.6895,143.714861 142.767704,143.075269 L143.671979,143.075269 C146.944591,143.075269 150.217203,143.075269 153.489815,143.075269 L153.712296,143.075269 C153.595359,145.637029 152.919323,148.142312 151.731504,150.415771 C148.583289,148.551971 145.427898,146.714456 142.26533,144.903226 L142.26533,144.9319 Z"/>
    <path fill="#EBEEF7" fill-rule="nonzero" d="M136,143.605735 C136.586923,143.605002 137.114269,143.247424 137.331565,142.702839 C137.548861,142.158254 137.412325,141.536393 136.986806,141.132618 C136.561286,140.728844 135.932524,140.624514 135.399159,140.869182 C134.865795,141.113851 134.535298,141.658218 134.564644,142.243728 C134.568206,142.616419 134.722939,142.971734 134.993466,143.228437 C135.263993,143.48514 135.627183,143.621281 136,143.605735 L136,143.605735 Z"/>
    <path fill="#EAB76B" fill-rule="nonzero" d="M177.338259 25.4336918C177.338259 23.218638 176.118206 22.9032258 175.027335 22.9032258 174.146917 22.9245026 173.269132 23.0083464 172.400633 23.1541219 171.544175 23.2997521 170.67833 23.3836009 169.809815 23.4050179 166.939103 23.4050179 165.711873 21.5340502 165.711873 18.874552L165.711873 18.2222222 167.434301 18.2222222 167.434301 18.781362C167.434301 20.6236559 168.431873 21.2473118 170.125594 21.2473118 170.869635 21.2338039 171.61132 21.1594817 172.343219 21.0250896 173.127728 20.8869002 173.922178 20.8125818 174.718734 20.8028674 176.721055 20.8028674 177.718628 21.6487455 178.091821 23.0537634L178.156412 23.0537634C178.500897 21.6200717 179.591768 20.7741935 181.565383 20.8028674 182.362023 20.8109641 183.156605 20.8852949 183.940897 21.0250896 184.684815 21.1599065 185.438456 21.2342243 186.194406 21.2473118 187.945541 21.2473118 188.914406 20.5304659 188.914406 18.781362L188.914406 18.2222222 190.636834 18.2222222 190.636834 18.874552C190.636834 21.4695341 189.510079 23.4050179 186.330765 23.4050179 185.471763 23.3836224 184.615461 23.2997686 183.768654 23.1541219 182.931514 23.0083646 182.084747 22.9245049 181.235251 22.9032258 180.266385 22.9032258 178.924327 23.218638 178.924327 25.4336918L177.338259 25.4336918zM178.931504 2.82437276C178.931504 5.03942652 180.273562 5.35483871 181.242427 5.35483871 182.091868 5.3326619 182.938569 5.2488087 183.775831 5.10394265 184.622638 4.95829593 185.47894 4.87444212 186.337942 4.85304659 189.495726 4.85304659 190.644011 6.8172043 190.644011 9.38351254L190.644011 10.0358423 188.921583 10.0358423 188.921583 9.50537634C188.921583 7.7562724 187.952718 7.00358423 186.201583 7.00358423 185.446652 7.03274912 184.69414 7.1069555 183.948074 7.22580645 183.164755 7.37632609 182.370072 7.46025852 181.572559 7.47670251 179.570237 7.47670251 178.508074 6.60215054 178.163588 5.22580645L178.098997 5.22580645C177.725805 6.60215054 176.721055 7.47670251 174.72591 7.47670251 173.928504 7.45858356 173.133961 7.37466589 172.350396 7.22580645 171.616339 7.10721854 170.875783 7.03300944 170.13277 7.00358423 168.446227 7.00358423 167.477361 7.66308244 167.441478 9.46953405L167.441478 10.0358423 165.71905 10.0358423 165.71905 9.41218638C165.71905 6.75985663 166.939103 4.85304659 169.816992 4.85304659 170.685506 4.87448837 171.551348 4.95833698 172.40781 5.10394265 173.276427 5.24881741 174.154148 5.33265518 175.034512 5.35483871 176.125383 5.35483871 177.345435 5.03942652 177.345435 2.82437276L178.931504 2.82437276z"/>
    <rect width="24.911" height="2.237" x="165.712" y="10.76" fill="#34AAAF" fill-rule="nonzero"/>
    <rect width="24.911" height="1.147" x="165.712" y="12.996" fill="#EAB76B" fill-rule="nonzero"/>
    <rect width="24.911" height="3.355" x="165.712" y="14.143" fill="#593A24" fill-rule="nonzero"/>
    <polygon fill="#EAB76B" fill-rule="nonzero" points="143.823 21.362 128.156 21.362 128.156 19.276 129.239 19.276 129.239 20.588 142.746 20.588 142.746 19.276 143.83 19.276"/>
    <polygon fill="#EAB76B" fill-rule="nonzero" points="128.134 14.337 143.823 14.337 143.823 16.423 142.739 16.423 142.739 15.111 129.182 15.111 129.182 16.423 128.098 16.423"/>
    <rect width="15.688" height="1.778" x="128.134" y="16.968" fill="#593A24" fill-rule="nonzero"/>
    <path stroke="#EAB76B" d="M128.780158,17.483871 C128.780158,17.483871 132.368549,19.2401434 134.779947,18.1003584 C137.309155,17.0533238 140.175306,17.1954127 142.588285,18.4874552"/>
    <path fill="#34AAAF" fill-rule="nonzero" d="M214.104908 22.7455197C214.961705 23.3690374 216.002187 23.6893967 217.061741 23.655914 218.112953 23.6771856 219.142782 23.3577804 219.997045 22.7455197L219.997045 23.2401434C219.154061 23.8783566 218.119205 24.2119571 217.061741 24.1863799 215.998091 24.2089682 214.95738 23.8759232 214.104908 23.2401434L214.104908 22.7455197zM219.997045 15.5770609C219.136152 14.9617555 218.098522 14.6422743 217.040211 14.6666667 215.988263 14.6401372 214.956796 14.96005 214.104908 15.5770609L214.104908 15.0537634C214.947102 14.4087849 215.986652 14.0744888 217.047388 14.1075269 218.109488 14.0803929 219.149384 14.4139867 219.997045 15.0537634L219.997045 15.5770609z"/>
    <polyline stroke="#EAB76B" stroke-width=".5" points="217.578 15.577 218.849 11.068 219.997 11.068"/>
    <path fill="#34AAAF" fill-rule="nonzero" d="M214.104908,15.9928315 C215.990344,16.7777779 218.111609,16.7777779 219.997045,15.9928315 L219.997045,22.0716846 C219.997045,22.0716846 216.896675,23.9784946 214.104908,22.0716846 L214.104908,15.9928315 Z"/>
    <polygon fill="#EBEEF7" fill-rule="nonzero" points="157.215 .473 154.861 .473 154.861 32.122 196.773 32.122 196.773 29.728 157.215 29.728"/>
    <polygon fill="#EBEEF7" fill-rule="nonzero" points="206.957 10.151 205.679 10.151 205.679 27.326 228.423 27.326 228.423 26.029 206.957 26.029"/>
    <polygon fill="#EBEEF7" fill-rule="nonzero" points="125.594 9.634 124.316 9.634 124.316 26.81 147.059 26.81 147.059 25.505 125.594 25.505"/>
    <path fill="#34AAAF" fill-rule="nonzero" d="M183.725594 197.376344L176.548813 197.376344C176.548813 197.376344 171.037045 194.394265 170.73562 193.448029 170.56487 192.767998 170.56487 192.056375 170.73562 191.376344L183.725594 196.064516 183.725594 197.376344zM199.119789 196.064516L191.943008 196.064516C191.943008 196.064516 186.43124 193.082437 186.129815 192.136201 185.959065 191.45617 185.959065 190.744547 186.129815 190.064516L199.141319 194.752688 199.119789 196.064516z"/>
    <polyline fill="#E8C5A7" fill-rule="nonzero" points="176.133 176.251 177.633 190.688 183.503 190.688 183.855 175.821"/>
    <polyline fill="#E8C5A7" fill-rule="nonzero" points="191.548 174.939 193.055 189.369 198.919 189.369 199.278 174.509"/>
    <path fill="#5C37F3" fill-rule="nonzero" stroke="#5C37F3" d="M175.300053,124.781362 C175.300053,124.781362 174.962744,168.587814 175.300053,177.311828 C175.300053,177.311828 182.893087,178.301075 184.708813,177.311828 C184.708813,177.311828 188.168021,147.505376 187.837889,142.731183 C187.837889,142.731183 190.313879,178.193548 190.966966,177.756272 C191.620053,177.318996 201.430712,178.473118 201.394828,176.824373 C201.358945,175.175627 201.394828,129.562724 201.394828,129.562724"/>
    <path fill="#68C7CA" fill-rule="nonzero" d="M176.613404 196.064516C176.613404 196.064516 171.517889 192.845878 171.108813 192.379928 170.528498 191.344414 170.528498 190.08211 171.108813 189.046595 171.826491 187.612903 172.85277 187.290323 173.649393 187.412186 174.446016 187.53405 177.388496 188.351254 177.388496 188.351254 177.388496 188.351254 182.606016 188.759857 183.567704 187.935484 184.529393 187.111111 184.464802 188.107527 184.464802 189.369176 184.464802 190.630824 183.861953 196.035842 183.861953 196.035842L176.613404 196.064516zM192.036306 194.74552C192.036306 194.74552 186.940792 191.526882 186.531715 191.060932 185.9514 190.025417 185.9514 188.763113 186.531715 187.727599 187.249393 186.293907 188.275673 185.971326 189.072296 186.09319 189.868918 186.215054 192.811398 187.032258 192.811398 187.032258 192.811398 187.032258 198.028918 187.44086 198.990607 186.616487 199.952296 185.792115 199.887704 186.78853 199.887704 188.050179 199.887704 189.311828 199.284855 194.716846 199.284855 194.716846L192.036306 194.74552z"/>
    <path fill="#E8C5A7" fill-rule="nonzero" d="M193.277889,86.4802867 L193.277889,80.8602151 L178.156412,61.8566308 C177.801912,64.6617489 177.291573,67.4450151 176.627757,70.1935484 C175.823958,72.9462366 178.465013,80.9462366 185.354723,81.2043011 L185.354723,81.2043011 L184.881055,87.3978495"/>
    <path fill="#EAB76B" fill-rule="nonzero" d="M174.108707,113.634409 C174.108707,113.634409 169.745224,111.046595 170.240422,107.340502 C170.73562,103.634409 173.943641,86.7383513 178.852559,85.8709677 C183.761478,85.0035842 190.959789,85.4982079 194.785013,85.3763441 C198.610237,85.2544803 204.294248,86.9820789 205.779842,97.218638 C207.265435,107.455197 207.387441,112.143369 205.779842,114.616487 C204.172243,117.089606 202.909129,119.304659 202.909129,119.304659 C202.909129,119.304659 203.081372,130.057348 201.968971,131.017921 C200.85657,131.978495 183.30934,136.322581 173.312084,131.017921 C173.326438,131.02509 173.362322,125.376344 174.108707,113.634409 Z"/>
    <path stroke="#C59448" stroke-linecap="round" stroke-linejoin="round" stroke-width=".75" d="M177.524855 95.2544803C177.524855 95.2544803 174.797678 109.548387 174.108707 113.634409M199.880528 95.2544803C199.880528 95.2544803 202.916306 115.978495 202.923483 119.311828"/>
    <path fill="#593A24" fill-rule="nonzero" d="M178.701847,64.5806452 C178.371715,63.6057348 175.601478,58.0430108 183.725594,51.9641577 C191.84971,45.8853047 202.880422,51.4910394 202.894776,63.0896057 C202.894776,63.0896057 201.911557,78.4874552 206.124327,81.2043011 C206.124327,81.2043011 192.488443,89.4480287 177.496148,78.8387097 C177.524855,78.8530466 181.21372,71.9641577 178.701847,64.5806452 Z"/>
  </g>
</svg>
