<svg xmlns="http://www.w3.org/2000/svg" height="120" viewBox="0 0 40 48">
  <g fill="none">
    <path fill="#5C37F3" d="M0.8,9.5 C0.8,9.5 1.1,23.1 5.5,30.8 C10.5,39.7 20.1,43.8 20.1,43.8 L20.1,0.9 L0.8,9.5 Z"/>
    <path fill="#5C37F3" d="M39.2,9.5 C39.2,9.5 38.9,23.1 34.5,30.8 C29.5,39.7 19.9,43.8 19.9,43.8 L19.9,0.9 L39.2,9.5 Z"/>
    <path fill="#FCECDB" d="M6.7,30.1 C10.7,37.2 17.9,41.2 20,42.2 L20,2.5 L2.3,10.4 C2.5,13.6 3.3,23.9 6.7,30.1 Z"/>
    <path fill="#E3C190" d="M20,42.2 C22.1,41.2 29.3,37.2 33.3,30.1 C36.7,23.9 37.5,13.6 37.7,10.5 L20,2.5 L20,2.5 L20,42.2 Z"/>
    <path fill="#5C37F3" d="M7.5,29.6 C11.1,36.1 17.6,39.9 20,41.1 L20,3.5 L3.2,11 C3.4,14.6 4.3,24 7.5,29.6 Z"/>
    <path fill="#705AF2" d="M20,41.2 C22.4,40 28.9,36.2 32.5,29.7 C35.7,24.1 36.5,14.6 36.8,11.1 L20,3.5 L20,3.5 L20,41.2 Z"/>
    <ellipse cx="20" cy="46.3" fill="#BDBDBD" opacity=".22" rx="13.9" ry="1.5"/>
  </g>
</svg>
