<svg xmlns="http://www.w3.org/2000/svg" width="150" height="150" viewBox="0 0 150 150">
  <g fill="none" fill-rule="evenodd">
    <path fill="#5C37F3" fill-rule="nonzero" stroke="#5C37F3" d="M67.787372,116.403072 L81.6703072,116.403072 C82.687372,116.403072 83.5518771,117.267577 83.5518771,118.284642 L83.5518771,147.11843 C83.5518771,148.135495 82.687372,149 81.6703072,149 L67.787372,149 C66.7703072,149 65.905802,148.135495 65.905802,147.11843 L65.905802,118.284642 C65.905802,117.216724 66.7194539,116.403072 67.787372,116.403072 Z"/>
    <rect width="17.646" height="25.477" x="65.906" y="118.844" fill="#F5F8FA" fill-rule="nonzero" stroke="#5C37F3" stroke-width=".75"/>
    <circle cx="74.754" cy="146.508" r="1.424" fill="#F5F8FA" fill-rule="nonzero" stroke="#5C37F3" stroke-width=".75"/>
    <path fill="#C5CAE9" fill-rule="nonzero" d="M46.0730375,55.4808874 L102.062457,55.4808874 C103.588055,55.4808874 104.808532,56.7013652 104.808532,58.2269625 L104.808532,92.8580205 C104.808532,94.3836177 103.588055,95.6040956 102.062457,95.6040956 L46.0730375,95.6040956 C44.5474403,95.6040956 43.3269625,94.3836177 43.3269625,92.8580205 L43.3269625,58.2269625 C43.3269625,56.7013652 44.5474403,55.4808874 46.0730375,55.4808874 Z"/>
    <path fill="#5C37F3" fill-rule="nonzero" d="M74.3982935,58.6846416 C65.1430034,58.6846416 57.6167235,66.2109215 57.6167235,75.4662116 C57.6167235,84.7215017 65.1430034,92.2477816 74.3982935,92.2477816 C83.6535836,92.2477816 91.1798635,84.7215017 91.1798635,75.4662116 L91.1798635,75.4662116 C91.1798635,66.2109215 83.6535836,58.6846416 74.3982935,58.6846416 Z M81.2634812,86.247099 C79.9412969,83.9587031 78.6191126,81.7211604 77.2969283,79.4327645 C77.7037543,79.1276451 78.0088737,78.8225256 78.3139932,78.4156997 C80.5515358,79.737884 82.8399317,81.0600683 85.0774744,82.3313993 L85.1283276,82.3313993 C84.162116,83.9078498 82.8399317,85.2808874 81.2634812,86.247099 Z M75.0085324,88.2812287 C75.0085324,88.2303754 75.0085324,88.1795222 75.0085324,88.0778157 C75.0085324,86.1962457 75.0085324,84.2638225 75.0085324,82.3822526 C75.0085324,81.7211604 75.0593857,81.0600683 75.0593857,80.3989761 C75.5170648,80.3481229 75.974744,80.2464164 76.38157,80.0430034 C77.7037543,82.3313993 79.0259386,84.568942 80.3481229,86.8573379 C78.6699659,87.721843 76.8392491,88.1795222 75.0085324,88.2812287 L75.0085324,88.2812287 Z M67.5331058,64.6853242 C68.8552901,66.9737201 70.1774744,69.262116 71.4996587,71.4996587 C71.0928328,71.8047782 70.7877133,72.1098976 70.4825939,72.5167235 C68.194198,71.1945392 65.9566553,69.8723549 63.6682594,68.5501706 C64.634471,67.0245734 65.9566553,65.7023891 67.5331058,64.6853242 L67.5331058,64.6853242 Z M87.1624573,74.8559727 L87.0607509,74.8559727 C85.7385666,74.8051195 84.4672355,74.8559727 83.1450512,74.8559727 L83.1450512,74.8559727 C81.8228669,74.8559727 80.5515358,74.8559727 79.2293515,74.8559727 C79.1784983,74.3982935 79.0767918,73.9914676 78.8733788,73.5337884 C80.6532423,72.5167235 82.4331058,71.4488055 84.2129693,70.4317406 C84.7215017,70.1266212 85.1791809,69.8723549 85.6877133,69.5672355 C86.6030717,71.2453925 87.1116041,73.025256 87.1624573,74.8559727 L87.1624573,74.8559727 Z M72.61843,74.0423208 L72.61843,74.0423208 C72.821843,73.9914676 72.9744027,73.8897611 72.9235495,73.5846416 C72.9235495,73.5337884 72.9235495,73.4320819 72.9235495,73.3812287 L72.9235495,73.3303754 C72.9235495,73.2795222 72.9744027,73.2795222 72.9744027,73.2286689 L73.025256,73.1778157 C73.0761092,73.1269625 73.1269625,73.1269625 73.1269625,73.0761092 L73.2795222,72.9744027 C73.3303754,72.9744027 73.3812287,72.9235495 73.4320819,72.9235495 L73.4829352,72.9235495 C73.6354949,72.8726962 73.8389078,72.9744027 73.9406143,73.0761092 C73.9914676,73.1269625 74.0931741,73.1778157 74.1440273,73.2286689 L74.1440273,73.2286689 L74.1948805,73.2286689 C74.2457338,73.2286689 74.296587,73.2286689 74.296587,73.2286689 L74.3474403,73.2286689 C74.3982935,73.2286689 74.4491468,73.2286689 74.4491468,73.1778157 L74.5,73.1778157 C74.5508532,73.1269625 74.6017065,73.1269625 74.6525597,73.0761092 C74.703413,73.025256 74.7542662,72.9744027 74.8051195,72.9235495 L74.8559727,72.9235495 C74.9068259,72.9235495 74.9576792,72.8726962 75.0085324,72.8726962 L75.0593857,72.8726962 C75.1610922,72.8726962 75.2119454,72.9235495 75.3136519,72.9235495 C75.5679181,72.9744027 75.7204778,73.2286689 75.7204778,73.4829352 C75.6696246,73.6863481 75.8221843,73.8897611 76.0255973,73.9406143 C76.0764505,73.9406143 76.1273038,73.9406143 76.178157,73.9406143 L76.2290102,73.9406143 L76.3307167,73.9406143 C76.38157,73.9406143 76.4324232,73.9914676 76.4832765,73.9914676 C76.6358362,74.0931741 76.7375427,74.2457338 76.7883959,74.3982935 C76.8392491,74.5 76.8901024,74.6525597 76.8392491,74.8051195 L76.7883959,74.8559727 C76.7375427,74.9068259 76.7375427,74.9068259 76.6866894,74.9576792 L76.6358362,75.0085324 C76.6358362,75.0593857 76.5849829,75.0593857 76.5849829,75.1102389 L76.5849829,75.1102389 C76.38157,75.3136519 76.4324232,75.5170648 76.6358362,75.7204778 L76.6866894,75.7713311 L76.6866894,75.7713311 C76.7375427,75.8730375 76.7883959,75.974744 76.8392491,76.1273038 C76.8392491,76.2290102 76.8392491,76.2798635 76.8392491,76.38157 L76.8392491,76.38157 C76.8392491,76.38157 76.8392491,76.4324232 76.7883959,76.4324232 C76.7883959,76.4832765 76.7375427,76.5341297 76.7375427,76.5849829 L76.7375427,76.5849829 C76.6866894,76.6358362 76.6358362,76.6866894 76.6358362,76.6866894 L76.6358362,76.6866894 C76.5341297,76.7883959 76.38157,76.7883959 76.2290102,76.7883959 C75.8730375,76.7883959 75.7204778,76.9409556 75.7713311,77.2969283 C75.8221843,77.652901 75.5679181,77.7037543 75.3136519,77.856314 C75.2627986,77.9071672 75.1610922,77.9071672 75.1102389,77.9071672 L74.9576792,77.9071672 C74.9068259,77.9071672 74.8559727,77.9071672 74.8559727,77.856314 L74.8559727,77.856314 C74.8051195,77.8054608 74.7542662,77.8054608 74.703413,77.7546075 C74.6525597,77.7037543 74.6017065,77.652901 74.5,77.6020478 L74.5,77.6020478 C74.4491468,77.5511945 74.3982935,77.5511945 74.3474403,77.5511945 L74.3474403,77.5511945 C74.296587,77.5511945 74.2457338,77.5511945 74.1948805,77.6020478 L74.1948805,77.6020478 C74.1440273,77.652901 74.0423208,77.7037543 73.9914676,77.7546075 C73.8389078,77.9580205 73.5337884,78.0088737 73.2795222,77.856314 L73.1778157,77.8054608 L73.1269625,77.7546075 L73.0761092,77.7037543 L73.025256,77.652901 C73.025256,77.6020478 72.9744027,77.6020478 72.9744027,77.5511945 C72.9744027,77.5511945 72.9744027,77.5003413 72.9744027,77.5003413 C72.9744027,77.4494881 72.9744027,77.3477816 72.9744027,77.2969283 C72.9744027,77.1952218 72.9744027,77.1443686 72.9235495,77.0426621 C72.9235495,77.0426621 72.9235495,76.9918089 72.8726962,76.9918089 C72.8726962,76.9409556 72.821843,76.9409556 72.7709898,76.8901024 L72.7709898,76.8901024 L72.7201365,76.8901024 L72.7201365,76.8901024 C72.6692833,76.8901024 72.5675768,76.8901024 72.5167235,76.8901024 L72.4658703,76.8901024 C72.4150171,76.8901024 72.3641638,76.8901024 72.3133106,76.8901024 L72.2624573,76.8901024 L72.1607509,76.8392491 C72.1098976,76.7883959 72.0590444,76.7883959 72.0590444,76.7375427 L72.0081911,76.6866894 C71.9573379,76.6358362 71.9573379,76.5341297 71.9064846,76.4832765 C71.8047782,76.2798635 71.8556314,76.0255973 72.0081911,75.8730375 C72.2116041,75.7713311 72.2624573,75.5170648 72.1607509,75.3136519 C72.1098976,75.2627986 72.0590444,75.2119454 72.0081911,75.1610922 C71.8047782,75.0085324 71.7539249,74.7542662 71.9064846,74.5508532 C72.0081911,74.296587 72.1607509,74.0931741 72.4658703,74.0931741 L72.5675768,74.0931741 L72.61843,74.0423208 Z M75.4662116,71.2453925 L75.6187713,71.2962457 C75.5679181,71.2962457 75.5170648,71.2962457 75.4662116,71.2453925 L75.4662116,71.2453925 Z M85.1791809,68.5501706 L85.1283276,68.6010239 L79.6361775,71.8047782 C79.2293515,72.0590444 78.8225256,72.2624573 78.4156997,72.5167235 C78.1105802,72.1098976 77.8054608,71.8047782 77.3986348,71.4996587 C78.6191126,69.465529 79.7887372,67.3805461 80.9583618,65.3464164 C81.0600683,65.0921502 81.212628,64.8887372 81.3651877,64.6853242 C82.8399317,65.7023891 84.162116,67.0245734 85.1791809,68.5501706 L85.1791809,68.5501706 Z M80.2972696,64.1259386 L80.2972696,64.1259386 C78.9750853,66.3634812 77.7037543,68.6010239 76.38157,70.8385666 C76.38157,70.8894198 76.3307167,70.8894198 76.3307167,70.940273 C75.9238908,70.7877133 75.5170648,70.6351536 75.0593857,70.5843003 C75.0593857,69.0587031 75.0593857,67.4822526 75.0593857,65.9566553 L75.0085324,65.9566553 C75.0085324,64.8887372 75.0085324,63.8208191 75.0085324,62.7020478 C75.0085324,62.7020478 75.0085324,62.6511945 75.0085324,62.6511945 C76.8392491,62.8037543 78.6699659,63.2614334 80.2972696,64.1259386 L80.2972696,64.1259386 Z M73.7880546,62.7020478 C73.7880546,64.0242321 73.7880546,65.3972696 73.7880546,66.7194539 C73.7880546,67.990785 73.7880546,69.3129693 73.7880546,70.5843003 C73.3303754,70.6351536 72.9235495,70.7368601 72.4658703,70.940273 C71.0928328,68.7027304 69.8215017,66.4143345 68.4993174,64.1259386 C70.1266212,63.2614334 71.9064846,62.8037543 73.7880546,62.7020478 Z M69.8723549,73.5337884 C69.7197952,73.9406143 69.5672355,74.3982935 69.5163823,74.8559727 L69.5163823,74.8559727 C68.3976109,74.8559727 67.2279863,74.8559727 66.0583618,74.9068259 C64.5836177,74.9068259 63.1088737,74.9068259 61.6849829,74.9068259 L61.6341297,74.9068259 C61.7358362,73.0761092 62.1935154,71.2453925 63.0580205,69.6180887 C65.3464164,70.8894198 67.583959,72.2116041 69.8723549,73.5337884 L69.8723549,73.5337884 Z M61.6341297,76.0764505 L61.6341297,76.0764505 C63.4648464,76.0764505 65.2955631,76.0764505 67.0754266,76.0764505 C67.8890785,76.0764505 68.7027304,76.1273038 69.5163823,76.1273038 C69.5672355,76.5849829 69.668942,76.9918089 69.8723549,77.4494881 C69.6180887,77.6020478 69.3638225,77.7546075 69.1095563,77.9580205 C67.1262799,79.0767918 65.1430034,80.1955631 63.2105802,81.3651877 L63.0580205,81.3651877 C62.1935154,79.737884 61.6849829,77.9071672 61.6341297,76.0764505 L61.6341297,76.0764505 Z M63.6682594,82.3822526 L63.7699659,82.2805461 C65.1430034,81.3651877 66.6686007,80.6532423 68.0924915,79.737884 C68.6518771,79.3819113 69.262116,79.0259386 69.8215017,78.6699659 C69.9740614,78.6191126 70.1266212,78.5174061 70.2791809,78.4665529 C70.3300341,78.4156997 70.3808874,78.3648464 70.4317406,78.3648464 C70.7368601,78.7716724 71.0419795,79.0767918 71.4488055,79.3819113 L71.4488055,79.3819113 C71.347099,79.534471 71.2962457,79.6870307 71.2453925,79.8395904 C70.1266212,81.7211604 69.0078498,83.6027304 67.8890785,85.5351536 C67.787372,85.7385666 67.6348123,85.9928328 67.4822526,86.1453925 C65.905802,85.1791809 64.634471,83.9078498 63.6682594,82.3822526 L63.6682594,82.3822526 Z M68.4484642,86.8064846 L68.5501706,86.6030717 L72.0081911,80.7040956 C72.0590444,80.6532423 72.0590444,80.6023891 72.1098976,80.5006826 C72.2116041,80.3481229 72.3641638,80.1447099 72.4658703,79.9921502 C72.8726962,80.1447099 73.3303754,80.2972696 73.7880546,80.3481229 C73.7880546,80.3989761 73.7880546,80.4498294 73.7880546,80.4498294 C73.7880546,80.8566553 73.7880546,81.2634812 73.8389078,81.7211604 C73.8389078,83.8569966 73.7880546,85.9928328 73.8389078,88.0778157 C73.8389078,88.1286689 73.8389078,88.1795222 73.8389078,88.2303754 C71.9573379,88.1795222 70.1266212,87.6709898 68.4484642,86.8064846 L68.4484642,86.8064846 Z M78.9242321,77.4494881 C79.1276451,77.0426621 79.2293515,76.5849829 79.2802048,76.1273038 C79.4836177,76.1273038 79.737884,76.1273038 79.9412969,76.1273038 C82.2805461,76.1273038 84.6706485,76.1273038 87.0098976,76.1273038 L87.1624573,76.1273038 C87.0607509,77.9580205 86.6030717,79.737884 85.7385666,81.3651877 C83.5010239,80.0430034 81.212628,78.7716724 78.9242321,77.4494881 L78.9242321,77.4494881 Z"/>
    <path fill="#5C37F3" fill-rule="nonzero" d="M74.3982935,76.4832765 C74.9576792,76.4832765 75.4153584,75.974744 75.3645051,75.4153584 C75.3645051,74.8559727 74.8559727,74.3982935 74.296587,74.4491468 C73.7372014,74.4491468 73.2795222,74.9576792 73.3303754,75.5170648 C73.3812287,76.0764505 73.8389078,76.5341297 74.3982935,76.4832765 C74.3982935,76.5341297 74.3982935,76.5341297 74.3982935,76.4832765 Z"/>
    <polygon fill="#EAB76B" fill-rule="nonzero" points="129.472 22.731 126.065 21.511 126.065 26.596 129.472 27.918"/>
    <polygon fill="#EAB76B" fill-rule="nonzero" points="126.421 21.155 129.828 22.325 133.134 21.155 129.777 20.138"/>
    <polygon fill="#EAB76B" fill-rule="nonzero" points="130.083 22.731 133.49 21.511 133.49 26.596 130.083 27.918"/>
    <polygon fill="#EAB76B" fill-rule="nonzero" points="125.302 15.612 121.895 14.391 121.895 19.477 125.302 20.799"/>
    <polygon fill="#EAB76B" fill-rule="nonzero" points="122.251 14.035 125.658 15.205 128.964 14.035 125.608 13.018"/>
    <polygon fill="#EAB76B" fill-rule="nonzero" points="125.913 15.612 129.371 14.391 129.371 19.477 125.913 20.799"/>
    <polygon fill="#EAB76B" fill-rule="nonzero" points="133.388 15.612 129.981 14.391 129.981 19.477 133.388 20.799"/>
    <polygon fill="#EAB76B" fill-rule="nonzero" points="130.337 14.035 133.744 15.205 137.049 14.035 133.693 13.018"/>
    <polygon fill="#EAB76B" fill-rule="nonzero" points="133.998 15.612 137.405 14.391 137.405 19.477 133.998 20.799"/>
    <polygon fill="#EAB76B" fill-rule="nonzero" points="137.609 8.492 134.202 7.272 134.202 12.357 137.609 13.68"/>
    <polygon fill="#EAB76B" fill-rule="nonzero" points="134.558 6.916 137.965 8.086 141.27 6.916 137.914 5.899"/>
    <polygon fill="#EAB76B" fill-rule="nonzero" points="138.27 8.492 141.677 7.272 141.677 12.357 138.27 13.68"/>
    <polygon fill="#EAB76B" fill-rule="nonzero" points="145.695 8.492 142.287 7.272 142.287 12.357 145.695 13.68"/>
    <polygon fill="#EAB76B" fill-rule="nonzero" points="142.643 6.916 146.051 8.086 149.356 6.916 146 5.899"/>
    <polygon fill="#EAB76B" fill-rule="nonzero" points="146.305 8.492 149.712 7.272 149.712 12.357 146.305 13.68"/>
    <path fill="#5C37F3" fill-rule="nonzero" d="M138.931058 22.7822526C139.43959 23.087372 140.049829 23.290785 140.660068 23.290785 141.62628 23.290785 142.185666 22.7822526 142.185666 22.0194539 142.185666 21.2566553 141.77884 20.9515358 140.761775 20.5447099 139.541297 20.137884 138.778498 19.4767918 138.778498 18.459727 138.778498 17.2901024 139.74471 16.4255973 141.168601 16.4255973 141.727986 16.4255973 142.338225 16.5273038 142.846758 16.78157L142.592491 17.5443686C142.134812 17.2901024 141.677133 17.1883959 141.168601 17.1883959 140.151536 17.1883959 139.74471 17.7986348 139.74471 18.3071672 139.74471 19.0191126 140.202389 19.3242321 141.219454 19.731058 142.490785 20.2395904 143.101024 20.7989761 143.101024 21.9177474 143.101024 23.0365188 142.236519 24.0535836 140.507509 24.0535836 139.846416 24.0535836 139.185324 23.9010239 138.625939 23.5959044L138.931058 22.7822526zM144.524915 22.8331058C144.982594 23.1382253 145.54198 23.290785 146.101365 23.290785 147.321843 23.290785 147.728669 22.4771331 147.728669 21.9177474 147.728669 20.9006826 146.813311 20.4938567 145.897952 20.4938567L145.338567 20.4938567 145.338567 19.7819113 145.897952 19.7819113C146.609898 19.7819113 147.474403 19.4259386 147.474403 18.5614334 147.474403 18.0020478 147.11843 17.4935154 146.203072 17.4935154 145.694539 17.4935154 145.186007 17.6969283 144.779181 17.9511945L144.524915 17.2392491C145.0843 16.8832765 145.745392 16.6798635 146.406485 16.6798635 147.830375 16.6798635 148.440614 17.4935154 148.440614 18.3580205 148.440614 19.1716724 147.881229 19.8327645 147.11843 20.0361775L147.11843 20.0361775C148.033788 20.1887372 148.694881 20.9515358 148.694881 21.8668942 148.694881 22.9856655 147.779522 24.0027304 146.101365 24.0027304 145.440273 24.0027304 144.830034 23.8501706 144.270648 23.494198L144.524915 22.8331058z"/>
    <path stroke="#5F46F0" stroke-linecap="round" stroke-linejoin="round" stroke-width=".75" d="M71.2453925,27.4607509 C70.6351536,26.9522184 70.1774744,26.2911263 69.8723549,25.5791809 C69.7197952,25.9351536 69.668942,26.2911263 69.7197952,26.647099 C69.8215017,27.1047782 69.2112628,26.9522184 69.0078498,26.240273 C68.8044369,25.5283276 69.1604096,24.0535836 69.1604096,24.0535836 C68.8044369,23.6976109 68.6010239,23.290785 68.4484642,22.8331058 C68.3467577,22.1720137 67.3805461,21.6634812 67.6348123,21.205802 C67.8890785,20.7481229 69.1604096,21.7143345 69.1604096,21.7143345 C70.0249147,21.612628 70.8894198,21.9686007 71.3979522,22.6805461 C72.5167235,23.8501706 73.1269625,25.9351536 73.3812287,26.0877133 C73.6354949,26.240273 74.7542662,26.2911263 75.4662116,27.3590444 C75.4662116,27.3590444 73.9914676,27.5116041 74.0423208,27.6641638 C74.296587,27.9692833 74.6525597,28.2235495 75.0593857,28.3761092 C75.3645051,28.5286689 75.6187713,28.7320819 75.8221843,28.9863481"/>
    <path stroke="#5F46F0" stroke-linecap="round" stroke-linejoin="round" stroke-width=".25" d="M69.3638225,22.5279863 C69.3638225,22.5279863 69.6180887,22.5279863 69.7197952,22.9348123"/>
    <path fill="#68C7CA" fill-rule="nonzero" d="M95.1972696,26.443686 C95.1972696,26.443686 86.3488055,18.8156997 100.994539,7.67883959 C111.317747,-0.203412969 109.690444,6.00068259 108.419113,14.3914676 C106.995222,23.7484642 102.164164,30.9696246 95.1972696,26.443686 Z"/>
    <path fill="#34AAAF" fill-rule="nonzero" d="M104.3,10.4757679 C104.3,10.4757679 97.8924915,20.137884 95.1464164,30.4102389 L93.0614334,29.4440273 C93.0614334,29.4440273 102.926962,11.8488055 104.3,10.4757679"/>
    <path fill="#B8BCCE" fill-rule="nonzero" d="M56.3453925,18.4088737 C51.005802,18.4088737 46.6832765,19.6293515 46.6832765,21.1040956 L46.7341297,24.9180887 L46.7341297,24.9180887 C47.1409556,26.3419795 51.3109215,27.4098976 56.3453925,27.4098976 C61.3798635,27.4098976 65.5498294,26.2911263 65.9566553,24.9180887 L65.9566553,24.9180887 L66.0075085,21.1040956 C66.0075085,19.6293515 61.6341297,18.4088737 56.3453925,18.4088737 Z"/>
    <ellipse cx="56.295" cy="20.85" fill="#5F46F0" fill-rule="nonzero" rx="8.899" ry="2.288"/>
    <path stroke="#F5F8FA" stroke-linecap="round" stroke-linejoin="round" stroke-width=".75" d="M47.4460751,22.3754266 C47.4460751,22.3754266 50.5481229,24.2061433 56.9556314,23.9518771 C63.3631399,23.6976109 65.3464164,22.3754266 65.3464164,22.3754266"/>
    <path fill="#B8BCCE" fill-rule="nonzero" d="M56.243686,12.7641638 C50.9040956,12.7641638 46.58157,13.9846416 46.58157,15.4593857 L46.6324232,19.2733788 L46.6324232,19.2733788 C47.0392491,20.6972696 51.209215,21.7651877 56.243686,21.7651877 C61.278157,21.7651877 65.4481229,20.6464164 65.8549488,19.2733788 L65.8549488,19.2733788 L65.905802,15.4593857 C65.905802,13.9337884 61.5832765,12.7641638 56.243686,12.7641638 Z"/>
    <ellipse cx="56.244" cy="15.205" fill="#5F46F0" fill-rule="nonzero" rx="8.899" ry="2.288"/>
    <path stroke="#F5F8FA" stroke-linecap="round" stroke-linejoin="round" stroke-width=".75" d="M47.3443686,16.6798635 C47.3443686,16.6798635 50.4464164,18.5105802 56.8539249,18.256314 C63.2614334,18.0020478 65.2447099,16.6798635 65.2447099,16.6798635"/>
    <path fill="#B8BCCE" fill-rule="nonzero" d="M56.1928328,7.01774744 C50.8532423,7.01774744 46.5307167,8.23822526 46.5307167,9.71296928 L46.58157,13.5269625 L46.58157,13.5269625 C46.9883959,14.9508532 51.1583618,16.0187713 56.1928328,16.0187713 C61.2273038,16.0187713 65.3972696,14.9 65.8040956,13.5269625 L65.8040956,13.5269625 L65.8549488,9.71296928 C65.8549488,8.23822526 61.5324232,7.01774744 56.1928328,7.01774744 Z"/>
    <ellipse cx="56.193" cy="9.51" fill="#5F46F0" fill-rule="nonzero" rx="8.899" ry="2.288"/>
    <path stroke="#F5F8FA" stroke-linecap="round" stroke-linejoin="round" stroke-width=".75" d="M47.2935154,10.9843003 C47.2935154,10.9843003 50.3955631,12.8150171 56.8030717,12.5607509 C63.2105802,12.3064846 65.1938567,10.9843003 65.1938567,10.9843003"/>
    <path fill="#B8BCCE" fill-rule="nonzero" d="M56.1419795,1.37303754 C50.8023891,1.37303754 46.4798635,2.59351536 46.4798635,4.06825939 L46.5307167,7.88225256 L46.5307167,7.88225256 C46.9375427,9.30614334 51.1075085,10.3740614 56.1419795,10.3740614 C61.1764505,10.3740614 65.3464164,9.2552901 65.7532423,7.88225256 L65.7532423,7.88225256 L65.8040956,4.06825939 C65.8040956,2.59351536 61.48157,1.37303754 56.1419795,1.37303754 Z"/>
    <ellipse cx="56.142" cy="3.814" fill="#F5F8FA" fill-rule="nonzero" rx="8.899" ry="2.288"/>
    <path stroke="#F5F8FA" stroke-linecap="round" stroke-linejoin="round" stroke-width=".75" d="M47.2426621,5.33959044 C47.2426621,5.33959044 50.3447099,7.17030717 56.7522184,6.91604096 C63.159727,6.66177474 65.1430034,5.33959044 65.1430034,5.33959044"/>
    <path fill="#68C7CA" fill-rule="nonzero" d="M57.4133106,30.8679181 L57.4641638,30.7153584 C57.7692833,30.003413 58.0744027,29.3423208 58.3795222,28.6303754 C58.4812287,28.2744027 58.8880546,28.0709898 59.2948805,28.1726962 C59.2948805,28.1726962 59.2948805,28.1726962 59.2948805,28.1726962 C59.6,28.2235495 59.7525597,28.325256 59.7525597,28.7320819 C59.7525597,29.5457338 59.7525597,30.3593857 59.7525597,31.1730375 L59.7525597,31.274744 L59.0914676,31.274744 L59.0914676,28.6303754 L59.0914676,28.6303754 L59.0406143,28.7320819 L58.0235495,30.9696246 C57.9726962,31.1221843 57.8201365,31.274744 57.6675768,31.3255973 C57.5150171,31.3764505 57.3116041,31.3764505 57.1590444,31.3255973 C57.0064846,31.274744 56.8539249,31.1730375 56.8030717,30.9696246 L56.243686,29.7491468 L55.7860068,28.7320819 C55.7860068,28.6812287 55.7351536,28.6812287 55.7351536,28.6812287 L55.7351536,31.3255973 L55.1249147,31.3255973 C55.0740614,31.3255973 55.0740614,31.3255973 55.0740614,31.274744 C55.0740614,31.2238908 55.0740614,31.2238908 55.0740614,31.2238908 C55.0740614,30.4102389 55.0740614,29.596587 55.0740614,28.7829352 C55.0740614,28.3761092 55.1757679,28.2744027 55.5317406,28.2235495 C55.6334471,28.2235495 55.7860068,28.2235495 55.9385666,28.2235495 C56.1928328,28.2235495 56.3453925,28.3761092 56.447099,28.6303754 L57.4133106,30.8170648 L57.4133106,30.8679181 Z"/>
    <path fill="#EAB76B" fill-rule="nonzero" d="M70.4825939,31.2238908 L71.143686,31.7832765 L70.4317406,31.7832765 C70.3808874,31.7832765 70.3808874,31.7832765 70.3300341,31.7324232 C70.1774744,31.6307167 70.0249147,31.478157 69.8723549,31.3255973 C69.8215017,31.274744 69.7706485,31.274744 69.7706485,31.274744 C69.3129693,31.274744 68.9061433,31.274744 68.4484642,31.274744 C68.2450512,31.274744 68.0416382,31.2238908 67.8382253,31.1221843 C67.6348123,31.0204778 67.4822526,30.8170648 67.4822526,30.5627986 C67.4822526,30.0542662 67.4822526,29.4948805 67.4822526,28.9863481 C67.4313993,28.6812287 67.6348123,28.4269625 67.9399317,28.325256 C68.0924915,28.2744027 68.2959044,28.2235495 68.4993174,28.2235495 C68.9569966,28.2235495 69.4146758,28.2235495 69.9232082,28.2235495 C70.1266212,28.2235495 70.3300341,28.2744027 70.5334471,28.3761092 C70.7368601,28.4778157 70.8894198,28.7320819 70.8894198,28.9354949 C70.8894198,29.4948805 70.8894198,30.003413 70.8894198,30.5627986 C70.8894198,30.8170648 70.7368601,31.0713311 70.4825939,31.2238908 L70.4825939,31.2238908 L70.4825939,31.2238908 Z M68.8552901,30.4102389 L69.5163823,30.4102389 C69.5672355,30.4102389 69.6180887,30.4102389 69.6180887,30.4610922 C69.7706485,30.5627986 69.8723549,30.6645051 70.0249147,30.8170648 C70.0757679,30.8679181 70.1266212,30.8679181 70.1774744,30.8170648 C70.2791809,30.7662116 70.2791809,30.6645051 70.2791809,30.5627986 C70.2791809,30.0542662 70.2791809,29.596587 70.2791809,29.0880546 C70.2791809,28.8846416 70.1774744,28.6812287 69.9740614,28.6812287 C69.9740614,28.6812287 69.9232082,28.6812287 69.9232082,28.6812287 C69.5163823,28.6812287 69.0587031,28.6812287 68.6518771,28.6812287 C68.4484642,28.6812287 68.2959044,28.8337884 68.2450512,29.0372014 C68.2450512,29.0372014 68.2450512,29.0880546 68.2450512,29.0880546 C68.2450512,29.5457338 68.2450512,30.0542662 68.2450512,30.5119454 C68.2450512,30.7153584 68.3467577,30.8679181 68.5501706,30.9187713 C68.5501706,30.9187713 68.5501706,30.9187713 68.5501706,30.9187713 C68.8044369,30.9187713 69.0587031,30.9187713 69.3129693,30.9187713 L69.3638225,30.9187713 L68.8552901,30.4102389 Z"/>
    <path fill="#68C7CA" fill-rule="nonzero" d="M60.3627986,32.2918089 L60.3627986,31.8341297 L62.4477816,31.8341297 C62.5494881,31.8341297 62.6511945,31.8341297 62.752901,31.7832765 C62.8546075,31.7324232 62.956314,31.6307167 62.9054608,31.5290102 C62.9054608,31.478157 62.9054608,31.3764505 62.9054608,31.3255973 L62.8037543,31.3255973 C62.2952218,31.3255973 61.7866894,31.3255973 61.3290102,31.3255973 C61.074744,31.3255973 60.8713311,31.274744 60.6679181,31.1221843 C60.4645051,31.0204778 60.3627986,30.8170648 60.4136519,30.6136519 C60.4136519,30.1559727 60.4136519,29.6982935 60.4136519,29.2914676 C60.4136519,29.2406143 60.4136519,29.1897611 60.5153584,29.1897611 L60.9730375,29.1897611 C61.0238908,29.1897611 61.074744,29.2406143 61.074744,29.2914676 C61.074744,29.7491468 61.074744,30.1559727 61.074744,30.6136519 C61.074744,30.8170648 61.1255973,30.9696246 61.4307167,30.9696246 C61.7358362,30.9696246 62.0918089,30.9696246 62.3969283,30.9696246 L62.956314,30.9696246 L62.956314,29.2406143 L63.6682594,29.2406143 C63.6682594,29.2914676 63.6682594,29.2914676 63.6682594,29.3423208 C63.6682594,30.1051195 63.6682594,30.8679181 63.6682594,31.5798635 C63.6682594,31.8341297 63.5156997,32.0883959 63.3122867,32.1901024 C63.1088737,32.2918089 62.8546075,32.3426621 62.6511945,32.3426621 C61.9392491,32.3426621 61.2273038,32.3426621 60.5153584,32.3426621 L60.3627986,32.2918089 Z"/>
    <path fill="#EAB76B" fill-rule="nonzero" d="M65.9566553 28.2235495L66.9737201 28.2235495C67.0754266 28.2235495 67.0754266 28.2235495 67.0754266 28.325256 67.0754266 28.3761092 67.0754266 28.4778157 67.0754266 28.5286689 67.0754266 28.6303754 67.0245734 28.6303754 66.9737201 28.6303754L65.1938567 28.6303754C65.0921502 28.6303754 64.9904437 28.6303754 64.8887372 28.6812287 64.7870307 28.6812287 64.6853242 28.7829352 64.6853242 28.9354949 64.6853242 28.9354949 64.6853242 28.9354949 64.6853242 28.9354949 64.6853242 29.0372014 64.6853242 29.1389078 64.6853242 29.2406143 64.6853242 29.3931741 64.7870307 29.5457338 64.9395904 29.5457338 64.9904437 29.5457338 65.0921502 29.5457338 65.1430034 29.5457338 65.4481229 29.5457338 65.7023891 29.5457338 66.0075085 29.5457338 66.2617747 29.5457338 66.4651877 29.596587 66.6686007 29.7491468 66.8211604 29.8508532 66.9228669 30.003413 66.9228669 30.2068259 66.9228669 30.3593857 66.9228669 30.5119454 66.9228669 30.6645051 66.8720137 30.8679181 66.7703072 31.0204778 66.6177474 31.0713311 66.4143345 31.1730375 66.1600683 31.274744 65.905802 31.274744L64.0750853 31.274744C64.0242321 31.274744 63.9733788 31.2238908 63.9733788 31.1730375 63.9733788 31.0713311 63.9733788 31.0204778 63.9733788 30.9187713 63.9733788 30.8679181 63.9733788 30.8170648 64.0750853 30.8170648L65.8040956 30.8170648C65.905802 30.8170648 66.0075085 30.8170648 66.0583618 30.7662116 66.2109215 30.7153584 66.2617747 30.6136519 66.2617747 30.4610922 66.2617747 30.3593857 66.2617747 30.3085324 66.2617747 30.2068259 66.2617747 30.0542662 66.2109215 29.9525597 66.0583618 29.9017065 65.9566553 29.8508532 65.8549488 29.8508532 65.7532423 29.8508532 65.4989761 29.8508532 65.1938567 29.8508532 64.9395904 29.8508532 64.6853242 29.8508532 64.4819113 29.8 64.2276451 29.6474403 64.0242321 29.5457338 63.9225256 29.3423208 63.9225256 29.1389078 63.9225256 28.9863481 63.9225256 28.8337884 63.9225256 28.6812287 63.9225256 28.5286689 64.0242321 28.3761092 64.1767918 28.2744027 64.3293515 28.1726962 64.5327645 28.121843 64.7361775 28.121843L65.9566553 28.121843 65.9566553 28.2235495zM71.347099 29.4948805C71.347099 29.0880546 71.347099 28.7320819 71.347099 28.3761092 71.347099 28.325256 71.347099 28.2744027 71.4488055 28.2744027 71.5505119 28.2744027 71.7539249 28.2744027 71.9064846 28.2744027 72.0590444 28.2744027 72.0081911 28.2744027 72.0081911 28.3761092 72.0081911 29.0880546 72.0081911 29.7491468 72.0081911 30.4610922 72.0081911 30.7662116 72.0590444 30.9187713 72.5167235 30.9187713 73.0761092 30.9187713 73.6354949 30.9187713 74.1948805 30.9187713 74.3982935 30.9187713 74.3474403 30.8679181 74.3474403 31.0713311 74.3474403 31.1730375 74.3474403 31.274744 74.296587 31.3255973 74.2457338 31.3764505 74.1440273 31.3255973 74.0423208 31.3255973L72.61843 31.3255973C72.3641638 31.3255973 72.1098976 31.274744 71.8556314 31.2238908 71.6013652 31.1730375 71.3979522 30.9696246 71.347099 30.7153584 71.347099 30.6645051 71.347099 30.5627986 71.347099 30.5119454 71.347099 30.1559727 71.347099 29.8 71.347099 29.4948805zM74.6525597 30.8679181C74.6525597 30.6136519 74.8051195 30.3593857 75.1102389 30.3593857 75.1102389 30.3593857 75.1610922 30.3593857 75.1610922 30.3593857 75.4153584 30.3593857 75.6696246 30.5627986 75.6696246 30.8170648 75.6696246 30.8170648 75.6696246 30.8679181 75.6696246 30.8679181 75.7713311 31.1221843 75.6187713 31.4273038 75.3136519 31.5290102 75.0085324 31.6307167 74.7542662 31.478157 74.6525597 31.1730375 74.6525597 31.0713311 74.6525597 30.9696246 74.6525597 30.8679181L74.6525597 30.8679181zM74.7542662 30.8679181C74.7542662 31.0713311 74.9068259 31.274744 75.1102389 31.274744 75.1102389 31.274744 75.1102389 31.274744 75.1610922 31.274744 75.3645051 31.274744 75.5679181 31.1221843 75.5679181 30.8679181 75.5679181 30.6645051 75.4153584 30.4610922 75.1610922 30.4610922 74.9576792 30.4610922 74.7542662 30.6645051 74.7542662 30.8679181 74.7542662 30.8679181 74.7542662 30.8679181 74.7542662 30.8679181z"/>
    <path fill="#EAB76B" fill-rule="nonzero" d="M75.5068259,31.1786121 L75.8068259,31.5119454 L75.8068259,31.5119454 C75.7068259,31.5119454 75.7068259,31.4286121 75.6068259,31.4286121 C75.5068259,31.3452787 75.5068259,31.2619454 75.5068259,31.1786121 C75.4068259,31.1786121 75.3068259,31.0952787 75.2068259,31.0952787 C75.2068259,31.0952787 75.1068259,31.1786121 75.1068259,31.1786121 C75.1068259,31.1786121 75.1068259,31.3452787 75.1068259,31.3452787 C75.1068259,31.3452787 75.1068259,31.4286121 75.0068259,31.4286121 C74.9068259,31.4286121 74.9068259,31.4286121 74.9068259,31.3452787 C74.9068259,31.0952787 74.9068259,30.8452787 74.9068259,30.5952787 C74.9068259,30.5952787 75.0068259,30.5119454 75.0068259,30.5119454 C75.1068259,30.5119454 75.2068259,30.5119454 75.4068259,30.5119454 C75.6068259,30.5119454 75.7068259,30.5952787 75.7068259,30.6786121 C75.7068259,30.7619454 75.7068259,30.8452787 75.5068259,30.9286121 L75.5068259,31.1786121 Z M75.3068259,30.7619454 C75.2068259,30.7619454 75.1068259,30.7619454 75.1068259,30.9286121 C75.1068259,31.0952787 75.2068259,31.0952787 75.3068259,31.0952787 C75.4068259,31.0952787 75.6068259,31.0952787 75.6068259,30.9286121 C75.6068259,30.7619454 75.6068259,30.7619454 75.3068259,30.7619454 L75.3068259,30.7619454 Z"/>
    <path fill="#B8BCCE" fill-rule="nonzero" d="M9.96723549,17.0358362 C4.62764505,17.0358362 0.305119454,18.256314 0.305119454,19.731058 L0.355972696,23.5450512 L0.355972696,23.5450512 C0.762798635,24.968942 4.93276451,26.0368601 9.96723549,26.0368601 C15.0017065,26.0368601 19.1716724,24.9180887 19.5784983,23.5450512 L19.5784983,23.5450512 L19.6293515,19.731058 C19.6293515,18.2054608 15.3068259,17.0358362 9.96723549,17.0358362 Z"/>
    <ellipse cx="9.967" cy="19.477" fill="#5F46F0" fill-rule="nonzero" rx="8.899" ry="2.288"/>
    <path stroke="#F5F8FA" stroke-linecap="round" stroke-linejoin="round" stroke-width=".75" d="M1.06791809,21.0023891 C1.06791809,21.0023891 4.16996587,22.8331058 10.5774744,22.5788396 C16.9849829,22.3245734 18.9682594,21.0023891 18.9682594,21.0023891"/>
    <path fill="#B8BCCE" fill-rule="nonzero" d="M9.91638225,11.340273 C4.57679181,11.340273 0.254266212,12.5607509 0.254266212,14.0354949 L0.305119454,17.8494881 L0.305119454,17.8494881 C0.711945392,19.2733788 4.88191126,20.3412969 9.91638225,20.3412969 C14.9508532,20.3412969 19.1208191,19.2225256 19.5276451,17.8494881 L19.5276451,17.8494881 L19.5784983,14.0354949 C19.5784983,12.5607509 15.2559727,11.340273 9.91638225,11.340273 Z"/>
    <ellipse cx="9.866" cy="13.832" fill="#5F46F0" fill-rule="nonzero" rx="8.899" ry="2.288"/>
    <path stroke="#F5F8FA" stroke-linecap="round" stroke-linejoin="round" stroke-width=".75" d="M1.01706485,15.3068259 C1.01706485,15.3068259 4.11911263,17.1375427 10.5266212,16.8832765 C16.9341297,16.6290102 18.9174061,15.3068259 18.9174061,15.3068259"/>
    <path fill="#B8BCCE" fill-rule="nonzero" d="M9.81467577,5.6447099 C4.47508532,5.6447099 0.152559727,6.86518771 0.152559727,8.33993174 L0.203412969,12.1539249 L0.203412969,12.1539249 C0.610238908,13.5778157 4.78020478,14.6457338 9.81467577,14.6457338 C14.8491468,14.6457338 19.0191126,13.5269625 19.4259386,12.1539249 L19.4259386,12.1539249 L19.4767918,8.33993174 C19.4767918,6.86518771 15.1542662,5.6447099 9.81467577,5.6447099 Z"/>
    <ellipse cx="9.815" cy="8.086" fill="#5F46F0" fill-rule="nonzero" rx="8.899" ry="2.288"/>
    <path stroke="#F5F8FA" stroke-linecap="round" stroke-linejoin="round" stroke-width=".75" d="M0.915358362,9.6112628 C0.915358362,9.6112628 4.01740614,11.4419795 10.4249147,11.1877133 C16.8324232,10.9334471 18.8156997,9.6112628 18.8156997,9.6112628"/>
    <path fill="#B8BCCE" fill-rule="nonzero" d="M9.76382253,0 C4.42423208,0 0.101706485,1.22047782 0.101706485,2.69522184 L0.152559727,6.50921502 L0.152559727,6.50921502 C0.559385666,7.9331058 4.72935154,9.00102389 9.76382253,9.00102389 C14.7982935,9.00102389 18.9682594,7.88225256 19.3750853,6.50921502 L19.3750853,6.50921502 L19.4259386,2.69522184 C19.4259386,1.16962457 15.103413,0 9.76382253,0 Z"/>
    <ellipse cx="9.764" cy="2.441" fill="#F5F8FA" fill-rule="nonzero" rx="8.899" ry="2.288"/>
    <path stroke="#F5F8FA" stroke-linecap="round" stroke-linejoin="round" stroke-width=".75" d="M0.864505119,3.9665529 C0.864505119,3.9665529 3.9665529,5.79726962 10.3740614,5.54300341 C16.78157,5.2887372 18.7648464,3.9665529 18.7648464,3.9665529"/>
    <path fill="#B8BCCE" fill-rule="nonzero" d="M19.6293515 28.2235495C19.6293515 28.2235495 17.7477816 29.7491468 17.9003413 30.0542662 18.052901 30.3593857 20.3921502 28.7320819 20.3921502 28.7320819M23.6976109 28.2235495C23.6976109 28.2235495 25.5791809 29.7491468 25.4266212 30.0542662 25.2740614 30.3593857 22.9348123 28.7320819 22.9348123 28.7320819"/>
    <path fill="#8383DB" fill-rule="nonzero" d="M19.0699659,20.3412969 C19.0699659,20.3412969 17.1883959,19.2733788 16.6290102,19.5784983 C16.0696246,19.8836177 13.6286689,22.5788396 13.9337884,23.5450512 C14.2389078,24.5112628 16.4764505,27.6133106 17.4426621,27.7658703 C18.4088737,27.91843 18.8156997,27.4607509 19.4259386,26.6979522 C19.4259386,26.6979522 19.2733788,28.0201365 19.6293515,28.3761092 C19.9853242,28.7320819 20.2395904,28.8846416 20.2395904,30.003413 C20.2395904,31.1221843 21.3075085,32.7494881 22.8331058,32.4952218 C24.3587031,32.2409556 24.2569966,31.0713311 24.2569966,31.0713311 L23.7993174,30.6645051 C23.7993174,30.6645051 23.290785,31.0713311 22.9348123,30.1559727 C22.5788396,29.2406143 23.494198,28.6303754 23.8501706,28.0201365 C24.0535836,27.6133106 24.0535836,27.1047782 23.8501706,26.6979522 C23.8501706,26.6979522 24.7146758,27.91843 25.5283276,27.7658703 C26.3419795,27.6133106 29.4440273,24.968942 29.3423208,23.290785 C29.2406143,21.612628 27.1047782,19.4259386 26.3419795,19.5276451 C25.5791809,19.6802048 24.8163823,19.9853242 24.1044369,20.2904437 C22.4771331,19.6293515 20.6464164,19.6293515 19.0699659,20.3412969 Z"/>
    <path stroke="#5F46F0" stroke-linecap="round" stroke-linejoin="round" stroke-width=".75" d="M17.9003413 21.4600683L18.6631399 22.4771331C18.6631399 22.4771331 18.1546075 23.7484642 18.459727 24.3587031 18.7648464 24.765529 18.8665529 25.2232082 18.8156997 25.7317406 18.7139932 26.1385666 19.4259386 26.7488055 19.4259386 26.7488055M25.4266212 21.4600683L24.6638225 22.4771331C24.6638225 22.4771331 25.1723549 23.7484642 24.8672355 24.3587031 24.562116 24.765529 24.4604096 25.2232082 24.5112628 25.7317406 24.6129693 26.1385666 23.9010239 26.7488055 23.9010239 26.7488055M20.3921502 26.5962457C21.205802 26.240273 22.0703072 26.240273 22.883959 26.5962457"/>
    <ellipse cx="19.629" cy="24.41" fill="#5F46F0" fill-rule="nonzero" rx="1" ry="1"/>
    <ellipse cx="23.748" cy="24.41" fill="#5F46F0" fill-rule="nonzero" rx="1" ry="1"/>
    <path stroke="#B8BCCE" d="M41.8522184,49.2767918 L29.5457338,40.1232082"/>
    <polygon fill="#B8BCCE" fill-rule="nonzero" points="42.31 48.005 43.327 50.345 40.784 50.04"/>
    <polygon fill="#B8BCCE" fill-rule="nonzero" points="30.563 39.31 28.071 39.004 29.088 41.344"/>
    <path stroke="#B8BCCE" d="M62.3969283,36.9194539 L64.6853242,45.9204778"/>
    <polygon fill="#B8BCCE" fill-rule="nonzero" points="61.278 37.581 61.939 35.14 63.719 36.97"/>
    <polygon fill="#B8BCCE" fill-rule="nonzero" points="63.363 45.87 65.143 47.7 65.804 45.259"/>
    <path stroke="#B8BCCE" d="M82.7382253,47.5477816 L91.5358362,33.8174061"/>
    <polygon fill="#B8BCCE" fill-rule="nonzero" points="84.01 47.904 81.721 49.073 81.874 46.531"/>
    <polygon fill="#B8BCCE" fill-rule="nonzero" points="92.4 34.834 92.553 32.292 90.265 33.461"/>
    <path stroke="#B8BCCE" d="M106.283276,49.7853242 L127.997611,33.5122867"/>
    <polygon fill="#B8BCCE" fill-rule="nonzero" points="107.3 50.548 104.809 50.853 105.826 48.514"/>
    <polygon fill="#B8BCCE" fill-rule="nonzero" points="128.455 34.733 129.472 32.394 126.93 32.699"/>
    <path stroke="#B8BCCE" d="M74.1440273,99.2146758 L74.1440273,108.571672"/>
    <polygon fill="#B8BCCE" fill-rule="nonzero" points="72.873 99.622 74.144 97.435 75.415 99.622"/>
    <polygon fill="#B8BCCE" fill-rule="nonzero" points="72.873 108.216 74.144 110.402 75.415 108.216"/>
  </g>
</svg>
