<svg xmlns="http://www.w3.org/2000/svg" width="330" height="330" viewBox="0 0 330 330">
  <g fill="none" fill-rule="evenodd">
    <path fill="#FFF" d="M164,209 C139.699471,209 120,189.300529 120,165 C120,140.699471 139.699471,121 164,121 C188.300529,121 208,140.699471 208,165 C208,189.300529 188.300529,209 164,209 Z M153.500319,141.173892 C147.468251,143.968985 152.543099,146.899823 149.415385,150.162325 C146.28767,153.424828 143.319189,149.467249 140.407061,155 C137.494934,160.532751 142.923452,159.98641 142.923452,165 C142.923452,170.01359 137.016895,170.47812 140.407061,176 C143.797228,181.52188 146.146048,176.700917 149.415385,179.906699 C152.684721,183.112481 148.212132,187.140037 154,189.373857 C159.787868,191.607677 158.688601,186.32696 164,186.32696 C169.311399,186.32696 168.316781,191.572699 174.321072,188.873185 C180.325364,186.173672 175.760993,183.140778 178.94783,179.906699 C182.134667,176.67262 185.39964,180.818882 188.389612,175.138656 C191.379584,169.458429 185.512114,170.113759 185.39964,165 C185.287165,159.886241 190.535643,161.029917 188.389612,155 C186.243581,148.970083 182.277158,153.304299 178.94783,150.162325 C175.618502,147.020352 181.048937,142.533593 174.321072,140.541193 C167.593207,138.548793 169.162761,143.728787 164.5,143.992744 C159.837239,144.2567 159.532388,138.378798 153.500319,141.173892 Z"/>
    <path stroke="#FFF" stroke-linecap="square" stroke-width="12" d="M181 195L235.5 286.5M165 198.5L164.29756 310M289.5 235.5L196 183M309.5 163.5L191.5 165.5M291.5 91.5L199 145M237.5 37.5L185 129M164 17L164.5 126M91.5 39.5L149 137M133.5 146.5L40 94M129.5 165.5L30 165M134 182.5L52 230M145.5 196.5L101 274"/>
    <circle cx="165" cy="165" r="148" stroke="#FFF" stroke-linecap="square" stroke-width="34"/>
    <circle cx="164.5" cy="165.5" r="10.5" fill="#FFF"/>
  </g>
</svg>
